<?xml version="1.0" standalone="no"?><!DOCTYPE svg PUBLIC "-//W3C//DTD SVG 1.1//EN" "http://www.w3.org/Graphics/SVG/1.1/DTD/svg11.dtd"><svg t="1503812959468" class="icon" style="" viewBox="0 0 1024 1024" version="1.1" xmlns="http://www.w3.org/2000/svg" p-id="2782" xmlns:xlink="http://www.w3.org/1999/xlink" width="200" height="200"><defs><style type="text/css"></style></defs><path d="M507.84256 515.03104" p-id="2783" fill="#9b9b9b"></path><path d="M507.84256 515.03104" p-id="2784" fill="#9b9b9b"></path><path d="M804.70016 64.47104c-132.3008 0-592.62976 0-592.62976 0-72.37632 0-154.8288 63.26272-154.8288 161.56672 0 0 0 522.07616 0 580.8128 0 74.87488 61.05088 158.74048 159.744 158.74048 130.27328 0 445.0304 0 583.94624 0 46.05952 0 157.45024-36.51584 157.45024-165.43744 0-142.6432 0-515.15392 0-574.70976C958.40256 114.60608 863.4368 64.47104 804.70016 64.47104zM912.7936 801.13664c0 119.93088-113.27488 119.02976-113.27488 119.02976s-462.68416 0-579.2768 0-118.35392-113.39776-118.35392-113.39776L101.888 225.46432c0-69.14048 53.5552-116.9408 118.35392-116.9408 0 0 451.91168 0 570.368 0s122.20416 108.72832 122.20416 108.72832S912.7936 681.14432 912.7936 801.13664z" p-id="2785" fill="#9b9b9b"></path><path d="M218.7264 492.56448 218.7264 536.90368 485.29408 536.90368 485.29408 804.16768 530.35008 804.16768 530.35008 537.62048 796.91776 537.62048 796.91776 492.56448 530.35008 492.56448 530.35008 225.95584 485.29408 225.95584 485.29408 492.56448Z" p-id="2786" fill="#9b9b9b"></path></svg>