<?xml version="1.0" standalone="no"?><!DOCTYPE svg PUBLIC "-//W3C//DTD SVG 1.1//EN" "http://www.w3.org/Graphics/SVG/1.1/DTD/svg11.dtd"><svg t="1504538501950" class="icon" style="" viewBox="0 0 1024 1024" version="1.1" xmlns="http://www.w3.org/2000/svg" p-id="6238" xmlns:xlink="http://www.w3.org/1999/xlink" width="200" height="200"><defs><style type="text/css"></style></defs><path d="M512.548 958.039c-246.038 0-445.491-199.453-445.491-445.49S266.511 67.058 512.548 67.058s445.49 199.453 445.49 445.491-199.452 445.49-445.49 445.49z m37.125-482.615V327.019c0-20.832-16.621-37.216-37.124-37.216-20.646 0-37.124 16.662-37.124 37.216v148.405H327.019c-20.832 0-37.216 16.621-37.216 37.124 0 20.646 16.662 37.124 37.216 37.124h148.405v148.405c0 20.832 16.621 37.216 37.124 37.216 20.646 0 37.124-16.662 37.124-37.216V549.673h148.405c20.832 0 37.216-16.621 37.216-37.124 0-20.646-16.662-37.124-37.216-37.124H549.673z" fill="#ffffff" p-id="6239"></path></svg>