<?xml version="1.0" standalone="no"?><!DOCTYPE svg PUBLIC "-//W3C//DTD SVG 1.1//EN" "http://www.w3.org/Graphics/SVG/1.1/DTD/svg11.dtd"><svg t="1502293215729" class="icon" style="" viewBox="0 0 1024 1024" version="1.1" xmlns="http://www.w3.org/2000/svg" p-id="3350" xmlns:xlink="http://www.w3.org/1999/xlink" width="200" height="200"><defs><style type="text/css"></style></defs><path d="M446.705729 476.422692c-17.407983 2.952189-41.868246 11.499509-70.454201 33.471454-29.489123 22.663145-39.74652 40.329176-42.917845 54.302666-2.234366 9.847798-8.190968 18.283502-18.288622 18.283502-10.100726 0-18.284526-8.1838-18.284526-18.283502 0-35.503068 40.004568-70.080442 57.203655-83.298221 25.81399-19.83998 63.73472-41.046999 92.741539-41.046999 10.097654 0 18.287598 8.18892 18.287598 18.287598 0 10.099702-6.632441 16.307184-18.287598 18.283502z" p-id="3351" fill="#ffffff"></path><path d="M875.900564 721.764654a367.619728 367.619728 0 0 0 1.84627-36.717531c0-180.0395-130.409342-330.186422-301.707986-360.938135 12.906483-14.999537 20.716523-34.49955 20.716523-55.793608 0-47.242193-38.43273-85.672874-85.67185-85.672875-47.237073 0-85.67185 38.430682-85.67185 85.672875 0 21.294059 7.81516 40.795095 20.720619 55.798728-171.304789 30.755809-301.710034 180.925259-301.710034 360.978071 0 12.516339 0.641023 24.871911 1.918974 37.40873C120.504711 733.801762 102.40041 759.588104 102.40041 789.542122c0 40.333272 32.814047 73.145271 73.14015 73.145271h672.920928c40.32508 0 73.138103-32.814047 73.138102-73.145271 0-30.626785-18.932717-56.902599-45.699026-67.777468zM511.082497 223.304481c24.818663 0 45.010899 20.191212 45.010899 45.006803 0 24.816615-20.194284 45.004755-45.010899 45.004755-24.814567 0-45.002707-20.18814-45.002707-45.004755 0-24.815591 20.187116-45.006803 45.002707-45.006803z m337.376943 590.231985H175.539536c-13.228019 0-23.989224-10.764277-23.989224-23.996392 0-9.519094 5.684218-18.159598 14.484466-22.006762l32.832479-14.358513-3.628028-35.648477a316.927683 316.927683 0 0 1-1.663999-32.436191c0-153.952102 109.866898-285.420259 261.243643-312.596167 0 0 27.584484-5.675002 57.795526-5.675003 33.533918 0 54.741961 5.670906 54.741962 5.670907C718.726961 399.660656 828.589763 531.112429 828.589763 685.048147a318.228162 318.228162 0 0 1-1.594366 31.832032l-3.655676 36.580316 34.05923 13.84037c9.141239 3.717116 15.048689 12.44466 15.048689 22.240233 0 13.231091-10.760181 23.995368-23.9882 23.995368z" p-id="3352" fill="#ffffff"></path></svg>