<?xml version="1.0" standalone="no"?><!DOCTYPE svg PUBLIC "-//W3C//DTD SVG 1.1//EN" "http://www.w3.org/Graphics/SVG/1.1/DTD/svg11.dtd"><svg t="1502293235054" class="icon" style="" viewBox="0 0 1024 1024" version="1.1" xmlns="http://www.w3.org/2000/svg" p-id="4227" xmlns:xlink="http://www.w3.org/1999/xlink" width="200" height="200"><defs><style type="text/css"></style></defs><path d="M213.030 671.853c0 30.934 26.32 55.967 58.765 55.967 32.48 0 58.8-25.033 58.8-55.967 0-30.934-26.32-55.967-58.8-55.967-32.445 0-58.765 25.033-58.765 55.967M708.456 727.82c32.48 0 58.8-25.033 58.8-55.967s-26.32-55.967-58.8-55.967c-32.445 0-58.765 25.033-58.765 55.967 0 30.934 26.32 55.967 58.765 55.967M656.481 487.92h58.555c1.855 0 3.85 0.433 5.81 0.733 1.575-0.2 3.080-0.733 4.69-0.733h97.965c32.445 0 78.365 49.234 78.365 80.033v12.934c0 20.267-23.485 18.833-53.375 18.6 12.215 21.467 19.25 45.967 19.25 72.133 0 83.9-71.295 151.933-159.285 151.933-60.655 0-113.365-32.366-140.28-79.967h-156.1c-26.95 47.6-79.765 79.967-140.525 79.967-88.13 0-159.565-68.033-159.565-151.933 0-51.133 26.67-96.1 67.34-123.634-0.91-3.9-1.47-7.933-1.47-12.1l36.89-58.534c-31.255-15.667-51.835-44.2-51.835-69.667v-20c0-33.133 27.755-59.966 61.95-59.966h127.365c26.145-26.933 70.35-57.8 92.4-45.667 28.21 15.5 18.585 56.933 7.28 82.834l-20.545 49.5v13.3c0 27.367-19.005 50.167-44.905 57.3-28.7 101.167 80.78 154.367 151.9 79.067 2.45-4.033 4.655-8.3 6.475-12.7 0.315 0.266 0.455 0.4 0.42 0.334 24.955-53.8 87.045-62.467 111.23-63.767M855.945 439.687h-228.025c-34.37 0-62.195-25.367-62.195-56.633v-94.4c0-31.3 27.825-56.666 62.195-56.666h228.025c34.335 0 62.195 25.367 62.195 56.666v94.4c0 31.267-27.86 56.633-62.195 56.633z" p-id="4228" fill="#ffffff"></path></svg>