<?xml version="1.0" standalone="no"?><!DOCTYPE svg PUBLIC "-//W3C//DTD SVG 1.1//EN" "http://www.w3.org/Graphics/SVG/1.1/DTD/svg11.dtd"><svg t="1502293255544" class="icon" style="" viewBox="0 0 1024 1024" version="1.1" xmlns="http://www.w3.org/2000/svg" p-id="4947" xmlns:xlink="http://www.w3.org/1999/xlink" width="200" height="200"><defs><style type="text/css"></style></defs><path d="M943.20917 369.96238 943.20917 188.892965 80.79083 188.892965l0 181.068391c63.917748 0 115.734319 51.817595 115.734319 115.737389 0 63.917748-51.817595 115.735343-115.734319 115.735343l0 181.071461 862.41834 0L943.20917 601.434089c-63.919795 0-115.737389-51.817595-115.737389-115.735343C827.471781 421.778951 879.288352 369.96238 943.20917 369.96238z" p-id="4948" fill="#ffffff"></path><path d="M658.357203 275.712381l-104.355632 192.134955 82.615472 0 0 42.394539-97.019198 0 0 58.971872 97.019198 0 0 42.665729-97.019198 0 0 84.789079-52.99343 0 0-84.789079-100.008419 0 0-42.665729 100.008419 0 0-58.971872-100.008419 0 0-42.394539 84.245677 0L367.845058 275.712381l60.6031 0 72.016582 149.740416c3.982899 8.335229 8.513293 18.93412 13.588111 31.795649l1.086803 0c3.622678-10.326678 8.331135-21.375845 14.131513-33.154665L601.558938 275.712381 658.357203 275.712381z" p-id="4949" fill="#ffffff"></path></svg>