<?xml version="1.0" standalone="no"?><!DOCTYPE svg PUBLIC "-//W3C//DTD SVG 1.1//EN" "http://www.w3.org/Graphics/SVG/1.1/DTD/svg11.dtd"><svg t="1504538145808" class="icon" style="" viewBox="0 0 1024 1024" version="1.1" xmlns="http://www.w3.org/2000/svg" p-id="2370" xmlns:xlink="http://www.w3.org/1999/xlink" width="200" height="200"><defs><style type="text/css"></style></defs><path d="M512 960c-247.424 0-448-200.576-448-448s200.576-448 448-448 448 200.576 448 448S759.424 960 512 960zM512 128C299.968 128 128 299.968 128 512s171.968 384 384 384 384-171.968 384-384S724.032 128 512 128zM512 768c-141.376 0-256-114.624-256-256s114.624-256 256-256 256 114.624 256 256S653.376 768 512 768z" p-id="2371" fill="#09bb07"></path></svg>