<?xml version="1.0" standalone="no"?><!DOCTYPE svg PUBLIC "-//W3C//DTD SVG 1.1//EN" "http://www.w3.org/Graphics/SVG/1.1/DTD/svg11.dtd"><svg t="1502523100526" class="icon" style="" viewBox="0 0 1024 1024" version="1.1" xmlns="http://www.w3.org/2000/svg" p-id="1325" xmlns:xlink="http://www.w3.org/1999/xlink" width="200" height="200"><defs><style type="text/css"></style></defs><path d="M480 64C214.912 64 0 278.912 0 544 0 809.088 214.912 1024 480 1024c265.088 0 480-214.912 480-480C960 278.912 745.088 64 480 64zM480 960C250.624 960 64 773.376 64 544S250.624 128 480 128 896 314.624 896 544 709.376 960 480 960z" p-id="1326" fill="#e66474"></path><path d="M576 339.008l0 71.68C633.152 444.032 672 505.28 672 576c0 105.856-86.144 192-192 192s-192-86.144-192-192c0-70.72 38.848-132.032 96-165.312l0-71.68C290.24 377.024 224 468.608 224 576c0 141.376 114.624 256 256 256 141.376 0 256-114.624 256-256C736 468.608 669.76 377.024 576 339.008z" p-id="1327" fill="#e66474"></path><path d="M480 512C497.664 512 512 497.664 512 480l0-192C512 270.336 497.664 256 480 256S448 270.336 448 288l0 192C448 497.664 462.336 512 480 512z" p-id="1328" fill="#e66474"></path></svg>