<?xml version="1.0" standalone="no"?><!DOCTYPE svg PUBLIC "-//W3C//DTD SVG 1.1//EN" "http://www.w3.org/Graphics/SVG/1.1/DTD/svg11.dtd"><svg t="1502728787274" class="icon" style="" viewBox="0 0 1024 1024" version="1.1" xmlns="http://www.w3.org/2000/svg" p-id="1577" xmlns:xlink="http://www.w3.org/1999/xlink" width="200" height="200"><defs><style type="text/css"></style></defs><path d="M511.705799 64.021106c-247.270686 0-447.724091 200.453405-447.724091 447.724091s200.453405 447.724091 447.724091 447.724091c247.27171 0 447.724091-200.453405 447.724091-447.724091S758.976486 64.021106 511.705799 64.021106zM737.334583 694.983521c12.432147 12.547781 12.33698 32.79594-0.210801 45.226041-12.547781 12.429077-32.79594 12.335956-45.228087-0.211824l-179.692568-181.38614-181.747367 180.050726c-12.547781 12.429077-32.79594 12.334933-45.226041-0.212848-12.429077-12.547781-12.334933-32.794917 0.211824-45.226041l181.747367-180.051749L286.766724 331.049788c-12.429077-12.546757-12.334933-32.79594 0.212848-45.226041s32.794917-12.334933 45.225017 0.212848l180.422186 182.121897 181.76067-180.065052c12.549827-12.429077 32.796964-12.334933 45.227064 0.212848 12.4301 12.546757 12.334933 32.79594-0.211824 45.226041L557.640991 513.597381 737.334583 694.983521z" p-id="1578" fill="#ef461b"></path></svg>