<?xml version="1.0" standalone="no"?><!DOCTYPE svg PUBLIC "-//W3C//DTD SVG 1.1//EN" "http://www.w3.org/Graphics/SVG/1.1/DTD/svg11.dtd"><svg t="1503414314662" class="icon" style="" viewBox="0 0 1024 1024" version="1.1" xmlns="http://www.w3.org/2000/svg" p-id="2891" xmlns:xlink="http://www.w3.org/1999/xlink" width="200" height="200"><defs><style type="text/css"></style></defs><path d="M507.0592 154.88c-200.17152 0-362.4192 162.26304-362.4192 362.41408 0 200.14592 162.2528 362.40896 362.4192 362.40896 200.16128 0 362.40384-162.26304 362.40384-362.40896C869.46304 317.14304 707.22048 154.88 507.0592 154.88L507.0592 154.88zM479.46752 721.1008l-47.34976 0 0-17.34144 47.34976 0L479.46752 721.1008 479.46752 721.1008zM479.46752 691.15904l-47.34976 0 0-17.34656 47.34976 0L479.46752 691.15904 479.46752 691.15904zM479.46752 657.94048l-47.2832 0 0-248.9344L376.9088 409.00608l102.56384-102.21056L479.46752 657.94048 479.46752 657.94048 479.46752 657.94048zM534.64064 306.45248l47.36 0 0 17.3312-47.36 0L534.64064 306.45248 534.64064 306.45248zM534.64064 336.384l47.36 0 0 17.3312-47.36 0L534.64064 336.384 534.64064 336.384zM534.62528 720.77312 534.62528 369.61792l47.29856 0 0 248.6528 55.27552 0L534.62528 720.77312 534.62528 720.77312z" p-id="2892" fill="#09bb07"></path></svg>