<?xml version="1.0" standalone="no"?><!DOCTYPE svg PUBLIC "-//W3C//DTD SVG 1.1//EN" "http://www.w3.org/Graphics/SVG/1.1/DTD/svg11.dtd"><svg t="1503843602743" class="icon" style="" viewBox="0 0 1024 1024" version="1.1" xmlns="http://www.w3.org/2000/svg" p-id="11426" xmlns:xlink="http://www.w3.org/1999/xlink" width="200" height="200"><defs><style type="text/css"></style></defs><path d="M880.454188 787.120988" p-id="11427" fill="#09bb07"></path><path d="M511.072373 463.633433c0.106424-0.233314 0.215918-0.462534 0.333598-0.690732-0.199545 0-0.400113-0.004093-0.597611-0.013303C510.902504 463.162712 510.991532 463.396025 511.072373 463.633433L511.072373 463.633433z" p-id="11428" fill="#09bb07"></path><path d="M870.204753 557.480844c30.188556 0 46.746674-35.153638 27.517727-58.425667L540.374746 66.472947c-14.276145-17.282618-40.761356-17.282618-55.035454 0l-357.346711 432.582229c-19.228947 23.27203-2.674922 58.425667 27.517727 58.425667l146.308227 0c-0.410346 3.0208-0.638543 6.098905-0.638543 9.231245l0 271.334755c0 37.558407 30.448476 68.007907 68.006883 68.007907L656.523069 906.054751c37.563524 0 68.012-30.449499 68.012-68.007907L724.535069 566.714136c0-3.134387-0.232291-6.210445-0.642636-9.231245L870.204753 557.480844 870.204753 557.480844zM643.352095 333.639776l-94.676289 135.071302 65.666582 0c9.390881 0 17.004279 7.610328 17.004279 17.001209l0 26.058492c0 9.390881-7.613398 16.999163-17.004279 16.999163l-70.767763 0 0 69.40165c0 9.390881-7.613398 17.001209-17.004279 17.001209l-31.54239 0c-9.391904 0-17.000186-7.611352-17.000186-17.001209l0-69.40165-70.771857 0c-9.390881 0-17.001209-7.610328-17.001209-16.999163L390.254703 485.712287c0-9.391904 7.611352-17.001209 17.001209-17.001209l66.848501 0-91.886757-135.27494c-3.536546-5.207605-3.90596-11.948123-0.959861-17.513886 2.947122-5.560646 8.727779-9.045003 15.026228-9.045003l35.656081 0c5.703909 0 11.029194 2.861164 14.177907 7.618515l65.589834 99.053993 63.653739-98.870822c3.130294-4.861728 8.514931-7.801686 14.297634-7.801686l39.769772 0c6.340405 0 12.154831 3.529383 15.080463 9.159614C647.437134 321.658907 646.989949 328.447521 643.352095 333.639776L643.352095 333.639776z" p-id="11429" fill="#09bb07"></path><path d="M643.352095 333.639776" p-id="11430" fill="#09bb07"></path></svg>