<?xml version="1.0" standalone="no"?><!DOCTYPE svg PUBLIC "-//W3C//DTD SVG 1.1//EN" "http://www.w3.org/Graphics/SVG/1.1/DTD/svg11.dtd"><svg t="1503154334843" class="icon" style="" viewBox="0 0 1024 1024" version="1.1" xmlns="http://www.w3.org/2000/svg" p-id="15848" xmlns:xlink="http://www.w3.org/1999/xlink" width="200" height="200"><defs><style type="text/css"></style></defs><path d="M888.047075 344.437677c30.323347 2.116927 57.149792-26.616919 59.844719-64.143597 2.579327-37.555578-19.883215-69.649051-50.286037-71.831003-30.388372-2.145827-57.207592 26.537444-59.844719 64.114697C835.160037 310.046652 857.593678 342.277401 888.047075 344.437677z" p-id="15849" fill="#4a4a4a"></path><path d="M603.208467 252.181585c27.317745 0 49.520186-27.462245 49.520186-61.210245 0-33.827475-22.195216-61.15967-49.520186-61.15967-27.36832 0-49.527411 27.33942-49.527411 61.15967C553.681056 224.71934 575.840147 252.181585 603.208467 252.181585z" p-id="15850" fill="#4a4a4a"></path><path d="M740.584717 432.734467l6.84208-1.300501 3.453553-0.671925 1.719551-0.3468 0.04335 0c0 0 11.494983-27.809045 20.67074-50.271587l-0.050575-0.079475-0.13005-0.1156-0.252875-0.33235-0.5491-0.686376-8.518281-11.068708L695.623509 279.39818c-5.859479-7.542906-11.646709-9.486432-23.372892-11.169858-11.646709-2.261427-17.997488-2.564877-25.417569-3.164552l18.980089 16.046737-25.706569 12.918309 11.892359 20.46844-32.216299 71.187977-5.100854-98.700797 4.667353-4.024328-6.170155-22.578142-20.03494 0-6.16293 22.578142 4.624003 4.024328-2.427602 46.659084 5.765554 0c7.24668 0 13.13506 5.938954 13.13506 13.12061l0 78.781458 11.068708 0 35.091851 0c1.329401 7.730756 2.622677 15.468736 4.147153 23.134467l54.80889-10.620758L740.584717 432.734467zM684.973852 375.035575c-0.1734-4.074903-0.27455-8.106456-0.455175-12.195809l7.680181 11.234883L684.973852 375.035575z" p-id="15851" fill="#4a4a4a"></path><path d="M552.380555 314.50448l11.986284-20.46844-25.800494-12.918309 18.741664-15.815537c-6.675905 0.527425-11.552783 1.264376-23.170592 2.933352-0.04335 0-27.274395 2.521527-28.668821 11.075933l-6.401355 54.339265 61.961645 0L552.380555 314.50448z" p-id="15852" fill="#4a4a4a"></path><path d="M429.093064 468.895618l160.604643 0c4.392803 0 7.882481-3.468003 7.882481-7.896931L597.580188 350.441657c0-4.378353-3.482453-7.911381-7.882481-7.911381L429.093064 342.530276c-4.335003 0-7.846356 3.525803-7.846356 7.911381l0 110.564256C421.246709 465.427616 424.765286 468.895618 429.093064 468.895618zM509.464023 393.538813c6.675905 0 12.101884 5.433204 12.101884 12.174134 0 6.762605-5.425979 12.181359-12.101884 12.181359-6.76983 0-12.239159-5.418754-12.239159-12.181359C497.217639 398.972017 502.694193 393.538813 509.464023 393.538813z" p-id="15853" fill="#4a4a4a"></path><path d="M243.092528 365.765893c30.431722-2.145827 52.865364-34.333225 50.221012-71.809328-2.680477-37.591703-29.427447-66.260524-59.786919-64.100247-30.352247 2.167502-52.879814 34.2682-50.235462 71.823778C185.957186 339.163423 212.769181 367.926169 243.092528 365.765893z" p-id="15854" fill="#4a4a4a"></path><path d="M397.375291 480.773527l-30.417272 0.852551-3.836478 0.093925L281.789656 397.324716c-0.44795-0.4624-0.924801-0.751401-1.408876-1.170451l-10.158357 11.711734 11.567233 21.241516-7.976406 80.226459-20.230015-107.435829 2.196402-4.840754-7.860806-24.182093-12.470359 1.943526 0.13005 25.403119 3.561928 4.009878 15.150836 117.456911-37.981853-82.719086 4.125478-23.654667-19.334114-11.610584 10.750808-21.920666c-13.07726 1.654526-49.910337 12.578734-53.761264 14.840161-6.675905 2.355352-12.961659 6.78428-17.744613 13.171185l-0.151725 0.15895c-2.564877 2.564877-4.616778 5.035829-5.570479 7.441755l-35.698751 48.104085-20.663515 27.78737-10.281183 13.95871-5.202004 6.91433-1.286051 1.784576-0.195075 0.1734-0.04335 0.13005 3.034502 43.848557 0.065025 0.050575 0.3179 0.4046 0.708051 0.801976 2.868327 3.215127 91.952642 103.859451c1.914626-1.697876 3.872603-3.489678 5.830579-5.259804 1.170451 8.128131 2.246977 16.400762 3.453553 24.536118 0.0289 0.5491 9.269682 46.203909 9.435857 46.695209 6.66868-3.496903 14.565611-7.40563 23.134467-11.560008 7.152755 10.288408 19.99159 17.845763 35.243576 19.001764l86.757864 6.242405 27.086545 2.001326-22.339716 141.256078c30.583447 5.230904 61.311395 9.255232 92.263318 12.101884l18.127538-172.872702 1.156001-10.844733 0.1734-1.343851 0-0.614125 0-0.41905 0-0.050575c-17.405038-20.84414-37.591703-45.019008-37.591703-45.019008L261.111691 672.279517l58.674268-94.206844c-5.245354-19.391914-9.912707-38.104678-14.377761-56.644041l9.031257 10.606308 4.927454 5.780004 2.456502 2.911677 0.27455 0.325125 0.13005 0.13005 0.0289 0.07225c52.207888 23.163367 14.536711 6.415805 26.190644 11.581683l0.223975 0 0.946476 0 1.921851 0.10115 15.208636 0.512975 30.431722 1.054851 60.88512 2.015776c0.888676-25.829394 0.982601-51.615438 0.180625-77.495407L397.375291 480.773527zM134.305623 531.91934l11.422733-17.202738c1.408876 11.025358 2.666027 21.971241 4.139928 32.960474L134.305623 531.91934z" p-id="15855" fill="#4a4a4a"></path><path d="M566.56324 753.560827l75.746955 0c0.830876-22.737092 1.119876-51.600988 1.199351-81.26686L563.442038 672.293967 566.56324 753.560827z" p-id="15856" fill="#4a4a4a"></path><path d="M474.581698 753.560827l75.732505 0c0.816426-22.737092 1.119876-51.600988 1.249926-81.26686L471.46772 672.293967 474.581698 753.560827z" p-id="15857" fill="#4a4a4a"></path><path d="M909.852141 353.953009c-39.990404-12.419784-80.334834 31.674423-82.33616 42.035081-4.855204 24.052043-8.980682 45.293558-13.474635 66.202723l-5.100854 7.810231-8.019756 12.275284-141.017653 34.347675c5.736654 25.200818 12.513709 50.170437 20.16499 74.78603l110.434206-32.859324c-2.456502 9.146857-5.230904 18.691089-8.200381 28.907246l52.836464 84.828787L682.004375 672.286742l-10.042757 10.440133 0 0.050575 0 0.354025-0.18785 2.564877-0.67915 10.252283-1.286051 20.54069-10.555733 164.16657c30.930248 2.225302 61.89662 3.410202 92.942468 3.439103l1.524476-162.916644 10.541283-1.119876 81.84486-8.539956c16.205687-1.777351 29.152896-11.523883 34.846201-24.160418 5.780004 2.991152 11.487758 5.946179 16.863162 8.742256 0.093925-0.53465 9.320257-46.160559 9.435857-46.724109 13.098935-88.67249 25.027418-177.496705 35.575926-266.55212C944.069766 372.326198 915.704396 355.701461 909.852141 353.953009z" p-id="15858" fill="#4a4a4a"></path><path d="M608.403246 456.923785 639.290143 432.315417 608.403246 432.315417Z" p-id="15859" fill="#4a4a4a"></path></svg>