<?xml version="1.0" standalone="no"?><!DOCTYPE svg PUBLIC "-//W3C//DTD SVG 1.1//EN" "http://www.w3.org/Graphics/SVG/1.1/DTD/svg11.dtd"><svg t="1503154268394" class="icon" style="" viewBox="0 0 1024 1024" version="1.1" xmlns="http://www.w3.org/2000/svg" p-id="13125" xmlns:xlink="http://www.w3.org/1999/xlink" width="200" height="200"><defs><style type="text/css"></style></defs><path d="M643.430494 592.817063c-9.173029-34.601526-36.430407-123.794482-73.562107-168.252951-3.832574-4.599293-7.785778-8.70993-11.830988-12.247061-10.037888-8.770245-26.799392-22.901391-32.088732-33.813339-7.107998-14.696474-9.159739-67.180959-5.07977-83.248326-1.646913-0.522391-3.232488-1.001846-4.778194-1.473123 0.873038-19.937766-8.756956-38.266444-17.353411-55.558518-3.925602-7.905386-23.410493-49.358315-21.170651-56.029795 0.624621 0.710493 1.258442 1.369872 1.884085 1.995515 0.029646 0.034758 0.047025 0.051115 0.081783 0.085873 0.055204 0.068494 0.119608 0.103252 0.174812 0.170723 0.844413 0.821923 1.687805 1.592731 2.527106 2.286868 0.081783 0.068494 0.163567 0.119608 0.244328 0.188102 0.855659 0.702315 1.70825 1.345337 2.551642 1.91782 0.068494 0.034758 0.115519 0.061338 0.170723 0.103252 0.878149 0.582707 1.756298 1.105098 2.603778 1.549795 0.008178 0.017379 0.025557 0.017379 0.051115 0.025557 2.658982 1.40463 5.233114 2.200995 7.618122 2.560842 0.042936 0.008178 0.072583 0.017379 0.09814 0.025557 0.761608 0.094051 1.503792 0.154366 2.214285 0.170723 0.051115 0 0.114497 0.008178 0.162544 0.008178 0.705382 0.017379 1.37805-0.017379 2.028228-0.08485 0.064404-0.008178 0.129831-0.008178 0.193213-0.008178 0.633821-0.068494 1.250263-0.179923 1.837059-0.317933 0.072583-0.008178 0.138009-0.025557 0.20957-0.042936 0.578617-0.136987 1.122477-0.308732 1.640779-0.506035 0.07156-0.017379 0.135965-0.051115 0.20957-0.076672 0.505012-0.19628 0.988557-0.42834 1.441432-0.659379 0.060315-0.042936 0.116541-0.077694 0.180946-0.103252 0.436519-0.256595 0.851569-0.522391 1.232884-0.821923 0.043959-0.034758 0.099162-0.077694 0.138009-0.103252 0.381315-0.298509 0.722761-0.616442 1.014114-0.941531 0.052137-0.034758 0.064404-0.085873 0.099162-0.119608 0.299532-0.326111 0.570439-0.668579 0.788187-1.036604 0.021468-0.033736 0.037825-0.060315 0.056226-0.094051 0.20957-0.377226 0.398694-0.745251 0.518302-1.130655 0.009201-0.025557 0.009201-0.042936 0.017379-0.068494 0.123697-0.394605 0.20957-0.805566 0.226949-1.208349 4.942783 7.382995 24.6536 0 24.362247-13.155879-0.056226-2.441234-0.796366-5.069547-2.445323-7.845071 2.971804-1.079541 4.231268-4.025787 4.213889-7.717284-0.008178-0.633821-0.056226-1.2932-0.119608-1.952578-0.072583-0.633821-0.171745-1.267642-0.299532-1.936222-0.325089-1.593754-0.822945-3.2468-1.456766-4.881446-0.624621-1.601932-1.370894-3.194663-2.23882-4.710723-0.291353-0.522391-0.609286-1.010025-0.924152-1.516059-1.045805-1.618289-2.214285-3.116969-3.481927-4.401991-2.629336-2.715208-5.678834-4.530799-8.813182-4.685165 3.687408-2.012893 6.636721-11.160365 7.177514-21.103179 0.500923-9.267079-1.086697-19.236474-6.13682-24.786498-0.089962-5.018433-2.23882-8.915411-5.339433-12.084517-3.644472-3.769192-8.626102-6.518135-13.147701-8.93279-0.761608-0.420162-1.575352-0.805566-2.402387-1.173592-1.031493-0.463098-2.102855-0.882238-3.202842-1.275821-12.011934-4.350876-27.244089-4.933582-34.155807-4.248647-7.052794 0.702315-11.82281 1.841148-14.007449 5.952808-0.308732 0.582707-0.577595 1.233907-0.770808 1.952578l-0.260685 0.154366 0 0c-6.590718 4.170952-16.58567 11.527368-19.47569 18.010745-2.90331 6.561072-0.299532 10.037888-5.540824 14.34685-3.400144 2.774501-7.922765 4.753659-14.161815 6.329011-2.149881 0.53977-3.275424 0.162544-1.567174 2.500527l4.20571 6.046859-5.48562 4.410169c0.753429 3.605625 2.205084 6.329011 4.886557 8.856118-2.239842-0.22286-3.010651-0.522391-5.576604 0.590885 0.261707 1.823769 0.925175 5.317964-0.146188 6.98839-0.659379 1.011047-1.241063 1.866706-3.228399 3.896978-1.275821 1.318757-1.755276 3.8888-1.695983 5.857735 0.291353 12.898262 28.828642 7.082441 36.507079 14.414321 3.627093 3.486017 10.897636 37.590709 11.5151 49.546417 0.681869 12.881905-0.179923 17.164287-0.179923 17.164287s-4.710723 10.517343-5.888403 14.492015c-3.588246 12.084517-9.926458 20.494915-16.800351 28.665075-2.984071 3.520775-16.936316 16.872934-18.024035 28.220378-1.095897 11.313709 12.546593 33.350241 24.397005 38.42081l0.021468 0.017379c-1.743008 14.833461-4.591115 42.275874-6.432263 48.399405-2.166237 7.244985-30.554271 82.485696-38.395253 103.272987-3.636294-1.61011-7.635501-2.982027-11.245215-3.965472-1.160302-0.317933-2.158059-0.694136-3.036208-1.122477l-0.038847-0.017379 14.230308-12.873727c0.068494-0.068494 0.068494-0.19628 0.025557-0.384382-0.646089-2.200995-9.103513-12.769453-15.839396-22.190898-1.979158-2.774501-3.820306-5.455974-5.259694-7.793956-7.592565-11.512033-10.881279-23.090515-22.314596-48.930997 1.841148-38.540418 11.026444-73.330047 11.026444-112.025854 0-22.72249-9.257879-60.595352-15.150371-100.154996-0.710493-4.796595-2.257221-9.644305-4.372344-14.474636-2.321626-5.275028-5.379302-10.517343-8.877586-15.612448-1.494591-2.200995-3.045409-4.368255-4.697433-6.500757l13.728363-13.326602c1.558996-1.515037 19.50227 7.254186 25.043094 7.931966 5.532646 0.650178 8.389953-6.235983 9.177118-9.532875 0.796366-3.296893 0.76263-4.367233 2.085476-5.15542 1.576375-0.934375 3.845864-0.197302 5.078748-1.670426 0.74934-0.891439-1.588642-4.19651-2.106944-5.489709 2.732587-0.170723 8.975726-0.788187 8.525918-2.895132-0.021468-2.629336-1.19097-2.312425-0.381315-5.096127l7.071196-0.547949c1.412808 0.11143 3.091412-1.019225 2.804148-2.543463-1.49868-7.494425-4.552267-18.790754-4.136195-20.537852 0.518302-2.243932 2.085476-2.723387 3.609714-4.462306 2.15397-2.458613 0.042936-10.354798 2.809259-18.216226 0.274997-0.514213 0.518302-0.959932 0.745251-1.396451 3.99614 1.713362 6.864693-0.753429 8.350083-11.074492 1.631578-11.279973-8.633258-26.062319-16.748214-31.671637-18.722261-12.94222-36.687003-17.498577-60.398049-7.999437-0.106318 0.042936-0.19628 0.068494-0.295442 0.119608-4.299761 1.738919-7.935033 3.939914-10.140117 5.413038-1.422009 0.95891-2.248021 1.592731-2.248021 1.592731-0.107341 0.025557-0.214681 0.076672-0.317933 0.11143-4.252736 1.275821-10.281193 5.687012-14.024828 11.810543-1.905553 2.842995-3.400144 6.003922-4.136195 9.335573-2.612979 11.72467-4.62485 31.32099-5.293429 39.140504-0.390516 4.634051-8.535118 19.527827-7.545539 18.354235 0.706404 0.590885 1.477212 1.207327 2.285846 1.850349l-4.192421 5.207557c0 0 0 0-0.008178-0.008178l-0.025557 0.051115c-4.796595-4.025787-6.111263-5.138041-6.449642-4.984697-0.325089 0.136987-2.753033 9.46336-4.431637 14.09741-0.115519 0.30771-0.226949 0.599063-0.325089 0.856681-1.686782 4.213889-25.252664 29.462463-37.872862 39.560666-12.629399 10.097181-29.197689 96.780409-28.353276 122.868285 0.201392 6.551871 0.30771 14.508372 0.299532 23.509655 0 2.243932-0.008178 4.564535-0.025557 6.937275-0.009201 1.19097-0.01329 2.389097-0.021468 3.614825-0.381315 43.843048-2.826638 106.287727-6.624454 155.286195-0.30771 4.067701-0.63791 8.067931-0.9722 11.938329-1.558996 18.088439-3.327561 33.736667-5.233114 45.067755 0 0 4.51751 1.892263 12.559883 5.549002l0.025557 0.335312 0 0c2.962603 40.776172 11.279973 120.838013 11.5151 130.669398 0.218771 9.858987 1.678604 37.025381 1.678604 47.122562 0 10.108426-16.178797 72.878193-17.00072 93.081756-0.851569 20.196406-0.381315 55.910186 0.462076 73.579486 0.843391 17.6785 4.496041 70.881657 5.340455 80.456446 0.83419 9.574789-3.481927 29.40317-5.069547 34.694555-0.522391 1.737897-1.294222 4.161752-1.648957 5.317964-0.445719 1.41383 4.145395 0.052137 7.490335-0.401761l0.496834 7.340058 36.190169 0 8.414488-9.250723 9.254812 9.002306 87.317049 0.076672c6.021301-0.864859 16.854533-2.68045 14.833461-7.399351-2.038451-4.718901-34.220211-7.510781-39.876554-10.020509-5.648165-2.518928-11.322909-6.997591-18.080261-11.998644 4.153573-1.071362 7.369705-1.75732 6.825845-2.509728-3.515663-4.873267-23.489209-21.042864-26.439545-47.252393-2.989183-26.190106 21.574456-210.510424 21.574456-210.510424l22.259392-176.740021c4.269093-1.49868 6.98839-3.032119 7.442288-4.488885 0.19628-0.632799 0.20957-4.547156 0.217748-9.257879 0-0.660401 0-1.353515 0-2.047651 0.008178-5.566381 0.025557-11.707291 0.291353-14.705674 0.085873 0.213659 0.179923 0.359847 0.295442 0.471277 0.01329 0.008178 0.029646 0.042936 0.056226 0.051115 0.116541 0.094051 0.226949 0.136987 0.363936 0.154366 0.033736 0 0.051115 0 0.080761 0 0.132898 0 0.270907-0.034758 0.406872-0.077694 0.017379-0.008178 0.025557-0.008178 0.047025-0.008178 0.162544-0.051115 0.33429-0.127787 0.506035-0.223882 0.038847-0.017379 0.080761-0.042936 0.110408-0.060315 0.179923-0.08485 0.360869-0.170723 0.535681-0.256595 0.154366-0.068494 0.303621-0.146188 0.44163-0.19628 0.038847-0.017379 0.081783-0.034758 0.11143-0.042936 0.170723-0.060315 0.333267-0.08485 0.488656-0.103252 0.042936-0.008178 0.064404 0 0.106318 0 0.167656 0 0.321 0.025557 0.470254 0.094051l0 0c0.299532 0.162544 0.574528 0.505012 0.770808 1.122477 1.83297 5.558203 4.184242 11.493632 7.708084 14.508372-2.809259 5.489709-5.27605 11.08267-7.481135 16.383256-0.859748 2.072186-2.218374 3.913335-2.346161 5.978365-0.09814 1.490502 3.147638 0.479455 3.935825-0.84748l6.221671-10.645129-3.366408 15.15855c-1.126566 3.323472 2.214285 3.476816 4.569646-1.087719l8.457424-16.281027c0 0 6.79211 0.248417 15.06041 0.538748-3.343918 4.642229-9.571723 5.884314-9.571723 5.884314s-9.266057-2.517906-6.739973 2.517906c2.531196 5.053191 10.937505 1.686782 10.937505 1.686782-0.244328 3.049498 4.830331 4.146417 7.580297 3.366408 6.012101-1.704161 13.575019-6.329011 16.828975-10.937505l3.2376-1.798212c2.697829 0.068494 4.838509 0.119608 6.02948 0.119608 6.727705 0 10.932394-21.883188 12.620198-28.613961 1.583531-6.364792 50.157748-95.144741 55.562607-105.011906l0 0 0.496834-0.907796c0.791254 3.733411 1.549795 7.159113 2.269489 10.388534 3.314272 14.807903 6.080594 25.205638 10.32413 40.331475 20.165737 71.659621 5.559225 470.412898-9.737334 548.496604-0.033736 0.162544-0.055204 0.30771-0.089962 0.480477-0.179923 0.881216-0.362914 1.728696-0.534659 2.534263-1.242085 5.566381-2.47497 9.036041-3.687408 9.986773l0 0 0 0c34.703756 30.24145 336.476255 28.237757 420.545482-18.328678C798.613438 978.055637 666.906414 681.306682 643.430494 592.817063z" p-id="13126" fill="#4a4a4a"></path><path d="M568.404465 187.118332c7.23374 19.90403 2.967714 60.234483 14.649448 70.135383 9.17814 7.775555 18.465665-12.701981 26.251443-22.619239 5.699279-7.271565 10.392623-9.840585 13.03116 3.511574 7.438199 37.753253 29.723148 16.924048 54.830646-6.551871 24.096451-22.525188 50.753744-47.447651 69.694775-26.961936 10.573569 11.425138 19.073929 25.51437 31.060306 31.31179 24.645422 11.922995 52.641918 2.200995 63.670407-29.59945l2.945224-3.297915c-13.412475 38.652871-44.013771 52.140995-69.963638 39.586223-12.007845-5.80662-20.537852-19.878473-31.132889-31.329169-18.670124-20.204584-44.933834 4.342698-68.684751 26.541774-25.624778 23.947196-48.364647 45.221098-55.969479 6.655123-2.441234-12.384049-6.371948-10.534722-11.08267-4.538978-8.298969 10.585836-18.225427 32.2707-28.053744 23.937996-11.892326-10.080824-7.463756-50.231353-14.760878-70.316329-8.697663-23.955375-27.518063-36.176879-39.777392-23.286796C534.43676 153.158805 560.922308 166.494608 568.404465 187.118332L568.404465 187.118332z" p-id="13127" fill="#4a4a4a"></path><path d="M593.991418 214.447271c5.728926 35.192411 21.989507 82.280215 38.882886 73.947511 13.159968-6.483378 22.178631-36.07465 31.162535-54.291898 7.818491-15.861887 45.268124-82.648241 50.393897-58.915726 1.558996 7.228629-1.327958 22.738847-3.97365 36.982445-2.214285 11.913794-4.270115 22.91877-3.284625 26.901621 0.950732 3.871421 4.992875 0.822945 15.15855-15.398788 16.414947-26.190106 33.979973-50.213974 54.051659-41.204512l-3.343918 6.714416c-19.103576-8.582144-35.449007 13.112943-51.096212 38.078342-12.225593 19.50227-17.116239 23.047579-18.311299 18.20907-1.074429-4.368255 1.036604-15.7341 3.328584-28.041477 2.585377-13.90113 5.403837-29.034123 3.925602-35.877347-4.620761-21.377154-37.842193 39.842819-45.041175 54.445242-10.337419 20.975393-21.115447 51.731056-35.912105 59.036356-17.184733 8.478892-33.654884-38.360495-39.495239-74.281801-11.129696-68.397486-39.774325-74.906421-65.386836-50.436834C551.566289 128.440801 582.412936 143.266083 593.991418 214.447271L593.991418 214.447271z" p-id="13128" fill="#4a4a4a"></path><path d="M622.857885 338.823438c3.636294-1.001846 5.93134-0.925175 7.888007 1.447566 2.158059 2.611957 1.52526 6.688858-1.40463 9.104535-5.304675 4.385634-14.508372 4.042144-23.728426 3.683319 1.423031-9.095334 2.809259-18.199869 8.114956-22.585503 2.928867-2.423855 7.052794-2.269489 9.211876 0.342468C624.896335 333.179362 624.537511 335.448851 622.857885 338.823438L622.857885 338.823438z" p-id="13129" fill="#4a4a4a"></path><path d="M671.312494 401.850823c3.182396-3.134348 5.606251-4.367233 9.002306-3.048476 3.730344 1.464945 5.434506 6.046859 3.794749 10.251547-2.976915 7.597676-12.715271 12.547615-22.443404 17.514933-3.816217-10.252569-7.623233-20.504116-4.642229-28.10077 1.631578-4.19651 5.994722-6.414884 9.737334-4.95914C670.152192 394.835853 671.111102 397.388517 671.312494 401.850823L671.312494 401.850823z" p-id="13130" fill="#4a4a4a"></path></svg>