<?xml version="1.0" standalone="no"?><!DOCTYPE svg PUBLIC "-//W3C//DTD SVG 1.1//EN" "http://www.w3.org/Graphics/SVG/1.1/DTD/svg11.dtd"><svg t="1503154232516" class="icon" style="" viewBox="0 0 1024 1024" version="1.1" xmlns="http://www.w3.org/2000/svg" p-id="12267" xmlns:xlink="http://www.w3.org/1999/xlink" width="200" height="200"><defs><style type="text/css"></style></defs><path d="M759.375064 122.360815 264.623913 122.360815c-59.006905 0-106.8434 47.835472-106.8434 106.8434L157.780513 794.794761c0 59.006905 47.836495 106.8434 106.8434 106.8434l494.751151 0c59.006905 0 106.8434-47.836495 106.8434-106.8434L866.218464 229.205239C866.217441 170.196287 818.381969 122.360815 759.375064 122.360815zM264.623913 866.217441c-39.382962 0-71.421656-32.039717-71.421656-71.421656L193.202257 229.205239c0-39.381939 32.038694-71.421656 71.421656-71.421656l176.551018 0 0 708.433858L264.623913 866.217441 264.623913 866.217441zM476.534254 866.217441 476.534254 157.783583l70.930469 0 0 708.433858L476.534254 866.217441 476.534254 866.217441zM830.795697 794.795784c0 39.381939-32.038694 71.421656-71.421656 71.421656l-176.551018 0L582.823022 157.783583l176.551018 0c39.382962 0 71.421656 32.039717 71.421656 71.421656L830.795697 794.795784 830.795697 794.795784z" p-id="12268" fill="#4a4a4a"></path><path d="M317.188082 458.868919c-29.342282 0-53.133128 23.788799-53.133128 53.133128 0 29.345352 23.790846 53.133128 53.133128 53.133128 29.347398 0 53.133128-23.788799 53.133128-53.133128S346.535481 458.868919 317.188082 458.868919zM317.188082 529.71343c-9.765411 0-17.711384-7.944949-17.711384-17.711384 0-9.766434 7.944949-17.711384 17.711384-17.711384 9.765411 0 17.711384 7.944949 17.711384 17.711384C334.899466 521.768481 326.953494 529.71343 317.188082 529.71343z" p-id="12269" fill="#4a4a4a"></path><path d="M706.809871 458.868919c-29.347398 0-53.133128 23.788799-53.133128 53.133128 0 29.345352 23.786753 53.133128 53.133128 53.133128 29.342282 0 53.133128-23.788799 53.133128-53.133128S736.153176 458.868919 706.809871 458.868919zM706.809871 529.71343c-9.765411 0-17.711384-7.944949-17.711384-17.711384 0-9.766434 7.944949-17.711384 17.711384-17.711384 9.765411 0 17.711384 7.944949 17.711384 17.711384C724.521255 521.768481 716.576305 529.71343 706.809871 529.71343z" p-id="12270" fill="#4a4a4a"></path></svg>