<?xml version="1.0" standalone="no"?><!DOCTYPE svg PUBLIC "-//W3C//DTD SVG 1.1//EN" "http://www.w3.org/Graphics/SVG/1.1/DTD/svg11.dtd"><svg t="1503154305221" class="icon" style="" viewBox="0 0 1024 1024" version="1.1" xmlns="http://www.w3.org/2000/svg" p-id="13878" xmlns:xlink="http://www.w3.org/1999/xlink" width="200" height="200"><defs><style type="text/css"></style></defs><path d="M835.968362 756.52612c-14.998535-33.196758-40.496045-68.09335-56.394492-76.49253-17.19832-9.099111-95.990626-5.099502-143.585978-1.799824l-16.698369-5.399472-27.997266-35.696514-16.89835 2.899716 29.6971 38.496241c1.999805 2.399766 2.099795 5.899424 0.399961 8.39918l-29.297139 46.99541c-1.699834 2.699736-5.599453 2.799727-7.399278 0.199981-13.398692-19.298115-56.894444-81.792012-59.49419-82.891905-2.599746 1.099893-46.195489 63.59379-59.49419 82.891905-1.799824 2.699736-5.699443 2.599746-7.399277-0.199981L412.009765 686.932917c-1.599844-2.699736-1.499854-5.999414 0.399961-8.39918l29.6971-38.496241-16.89835-2.899716-27.997266 35.696514-16.698369 5.399472c-47.495362-3.399668-126.387657-7.299287-143.585978 1.799824-22.197832 11.798848-62.693878 74.192755-68.093351 112.489015-1.199883 8.29919-2.799727 16.79836-4.49956 25.49751-6.099404 31.696905-12.398789 64.593692 1.699834 88.591349 25.5975 43.595743 126.587638 117.388536 342.366566 117.388536 91.991017 0 163.084074-13.498682 216.378869-32.296846 0 0 48.995215-14.298604 85.09169-35.596524 35.996485-21.29792 50.495069-55.694561 54.094717-93.59086 3.499658-37.896299-27.997266-105.989649-27.997266-105.98965zM510.700127 944.707743c-19.598086 0-35.596524-15.498486-35.596524-34.496631 0-19.098135 15.998438-34.496631 35.596524-34.496631s35.596524 15.498486 35.596524 34.496631-15.998438 34.496631-35.596524 34.496631z m0-98.390391c-19.598086 0-35.596524-15.498486-35.596524-34.496631 0-19.098135 15.998438-34.496631 35.596524-34.496632s35.596524 15.498486 35.596524 34.496632-15.998438 34.496631-35.596524 34.496631z" fill="#4a4a4a" p-id="13879"></path><path d="M667.984767 539.347329c20.797969 0 37.796309-20.597988 37.796309-46.095498 0-22.797774-13.498682-41.595938-31.196953-45.295577V308.469876h-0.099991v-44.595645c0-5.199492-0.19998-10.498975-0.899912-15.598477 56.794454-8.29919 99.790255-47.195391 99.790255-93.990821 0-52.794844-54.894639-95.690655-122.488038-95.690655-9.799043 0-19.298115 0.999902-28.397227 2.699736C604.790938 25.49751 560.295284 0 508.300361 0c-52.194903 0-96.490577 25.49751-114.188848 61.294014-9.099111-1.699834-18.598184-2.699736-28.397227-2.699736-67.593399 0-122.488038 42.795821-122.488039 95.690655 0 46.79543 42.995801 85.691632 99.790255 93.990821-0.499951 5.099502-0.899912 10.398984-0.899912 15.598477V450.556c-13.498682 6.899326-23.197735 23.397715-23.197734 42.49585 0 21.797871 12.398789 40.096084 29.097158 44.895616 13.898643 47.495362 50.79504 85.791622 98.090421 102.589982l61.893956 10.598964 61.893955-10.598964c47.195391-16.498389 83.891807-54.194708 98.090421-101.190119z m-45.895518-214.179084h30.397032v26.597403h-30.397032v-26.597403z m-47.395371 0h26.097451v26.597403h-26.097451v-26.597403z m-52.794845 0H547.996485v26.597403h-26.097452v-26.597403z m-52.694854 0h26.097452v26.597403h-26.097452v-26.597403z m-52.794844 0h26.097451v26.597403h-26.097451v-26.597403z m-52.294893 0h30.197051v26.597403h-30.197051v-26.597403z m0 63.393809h288.471829v36.296456H364.114442v-36.296456z m142.586076 234.477102c-0.499951 0-0.999902 0.09999-1.499854 0.099991v-0.099991c-42.39586-0.699932-74.992676-18.198223-106.889562-50.195098C365.814276 539.947271 364.014452 448.756176 364.014452 448.756176h288.371838s-1.799824 91.191095-35.096572 123.987892c-32.496826 32.096866-65.793575 49.495166-109.089347 50.195098v0.09999c-0.499951 0.09999-0.899912 0-1.499853 0z" fill="#4a4a4a" p-id="13880"></path></svg>