<?xml version="1.0" standalone="no"?><!DOCTYPE svg PUBLIC "-//W3C//DTD SVG 1.1//EN" "http://www.w3.org/Graphics/SVG/1.1/DTD/svg11.dtd"><svg t="1504542578768" class="icon" style="" viewBox="0 0 1024 1024" version="1.1" xmlns="http://www.w3.org/2000/svg" p-id="12037" xmlns:xlink="http://www.w3.org/1999/xlink" width="200" height="200"><defs><style type="text/css"></style></defs><path d="M833.768755 698.006323c0.633446-4.114739 1.265869-8.22743 1.64864-12.342067 0.157594-1.871667 0.236442-3.77088 0.395059-5.643571 0.145306-3.190682 0.422605-6.369075 0.422605-9.558733 0.052224-5.287424-0.079872-10.69353-0.489165-16.086323 0.646758-13.910835-0.408269-27.01015-3.12535-39.865958-1.358029-7.969485-3.229696-16.012698-5.405286-24.213504-0.8576-3.297075-2.056909-6.718054-2.993254-10.061107-1.47671-4.930253-2.835661-9.788928-4.469965-14.767309-1.622016-4.858675-3.454874-9.869824-5.208883-14.807245-1.239245-3.533517-2.43968-7.026995-3.771085-10.607616-2.794803-7.61344-5.749146-15.386419-8.702566-23.199334-0.106394-0.310067-0.263987-0.659046-0.382771-0.96809l0 0c-0.580198-1.476608-1.107251-2.914406-1.675264-4.43095-14.186701-37.11017-28.533965-74.726912-35.28407-111.447245-2.558362-13.830963-3.850854-27.510579-3.850854-40.953754l0 0c0.118682-33.9584 9.560166-66.565018 35.364864-96.64 2.254438-2.643149 2.650522-6.407987 0.936346-9.479885-1.715098-2.993152-5.130035-4.661146-8.531661-4.041011-102.940672 17.173094-143.565517 119.259136-157.938483 172.764774C583.45175 331.66377 563.936461 236.888269 563.936461 100.843725c0-2.953216-1.58208-5.709005-4.153754-7.152947-2.557338-1.397862-5.73481-1.397862-8.319795 0.118682-81.170944 48.732877-97.415578 129.906688-113.345024 210.072474 0 74.838426-15.123046 130.71104-50.145075 183.056179-18.011955-65.898906-68.2624-99.363021-116.917555-131.844813-12.816384-8.510874-26.068787-17.332736-38.370406-26.581402-2.887885-2.17559-6.896333-2.135654-9.849754 0-2.914509 2.17559-4.087296 6.025216-2.794803 9.447117 22.995661 63.29559 15.308288 137.435136 7.831654 209.12896-12.618957 120.77568-25.63287 245.692723 105.552179 326.37225 26.345062 13.172019 54.233395 23.970918 82.81856 32.013107 0.738816 0.236339 1.504358 0.302899 2.255462 0.302899 0.078848 0 0.184218 0 0.302899 0 4.548813 0 8.24105-3.638886 8.24105-8.187494 0-3.389235-2.016973-6.262682-4.851712-7.54176-49.551565-37.538918-43.882189-92.283802-37.855744-150.191718 3.150848-30.773862 6.448128-62.365389 1.160499-91.901133 0.672358 0.435917 1.292493 0.817664 1.911603 1.253581 26.543616 17.720627 51.609498 34.426061 57.516237 69.867213 0.553677 3.269427 2.993254 5.867622 6.169805 6.64535 3.23072 0.817664 6.56681-0.395981 8.544973-3.072 23.905382-31.868826 34.085683-64.883712 33.965978-108.95657 7.001702-35.092275 13.700608-68.430541 40.691405-91.279974 1.081651 50.709914 8.320819 108.724224 41.535693 166.891008 1.714074 3.006464 5.01033 4.747162 8.477389 4.047155 3.376026-0.513741 6.052045-3.150746 6.764339-6.486733 3.257344-16.362701 15.941734-64.93696 53.586637-84.128051-18.500096 39.245824-1.872691 82.716877 13.026202 121.824563 7.015014 18.300826 13.661696 35.546624 16.429875 51.554202 1.187123 5.722317 1.622016 11.496858 1.436774 18.736742 2.875597 37.379379-19.237888 71.449293-65.757286 101.340058-3.414938 2.136678-4.73303 6.487757-3.111014 10.178867 1.331405 3.072 4.324659 4.931277 7.542067 4.931277 0.659046 0 1.358029-0.065536 2.016973-0.225178 6.804275-1.792819 13.528678-3.744256 21.216051-6.420173 116.77225-58.357146 182.29207-127.302349 195.951718-204.699136C833.51808 699.297792 833.636762 698.66537 833.768755 698.006323z" fill="#de2f18" p-id="12038"></path></svg>