<?xml version="1.0" standalone="no"?><!DOCTYPE svg PUBLIC "-//W3C//DTD SVG 1.1//EN" "http://www.w3.org/Graphics/SVG/1.1/DTD/svg11.dtd"><svg t="1505747523424" class="icon" style="" viewBox="0 0 1024 1024" version="1.1" xmlns="http://www.w3.org/2000/svg" p-id="3966" xmlns:xlink="http://www.w3.org/1999/xlink" width="200" height="200"><defs><style type="text/css"></style></defs><path d="M934.183244 391.647464l-216.379142 81.735123L444.988803 327.305381c-32.353486-14.595558-33.448153-17.39304-56.192897-8.757335l-97.060458 36.732153c-30.164153 11.189928-15.811854 21.650077 30.285782 71.761492l136.590094 144.252762L115.250829 700.951657c34.177931 5.230075 242.042998 21.041929 289.235301 3.284l566.794156-214.068179c27.245041-10.21689 40.867561-40.624302 30.650671-67.869343C991.714067 395.053094 961.306655 381.308944 934.183244 391.647464L934.183244 391.647464zM285.289076 615.081126l-115.426535-59.963416c-34.177931-18.244447-47.435562-18.122817-98.520014 1.216296l-52.665637 19.947262 99.736311 101.925644L285.289076 615.081126 285.289076 615.081126zM285.289076 615.081126" p-id="3967" fill="#4a4a4a"></path></svg>