<?xml version="1.0" standalone="no"?><!DOCTYPE svg PUBLIC "-//W3C//DTD SVG 1.1//EN" "http://www.w3.org/Graphics/SVG/1.1/DTD/svg11.dtd"><svg t="1505747747964" class="icon" style="" viewBox="0 0 1024 1024" version="1.1" xmlns="http://www.w3.org/2000/svg" p-id="6255" xmlns:xlink="http://www.w3.org/1999/xlink" width="200" height="200"><defs><style type="text/css"></style></defs><path d="M899.2 624l-60.8-102.4c0 0 0 0 0 0 0 0 0 0 0 0 0-3.2-3.2-3.2-3.2-6.4 0 0-3.2-3.2-3.2-3.2-3.2 0-3.2-3.2-6.4-3.2-3.2 0-3.2-3.2-6.4-3.2-3.2 0-3.2 0-6.4 0-3.2 0-3.2 0-6.4 0-3.2 0-3.2 0-6.4 3.2-3.2 0-3.2 0-6.4 3.2 0 0 0 0 0 0 0 0 0 0 0 0l-102.4 64c-16 9.6-19.2 28.8-9.6 44.8 6.4 9.6 16 16 28.8 16 6.4 0 12.8 0 16-3.2l35.2-22.4c-19.2 115.2-115.2 201.6-236.8 201.6-89.6 0-172.8-51.2-214.4-131.2-9.6-16-28.8-22.4-41.6-12.8C252.8 672 246.4 691.2 256 707.2c51.2 102.4 156.8 166.4 268.8 166.4 150.4 0 275.2-108.8 297.6-252.8l22.4 38.4c6.4 9.6 16 16 28.8 16 6.4 0 9.6 0 16-3.2C902.4 659.2 908.8 640 899.2 624z" p-id="6256" fill="#4a4a4a"></path><path d="M256 576C256 576 256 576 256 576c3.2 3.2 3.2 3.2 6.4 6.4 0 0 3.2 3.2 3.2 3.2 3.2 3.2 9.6 3.2 12.8 3.2 0 0 0 0 0 0s0 0 0 0c3.2 0 6.4 0 12.8-3.2 0 0 3.2 0 3.2-3.2 3.2 0 6.4-3.2 6.4-3.2 0 0 0 0 0 0 0 0 0 0 0 0l86.4-83.2c12.8-12.8 12.8-32 0-44.8-12.8-12.8-32-12.8-44.8 0l-38.4 35.2c12.8-121.6 118.4-214.4 240-214.4 89.6 0 172.8 51.2 211.2 134.4 6.4 16 25.6 22.4 41.6 16 16-6.4 22.4-25.6 16-41.6-51.2-102.4-153.6-166.4-268.8-169.6 0 0-3.2 0-3.2 0-153.6 0-278.4 115.2-300.8 262.4L224 444.8c-12.8-12.8-32-12.8-44.8-3.2-12.8 12.8-12.8 32-3.2 44.8L256 576C256 576 256 576 256 576z" p-id="6257" fill="#4a4a4a"></path></svg>