<?xml version="1.0" standalone="no"?><!DOCTYPE svg PUBLIC "-//W3C//DTD SVG 1.1//EN" "http://www.w3.org/Graphics/SVG/1.1/DTD/svg11.dtd"><svg t="1505747763769" class="icon" style="" viewBox="0 0 1024 1024" version="1.1" xmlns="http://www.w3.org/2000/svg" p-id="7001" xmlns:xlink="http://www.w3.org/1999/xlink" width="200" height="200"><defs><style type="text/css"></style></defs><path d="M518.8 548.9h-2.5v3.6h2.6c0.9 0 2.4-0.2 2.4-1.8s-1.3-1.8-2.5-1.8z" p-id="7002" fill="#4a4a4a"></path><path d="M884.4 362.4c-41.7 0-75.6 33.8-75.5 75.6 0 13.7 3.7 27.1 10.8 38.9L636.9 581.8l-94.5-283.3c37.9-17.5 54.4-62.4 36.9-100.3s-62.4-54.4-100.3-36.9-54.4 62.4-36.9 100.3c9.1 19.8 26.3 34.6 47.2 40.8L388.2 582.9 205.5 475.3c20.5-36.4 7.7-82.5-28.6-103-36.4-20.5-82.5-7.7-103 28.6-20.5 36.4-7.7 82.5 28.6 103 11.3 6.4 24.1 9.8 37.2 9.8 1.5 0 2.9-0.1 4.3-0.2l66.5 356.2h602.9l59-357c41.2 6.7 80.1-21.4 86.7-62.6 6.7-41.2-21.4-80.1-62.6-86.7-4.1-0.6-8.1-1-12.1-1z" p-id="7003" fill="#4a4a4a"></path></svg>