<?xml version="1.0" standalone="no"?><!DOCTYPE svg PUBLIC "-//W3C//DTD SVG 1.1//EN" "http://www.w3.org/Graphics/SVG/1.1/DTD/svg11.dtd"><svg t="1502809195432" class="icon" style="" viewBox="0 0 1024 1024" version="1.1" xmlns="http://www.w3.org/2000/svg" p-id="3664" xmlns:xlink="http://www.w3.org/1999/xlink" width="200" height="200"><defs><style type="text/css"></style></defs><path d="M926.2 336.5C903.6 283.2 871 234.8 830 193.9 746 109.7 631.8 62.4 512.8 62.5c-119-0.2-233.2 47.1-317.2 131.4-41 40.9-73.6 89.3-96.1 142.6-23.4 55.2-35.4 114.6-35.3 174.6 0 60.5 11.9 119.3 35.3 174.6 22.5 53.3 55.2 101.7 96.1 142.6 40.9 41 89.3 73.6 142.6 96.1 55.3 23.4 114.6 35.4 174.6 35.3 89.3 0.1 176.6-26.5 250.6-76.4 13.9-10.2 17.2-29.5 7.6-43.8-9.6-14.3-28.8-18.4-43.4-9.4-63.4 42.8-138.2 65.6-214.7 65.5-212 0-384.5-172.5-384.5-384.5s172.5-384.5 384.5-384.5 384.5 172.5 384.5 384.5c0 81.7-25.3 159.7-73.2 225.7-9.9 14.3-6.6 33.9 7.5 44.2 14.1 10.2 33.8 7.3 44.4-6.5 55.7-76.5 85.6-168.7 85.4-263.3-0.1-60.6-11.9-119.4-35.3-174.7z m-260-42c-12.5-12.5-32.8-12.5-45.3 0l-90.6 90.6c-8.3 8.3-11.3 20.4-8.1 31.6h-15.4c3.3-11.2 0.2-23.3-8.1-31.6L408 294.5c-12.5-12.5-32.8-12.5-45.3 0s-12.5 32.8 0 45.3l76.9 76.9h-57.4c-17.6 0-32 14.4-32 32 0 17.7 14.4 32 32 32h96.1v64.1h-96.1c-17.6 0-32 14.4-32 32.1 0 17.6 14.4 32 32 32h96.1V705c0 17.6 14.4 32 32.1 32 17.6 0 32-14.4 32-32v-96h96.1c17.6 0 32-14.4 32-32s-14.4-32.1-32-32.1h-96.1v-64.1h96.1c17.7 0 32-14.4 32-32s-14.4-32-32-32h-49.3l77-76.9c12.4-12.7 12.4-32.9 0-45.4z" p-id="3665" fill="#ffffff"></path></svg>