<?xml version="1.0" standalone="no"?><!DOCTYPE svg PUBLIC "-//W3C//DTD SVG 1.1//EN" "http://www.w3.org/Graphics/SVG/1.1/DTD/svg11.dtd"><svg t="1503927369575" class="icon" style="" viewBox="0 0 1024 1024" version="1.1" xmlns="http://www.w3.org/2000/svg" p-id="2207" xmlns:xlink="http://www.w3.org/1999/xlink" width="200" height="200"><defs><style type="text/css"></style></defs><path d="M220.672 513.024l2.56 29.696 2.56 27.136 7.68 29.696 9.728 24.576 12.288 27.136 14.848 22.528 7.68 12.288 9.728 9.728 17.408 22.528 22.528 17.408 22.528 17.408 24.576 14.848 24.576 12.288 27.136 9.728 27.136 7.68 14.848 2.56 14.848 2.56H542.72l27.136-5.12 29.696-7.68 24.576-9.728 27.136-12.288 22.528-14.848 12.288-7.68 9.728-9.728 22.528-17.408 17.408-22.528 17.408-22.528 14.848-22.528 12.288-27.136 9.728-24.576 7.68-29.696 2.56-12.288 2.56-14.848V482.816l-5.12-29.696-7.68-27.136-9.728-27.136-12.288-24.576-14.848-24.576-7.68-12.288-9.728-9.728-17.408-19.968-22.528-19.968-22.528-17.408-22.528-14.848-27.136-12.288-24.576-9.728-29.696-7.68-12.288-2.56h-14.848l-14.848-2.56h-14.848l-29.696 2.56-29.184 2.048-27.136 7.68-27.136 9.728-24.576 12.288-24.576 14.848-12.288 7.68-9.728 9.728-23.552 19.968-17.408 19.968-17.408 22.528-14.848 24.576-12.288 24.576-9.728 27.136-7.68 27.648-2.56 14.848v14.848l-2.56 14.848v14.848h0.512z m-72.192 0l2.56-37.376 2.56-19.968 2.56-17.408 9.728-34.816 5.12-17.408 7.68-14.848 7.68-17.408 7.68-14.848 17.408-29.696 9.728-14.848 12.288-14.848 22.528-24.576 12.288-12.288 12.288-9.728 14.848-12.288 14.848-9.728 14.848-9.728 14.848-7.68 32.256-14.848 32.256-12.288 17.408-5.12 17.408-5.12 17.408-2.56 19.968-2.56 37.376-2.56 37.376 2.56 17.408 2.56 17.408 2.56 34.816 9.728 17.408 5.12 17.408 7.68 14.848 7.68 14.848 7.68 32.256 17.408 12.288 9.728 14.848 12.288 24.576 22.528 12.288 12.288 12.288 12.288 9.728 14.848 9.728 14.848 9.728 14.848 7.68 14.848 17.408 32.256 12.288 32.256 2.56 17.408 5.12 17.408 2.56 17.408 2.56 19.968 2.56 37.376-2.56 37.376-2.56 17.408-2.56 17.408-7.68 34.816-7.68 17.408-5.12 17.408-7.68 14.848-9.728 14.848-17.408 32.256-9.728 12.288-9.728 14.848-24.576 24.576-12.288 12.288-12.288 12.288-14.848 9.728-12.288 9.728-14.848 9.728-17.408 7.68-29.696 17.408-34.816 12.288-17.408 5.12-17.408 2.56-17.408 2.56-17.408 2.56-37.376 2.56-37.376-2.56-19.968-2.56-17.408-2.56-34.816-7.68-17.408-7.68-14.848-5.12-17.408-7.68-14.848-9.728-29.696-17.408-14.848-9.728-14.848-9.728-24.576-24.576-12.288-12.288-9.728-12.288-12.288-14.848-9.728-12.288-9.728-14.848-7.68-17.408L179.2 655.36l-12.288-34.816-5.12-17.408-5.12-17.408-2.56-17.408-2.56-17.408-3.072-37.888z m568.32 25.088V699.392h-178.176v-52.224h121.344v-59.392h-121.344V426.496h121.344V371.712h-121.344V319.488H716.8V481.28h-121.344v54.784H716.8v2.048z m-409.6 0V699.392h178.176v-52.224H364.544v-59.392h121.344V426.496H364.544V371.712h121.344V319.488H307.2V481.28h121.344v54.784H307.2v2.048z" fill="#E50012" p-id="2208"></path></svg>