<?xml version="1.0" standalone="no"?><!DOCTYPE svg PUBLIC "-//W3C//DTD SVG 1.1//EN" "http://www.w3.org/Graphics/SVG/1.1/DTD/svg11.dtd"><svg t="1502210687854" class="icon" style="" viewBox="0 0 1024 1024" version="1.1" xmlns="http://www.w3.org/2000/svg" p-id="3951" xmlns:xlink="http://www.w3.org/1999/xlink" width="200" height="200"><defs><style type="text/css"></style></defs><path d="M227.429291 458.263122l0 439.897845L100.978321 898.160967 100.978321 458.263122 227.429291 458.263122M264.268314 421.424098 64.139298 421.424098l0 513.575892 200.129017 0L264.268314 421.424098 264.268314 421.424098z" p-id="3952" fill="#4a4a4a"></path><path d="M529.370111 125.839033c9.071609 0 36.418444 5.799076 53.788044 32.281217 11.538801 17.59268 16.916275 41.307801 15.985066 70.487378-1.27504 39.889499-14.288424 88.585571-38.679951 144.737452l-0.01535 0.034792c-0.200568 0.390903-0.594541 1.11745-0.893346 1.666966-1.480724 2.731204-3.50994 6.471388-5.092995 10.819416-5.430686 14.915711-2.7486 30.318516 7.161097 41.343617 7.773034 8.704243 18.503423 13.491269 30.270421 13.491269 5.729491 0 10.242272-1.124614 13.537318-1.946328 2.033309-0.50756 3.384074-0.844228 5.314029-0.997724 21.658276-1.645476 60.027142-3.402493 102.775758-3.402493 52.774971 0 99.724259 2.650363 135.774313 7.66661 51.42216 7.154957 67.296709 17.21508 70.834278 20.001543 1.659803 6.203282 4.489244 22.589484 1.759063 56.865125-2.424212 30.42801-8.53949 66.109674-17.682731 103.189174-20.832468 84.47188-53.527101 162.04463-89.697905 212.8262-20.555152 28.857235-52.438303 63.256696-87.598081 63.256696L315.765175 898.159944l-5.432733-455.685413c16.372899-9.969049 41.007973-26.01142 66.424852-46.39261 62.029752-49.737798 97.397261-99.81124 105.119129-148.821467 7.30436-46.298466 15.922644-78.997192 26.348088-99.966783 5.215792-10.490935 9.770528-15.639189 12.672624-18.10945 3.053546-2.600221 5.282307-3.123131 7.28594-3.305279 0.137123-0.013303 0.528026-0.041956 1.182942-0.041956l0.00307 0L529.370111 125.836987M529.366018 88.998987c-1.630127 0-3.160993 0.068562-4.569062 0.198521-41.508369 3.773953-64.215534 56.646138-79.3093 152.323221-15.072277 95.655594-172.248016 179.902346-172.248016 179.902346l6.123464 513.575892L726.90914 934.998967c157.068292 0 258.286578-397.802098 227.408313-487.095797-14.193257-41.020252-140.319839-50.387597-240.796228-50.387597-43.927465 0-82.95227 1.790786-105.576547 3.508917-8.566096 0.665149-13.129019 2.836605-16.051581 2.836605-1.153266 0-2.051729-0.338714-2.838651-1.24127-2.264577-2.436492 3.258207-9.918907 5.197372-14.598486C701.12694 141.983735 574.845839 88.995917 529.366018 88.998987L529.366018 88.998987z" p-id="3953" fill="#4a4a4a"></path></svg>