<?xml version="1.0" standalone="no"?><!DOCTYPE svg PUBLIC "-//W3C//DTD SVG 1.1//EN" "http://www.w3.org/Graphics/SVG/1.1/DTD/svg11.dtd"><svg t="1501375143300" class="icon" style="" viewBox="0 0 1024 1024" version="1.1" xmlns="http://www.w3.org/2000/svg" p-id="1696" xmlns:xlink="http://www.w3.org/1999/xlink" width="200" height="200"><defs><style type="text/css"></style></defs><path d="M245.285 7c65.819 0 125.39 26.66 168.508 69.778 0.487 0.555 0.974 1.042 1.456 1.599 42.216 42.973 68.322 101.922 68.322 166.909l0 212.042c0 14.508-11.737 26.244-26.246 26.244L245.285 483.572c-65.75 0-125.253-26.659-168.368-69.776l-0.067-0.073-0.072 0.073C33.664 370.676 7 311.103 7 245.286c0-65.749 26.664-125.389 69.777-168.507C119.892 33.66 179.534 7 245.285 7L245.285 7 245.285 7zM376.648 113.923c-33.607-33.604-80.057-54.362-131.363-54.362-51.312 0-97.754 20.758-131.362 54.362C80.316 147.527 59.56 193.976 59.56 245.286c0 51.31 20.756 97.754 54.363 131.364l0 0.067c33.608 33.537 80.051 54.293 131.362 54.293L431.01 431.01 431.01 245.286c0-50.686-20.203-96.576-53.041-130.113L376.648 113.923 376.648 113.923zM706.439 592.988c-14.512 0-26.31-11.799-26.31-26.312 0-14.438 11.798-26.243 26.31-26.243l72.275 0c65.822 0 125.395 26.658 168.507 69.777 0.486 0.556 0.976 1.041 1.462 1.594 42.212 42.98 68.316 101.928 68.316 166.91 0 65.752-26.662 125.253-69.778 168.371l-0.14 0.144C903.969 990.342 844.466 1017 778.715 1017c-65.746 0-125.249-26.658-168.368-69.771l-0.068-0.076-0.066 0.076c-43.118-43.119-69.776-102.695-69.776-168.509L540.437 566.677c0-14.438 11.799-26.243 26.242-26.243 14.509 0 26.312 11.805 26.312 26.243l0 212.044c0 51.303 20.762 97.753 54.366 131.358l0 0.07c33.604 33.534 80.052 54.295 131.359 54.295 51.311 0 97.829-20.761 131.435-54.295 33.534-33.601 54.295-80.126 54.295-131.429 0-50.689-20.206-96.578-53.044-130.115l-1.322-1.25c-33.607-33.604-80.053-54.367-131.363-54.367L706.439 592.988 706.439 592.988zM245.285 964.444c51.306 0 97.83-20.761 131.43-54.295 33.539-33.601 54.295-80.126 54.295-131.429L431.01 592.988 245.285 592.988c-51.312 0-97.754 20.764-131.362 54.367C80.316 680.96 59.56 727.41 59.56 778.721c0 51.303 20.756 97.753 54.363 131.358l1.25 1.319C148.706 944.242 194.6 964.444 245.285 964.444L245.285 964.444 245.285 964.444zM413.653 947.229C370.537 990.342 311.036 1017 245.285 1017c-64.985 0-123.932-26.105-166.911-68.313-0.555-0.488-1.042-0.977-1.596-1.457C33.664 904.11 7 844.534 7 778.721c0-65.749 26.664-125.395 69.777-168.51 43.114-43.119 102.757-69.777 168.507-69.777l212.041 0c14.509 0 26.246 11.805 26.246 26.243l0 212.044c0 65.751-26.659 125.252-69.778 168.365L413.653 947.229 413.653 947.229zM778.715 59.561c-51.308 0-97.756 20.758-131.359 54.362-33.604 33.604-54.366 80.053-54.366 131.363L592.99 431.01l185.726 0c51.311 0 97.829-20.756 131.435-54.293 33.534-33.604 54.295-80.121 54.295-131.431 0-51.31-20.761-97.759-54.295-131.363l-0.071 0C876.471 80.319 830.025 59.561 778.715 59.561L778.715 59.561 778.715 59.561zM610.212 76.778C653.326 33.66 712.969 7 778.715 7c65.822 0 125.395 26.66 168.507 69.778l-0.066 0.067 0.066 0.072C990.344 120.031 1017 179.531 1017 245.286c0 65.75-26.656 125.249-69.778 168.368l-0.14 0.141c-43.113 43.113-102.616 69.776-168.367 69.776L566.678 483.571c-14.443 0-26.242-11.736-26.242-26.25L540.436 245.286C540.436 179.537 567.094 119.892 610.212 76.778L610.212 76.778 610.212 76.778zM610.212 76.778" p-id="1697" fill="#000000"></path><path d="M245.549 7.5c65.753 0 125.266 26.633 168.341 69.709 0.486 0.555 0.973 1.041 1.455 1.597C457.52 121.737 483.6 180.627 483.6 245.55l0 211.832c0 14.494-11.726 26.218-26.22 26.218L245.549 483.6c-65.686 0-125.129-26.632-168.201-69.708l-0.067-0.073-0.072 0.073C34.137 370.816 7.5 311.302 7.5 245.55c0-65.684 26.637-125.265 69.708-168.341C120.28 34.133 179.863 7.5 245.549 7.5L245.549 7.5 245.549 7.5zM376.782 114.317c-33.573-33.571-79.978-54.308-131.233-54.308-51.261 0-97.658 20.737-131.232 54.308-33.573 33.571-54.309 79.974-54.309 131.233 0 51.259 20.736 97.657 54.309 131.234l0 0.067c33.575 33.504 79.972 54.24 131.232 54.24L431.09 431.091 431.09 245.55c0-50.635-20.183-96.48-52.988-129.984L376.782 114.317 376.782 114.317zM706.247 592.908c-14.497 0-26.284-11.787-26.284-26.285 0-14.425 11.787-26.218 26.284-26.218l72.204 0c65.757 0 125.27 26.632 168.34 69.708 0.485 0.556 0.975 1.04 1.46 1.593 42.171 42.938 68.249 101.827 68.249 166.745 0 65.687-26.636 125.129-69.709 168.204l-0.14 0.144c-43.07 43.069-102.515 69.701-168.2 69.701-65.682 0-125.125-26.632-168.202-69.701l-0.068-0.076-0.066 0.076c-43.075-43.076-69.707-102.594-69.707-168.342L540.408 566.623c0-14.425 11.787-26.218 26.217-26.218 14.494 0 26.285 11.793 26.285 26.218l0 211.834c0 51.252 20.741 97.656 54.313 131.228l0 0.07c33.57 33.501 79.973 54.241 131.229 54.241 51.26 0 97.731-20.74 131.304-54.241 33.501-33.567 54.241-80.046 54.241-131.298 0-50.64-20.186-96.482-52.991-129.986l-1.321-1.249c-33.574-33.57-79.973-54.313-131.232-54.313L706.247 592.909 706.247 592.908zM245.549 963.996c51.255 0 97.732-20.74 131.3-54.241 33.505-33.567 54.242-80.046 54.242-131.298L431.091 592.908 245.549 592.908c-51.261 0-97.658 20.743-131.232 54.313-33.573 33.571-54.309 79.976-54.309 131.235 0 51.252 20.736 97.656 54.309 131.228l1.249 1.318C149.065 943.814 194.915 963.996 245.549 963.996L245.549 963.996 245.549 963.996zM413.75 946.799c-43.073 43.069-102.515 69.701-168.202 69.701-64.921 0-123.809-26.08-166.746-68.246-0.554-0.487-1.041-0.976-1.595-1.455C34.137 903.723 7.5 844.205 7.5 778.457c0-65.685 26.637-125.271 69.708-168.344 43.072-43.076 102.655-69.708 168.341-69.708l211.831 0c14.494 0 26.22 11.793 26.22 26.218l0 211.834c0 65.686-26.633 125.128-69.709 168.198L413.75 946.799 413.75 946.799zM778.451 60.009c-51.257 0-97.659 20.737-131.229 54.308-33.571 33.571-54.313 79.974-54.313 131.233L592.909 431.09l185.542 0c51.26 0 97.731-20.736 131.304-54.24 33.501-33.57 54.241-80.042 54.241-131.301 0-51.259-20.74-97.662-54.241-131.233l-0.071 0C876.109 80.746 829.711 60.009 778.451 60.009L778.451 60.009 778.451 60.009zM610.114 77.209C653.187 34.133 712.77 7.5 778.451 7.5c65.757 0 125.27 26.633 168.34 69.709l-0.066 0.067 0.066 0.072C989.87 120.419 1016.5 179.86 1016.5 245.55c0 65.685-26.63 125.125-69.709 168.201l-0.14 0.141c-43.07 43.07-102.515 69.708-168.2 69.708L566.624 483.6c-14.43 0-26.217-11.725-26.217-26.224L540.407 245.55C540.407 179.866 567.039 120.28 610.114 77.209L610.114 77.209 610.114 77.209zM610.114 77.209" p-id="1698" fill="#000000"></path><path d="M245.813 8c65.688 0 125.142 26.607 168.174 69.64 0.486 0.554 0.972 1.04 1.453 1.595 42.133 42.888 68.188 101.721 68.188 166.579l0 211.622c0 14.479-11.715 26.192-26.194 26.192L245.813 483.628c-65.621 0-125.005-26.606-168.035-69.639l-0.067-0.073-0.072 0.073C34.611 370.957 8 311.5 8 245.814 8 180.195 34.611 120.673 77.639 77.64 120.668 34.607 180.192 8 245.813 8L245.813 8 245.813 8zM376.916 114.711c-33.54-33.538-79.898-54.254-131.103-54.254-51.21 0-97.561 20.717-131.103 54.254-33.54 33.538-54.255 79.895-54.255 131.103 0 51.208 20.715 97.561 54.255 131.104l0 0.067c33.542 33.471 79.893 54.186 131.103 54.186L431.17 431.171 431.17 245.814c0-50.585-20.163-96.385-52.936-129.855L376.916 114.711 376.916 114.711zM706.055 592.828c-14.482 0-26.258-11.775-26.258-26.259 0-14.411 11.775-26.192 26.258-26.192l72.133 0c65.691 0 125.145 26.605 168.173 69.639 0.484 0.556 0.974 1.039 1.458 1.592C989.947 654.502 1016 713.333 1016 778.188c0 65.621-26.609 125.005-69.64 168.037l-0.14 0.144C903.193 989.395 843.808 1016 778.188 1016c-65.617 0-125.001-26.605-168.036-69.632l-0.068-0.076-0.066 0.076c-43.032-43.034-69.638-102.492-69.638-168.175L540.38 566.569c0-14.411 11.775-26.192 26.191-26.192 14.479 0 26.259 11.781 26.259 26.192l0 211.624c0 51.201 20.721 97.559 54.259 131.097l0 0.07c33.537 33.468 79.894 54.188 131.1 54.188 51.209 0 97.634-20.72 131.173-54.188 33.468-33.534 54.188-79.966 54.188-131.167 0-50.59-20.165-96.387-52.938-129.857l-1.32-1.248c-33.541-33.537-79.893-54.26-131.102-54.26L706.055 592.828 706.055 592.828zM245.813 963.548c51.205 0 97.635-20.72 131.169-54.188 33.472-33.534 54.188-79.966 54.188-131.167L431.17 592.828 245.813 592.828c-51.21 0-97.561 20.723-131.103 54.26-33.54 33.538-54.255 79.896-54.255 131.105 0 51.201 20.715 97.559 54.255 131.097l1.248 1.317C149.425 943.387 195.229 963.548 245.813 963.548L245.813 963.548 245.813 963.548zM413.848 946.368C370.817 989.395 311.435 1016 245.813 1016c-64.856 0-123.687-26.055-166.581-68.179-0.554-0.486-1.04-0.975-1.593-1.453C34.611 903.334 8 843.876 8 778.193c0-65.62 26.611-125.146 69.639-168.178 43.029-43.033 102.553-69.639 168.174-69.639l211.621 0c14.479 0 26.194 11.781 26.194 26.192l0 211.624c0 65.62-26.606 125.004-69.641 168.031L413.848 946.368 413.848 946.368zM778.188 60.457c-51.206 0-97.563 20.717-131.1 54.254-33.538 33.538-54.259 79.895-54.259 131.103L592.829 431.17l185.358 0c51.209 0 97.634-20.715 131.173-54.186 33.468-33.537 54.188-79.962 54.188-131.17 0-51.208-20.72-97.565-54.188-131.103l-0.071 0C875.748 81.173 829.396 60.457 778.188 60.457L778.188 60.457 778.188 60.457zM610.017 77.64C653.047 34.607 712.57 8 778.188 8c65.691 0 125.145 26.607 168.173 69.64l-0.066 0.066 0.066 0.072c43.036 43.028 69.64 102.411 69.64 168.035 0 65.62-26.604 125.001-69.64 168.034l-0.14 0.141c-43.027 43.028-102.413 69.639-168.033 69.639L566.57 483.627c-14.416 0-26.191-11.713-26.191-26.198L540.379 245.814C540.379 180.195 566.984 120.668 610.017 77.64L610.017 77.64 610.017 77.64zM610.017 77.64" p-id="1699" fill="#000000"></path></svg>