<?xml version="1.0" standalone="no"?><!DOCTYPE svg PUBLIC "-//W3C//DTD SVG 1.1//EN" "http://www.w3.org/Graphics/SVG/1.1/DTD/svg11.dtd"><svg t="1501375212290" class="icon" style="" viewBox="0 0 1024 1024" version="1.1" xmlns="http://www.w3.org/2000/svg" p-id="2491" xmlns:xlink="http://www.w3.org/1999/xlink" width="200" height="200"><defs><style type="text/css"></style></defs><path d="M424.370678 484.952055l-286.644085-150.403068-0.693705-0.353397c-11.779894-5.759059-23.389634-8.677855-34.475823-8.677855C73.827213 325.517735 52.976801 346.132549 52.976801 374.482827v405.463949c0 31.41305 25.837234 67.668946 60.208346 84.618904l286.644085 150.403068 0.693705 0.353397c11.779894 5.74597 23.389634 8.664766 34.475823 8.664766 28.795296 0 49.580265-20.614814 49.593354-49.030536V569.505515c0-31.41305-25.837234-67.682035-60.208347-84.618904z m6.544386 484.834255a35.745434 35.745434 0 0 1-6.544386-2.486866l-286.644085-150.416156-0.680616-0.340309c-18.324279-8.939631-30.444481-27.970704-30.444482-36.648558L106.640762 379.718336a36.020298 36.020298 0 0 1 6.544385 2.473778l286.644085 150.416156 0.693705 0.340308c18.324279 8.952719 30.444481 27.970704 30.444482 36.648559v400.215351zM887.791704 266.487378c22.329443-11.347964 35.077906-29.122515 34.947019-48.755672-0.117799-19.423736-12.787729-36.766358-34.750687-47.564594L567.182259 12.277267C551.109248 4.358561 530.271924 0 508.518387 0c-22.944616 0-44.986106 4.764313-62.053863 13.429079L122.347287 178.046552c-22.342532 11.347964-35.077906 29.122515-34.960107 48.755672 0.130888 19.423736 12.800818 36.766358 34.763775 47.564594L442.891289 432.256663c16.073011 7.853263 36.910334 12.277267 58.663872 12.277267 22.944616 0 44.999195-4.764313 62.040774-13.429079L887.791704 266.487378z m-386.249632 124.434946c-13.494523 0-26.242986-2.460689-34.986285-6.766895L145.763098 226.265584l0.798415-0.41884L470.744194 61.229271c9.541714-4.803579 23.32419-7.617665 37.721838-7.617665 13.494523 0 26.242986 2.460689 34.986285 6.766895l320.871221 157.876756-0.798415 0.41884-324.195769 164.617473c-9.554803 4.842845-23.32419 7.630753-37.787282 7.630754zM917.411593 633.640493a26.805803 26.805803 0 1 0 26.805803-26.805803 26.805803 26.805803 0 0 0-26.805803 26.805803M873.184636 840.115856a26.805803 26.805803 0 1 0 26.805803-26.805803 26.805803 26.805803 0 0 0-26.805803 26.805803" fill="#000000" p-id="2492"></path><path d="M599.707855 967.299444a37.080488 37.080488 0 0 1-6.544386 2.486866V569.505515c0-8.651678 12.146379-27.682751 30.444481-36.648558L910.814853 382.218291a36.556937 36.556937 0 0 1 6.544385-2.486866v195.009599h53.663961v-200.258197c0-28.415722-20.850412-49.030536-49.580264-49.030536-11.086189 0-22.68284 2.918796-34.475823 8.677855L599.629322 484.952055c-34.318758 16.93687-60.208347 53.24512-60.208347 84.618904v405.398505c0 28.402633 20.863501 49.030536 49.593354 49.030536 11.086189 0 22.68284-2.918796 34.462734-8.677855l287.403234-150.756465-23.913185-47.983434-287.259257 150.717198z" fill="#000000" p-id="2493"></path><path d="M917.411593 548.851435h53.611606v84.841413h-53.611606v-84.841413z" fill="#000000" p-id="2494"></path></svg>