<?xml version="1.0" standalone="no"?><!DOCTYPE svg PUBLIC "-//W3C//DTD SVG 1.1//EN" "http://www.w3.org/Graphics/SVG/1.1/DTD/svg11.dtd"><svg t="1501375235666" class="icon" style="" viewBox="0 0 1024 1024" version="1.1" xmlns="http://www.w3.org/2000/svg" p-id="3183" xmlns:xlink="http://www.w3.org/1999/xlink" width="200" height="200"><defs><style type="text/css"></style></defs><path d="M664.861 581.099c73.008-51.573 120.69-136.615 120.69-232.797 0-157.317-127.524-284.84-284.834-284.84-157.309 0-284.831 127.524-284.831 284.84 0 99.533 51.066 187.127 128.416 238.054-144.496 63.028-246.365 205.536-250.36 372.295h40.702C138.94 796.777 245.44 660.377 391.97 611.618c33.51 13.855 70.232 21.517 108.747 21.517 41.828 0 81.548-9.017 117.327-25.212C770.61 653.15 882.725 792.475 887.138 958.65h40.705c-4.112-171.571-111.829-317.473-262.982-377.551z m-164.144 11.336c-134.833 0-244.141-109.305-244.141-244.133 0-134.84 109.308-244.14 244.141-244.14 134.835 0 244.146 109.3 244.146 244.14 0 134.83-109.311 244.133-244.146 244.133z" fill="#000000" p-id="3184"></path></svg>