<?xml version="1.0" standalone="no"?><!DOCTYPE svg PUBLIC "-//W3C//DTD SVG 1.1//EN" "http://www.w3.org/Graphics/SVG/1.1/DTD/svg11.dtd"><svg t="1501375080219" class="icon" style="" viewBox="0 0 1024 1024" version="1.1" xmlns="http://www.w3.org/2000/svg" p-id="1002" xmlns:xlink="http://www.w3.org/1999/xlink" width="200" height="200"><defs><style type="text/css"></style></defs><path d="M983.84 529.992l-455.7-455.7c-8.9-8.9-23.3-8.9-32.2 0l-341.5 341.5c-0.2 0.2-0.4 0.4-0.6 0.6L40.14 529.992c-8.9 8.9-8.9 23.3 0 32.2 8.9 8.9 23.3 8.9 32.2 0l75-75 0 377.9c0 50.3 40.9 91.1 91.1 91.1l159.5 0c12.6 0 22.8-10.2 22.8-22.8l0-205.1 205.1 0c12.6 0 22.8-10.2 22.8-22.8s-10.2-22.8-22.8-22.8l-227.9 0c-12.6 0-22.8 10.2-22.8 22.8l0 205.1-136.7 0c-25.1 0-45.6-20.4-45.6-45.6l0-423.5 319-319L951.64 562.192c4.5 4.5 10.3 6.7 16.1 6.7 5.8 0 11.7-2.2 16.1-6.7C992.74 553.292 992.74 538.892 983.84 529.992zM853.84 591.692c-12.6 0-22.8 10.2-22.8 22.8l0 250.7c0 25.1-20.4 45.6-45.6 45.6l-159.5 0c-12.6 0-22.8 10.2-22.8 22.8 0 12.6 10.2 22.8 22.8 22.8l159.5 0c50.3 0 91.1-40.9 91.1-91.1l0-250.7C876.64 601.892 866.44 591.692 853.84 591.692z" p-id="1003" fill="#09bb07"></path></svg>
