<?xml version="1.0" standalone="no"?><!DOCTYPE svg PUBLIC "-//W3C//DTD SVG 1.1//EN" "http://www.w3.org/Graphics/SVG/1.1/DTD/svg11.dtd"><svg t="1503843585342" class="icon" style="" viewBox="0 0 1024 1024" version="1.1" xmlns="http://www.w3.org/2000/svg" p-id="10682" xmlns:xlink="http://www.w3.org/1999/xlink" width="200" height="200"><defs><style type="text/css"></style></defs><path d="M880.454188 787.120988" p-id="10683" fill="#d0011b"></path><path d="M511.103072 463.903585c0.103354-0.228197 0.211824-0.454348 0.327458-0.679475-0.196475 0-0.391926-0.004093-0.587378-0.01228C510.934227 463.441051 511.022231 463.670272 511.103072 463.903585L511.103072 463.903585zM511.103072 463.903585" p-id="10684" fill="#d0011b"></path><path d="M864.230692 403.384233l-143.866618 0c0.404206-2.969635 0.63138-5.995551 0.63138-9.077749L720.995453 127.508046c0-36.931121-29.939893-66.871013-66.875107-66.871013L371.589598 60.637032c-36.931121 0-66.871013 29.939893-66.871013 66.871013l0 266.798439c0 3.082198 0.224104 6.108115 0.627287 9.077749L161.483346 403.384233c-29.687136 0-45.964868 34.565237-27.057239 57.449433l351.373673 425.351548c14.034645 16.993023 40.076764 16.993023 54.114478 0l351.373673-425.351548C910.195559 437.950494 893.914758 403.384233 864.230692 403.384233L864.230692 403.384233zM641.170406 336.082408l-93.093235 132.813888 64.568575 0c9.233292 0 16.720823 7.483438 16.720823 16.71673l0 25.622564c0 9.233292-7.486508 16.71673-16.720823 16.71673l-69.584821 0 0 68.242244c0 9.233292-7.486508 16.71673-16.720823 16.71673l-31.014364 0c-9.234315 0-16.71673-7.483438-16.71673-16.71673l0-68.242244-69.588915 0c-9.234315 0-16.71673-7.483438-16.71673-16.71673l0-25.622564c0-9.233292 7.483438-16.71673 16.71673-16.71673l65.73105 0-90.350774-133.013433c-3.477194-5.120624-3.841491-11.748578-0.943488-17.22122 2.898003-5.467525 8.582469-8.893554 14.774495-8.893554l35.059494 0c5.608741 0 10.844999 2.814092 13.942547 7.490601l64.49285 97.398284 62.5895-97.218182c3.078105-4.780887 8.374738-7.670703 14.058181-7.670703l39.105646 0c6.236028 0 11.952216 3.470031 14.829753 9.006118C645.187907 324.302107 644.747885 330.978157 641.170406 336.082408L641.170406 336.082408zM641.170406 336.082408" p-id="10685" fill="#d0011b"></path></svg>