<?xml version="1.0" standalone="no"?><!DOCTYPE svg PUBLIC "-//W3C//DTD SVG 1.1//EN" "http://www.w3.org/Graphics/SVG/1.1/DTD/svg11.dtd"><svg t="1504538771792" class="icon" style="" viewBox="0 0 1475 1024" version="1.1" xmlns="http://www.w3.org/2000/svg" p-id="6970" xmlns:xlink="http://www.w3.org/1999/xlink" width="288.0859375" height="200"><defs><style type="text/css"></style></defs><path d="M1392.631114 1024l-1310.697381 0C36.675292 1024 0 987.344904 0 942.086463L0 81.913537C0 36.675292 36.675292 0 81.933733 0l1310.697381 0c45.238246 0 81.933733 36.675292 81.933733 81.913537l0 860.172925C1474.564847 987.344904 1437.869359 1024 1392.631114 1024zM1239.043231 184.325655c-39.563269 0-71.674345 32.09088-71.674345 71.674345 0 13.813821 4.099716 26.597665 10.865257 37.543705L877.763332 572.001262c-12.783843-11.713474-29.627012-19.024298-48.328179-19.024298-16.499842 0-31.525402 5.816346-43.64279 15.187125l-117.962764-116.023982c4.947933-9.734301 7.997476-20.619754 7.997476-32.292837 0-39.583465-32.111076-71.674345-71.674345-71.674345-39.60366 0-71.694541 32.09088-71.694541 71.674345 0 6.462607 1.130956 12.622278 2.746608 18.579994L307.397917 662.639318c-9.390975-4.523825-19.791732-7.270432-30.919533-7.270432-39.563269 0-71.674345 32.09088-71.674345 71.674345 0 39.583465 32.111076 71.674345 71.674345 71.674345 39.60366 0 71.694541-32.09088 71.694541-71.674345 0-12.682865-3.574629-24.416535-9.370779-34.756706l220.496056-216.982013c12.299148 9.996844 27.789208 16.217103 44.89492 16.217103 12.117387 0 23.366362-3.29189 33.383402-8.623541l123.476175 121.456611c-1.938782 6.482802-3.271695 13.187756-3.271695 20.296624 0 39.583465 32.09088 71.674345 71.674345 71.674345 39.60366 0 71.674345-32.09088 71.674345-71.674345 0-4.806564-0.504891-9.512149-1.413695-14.056169l311.416851-288.575576c8.583149 3.635216 18.034711 5.654781 27.930577 5.654781 39.60366 0 71.694541-32.09088 71.694541-71.674345C1310.717577 216.416535 1278.626696 184.325655 1239.043231 184.325655z" p-id="6971" fill="#09bb07"></path></svg>