<?xml version="1.0" standalone="no"?><!DOCTYPE svg PUBLIC "-//W3C//DTD SVG 1.1//EN" "http://www.w3.org/Graphics/SVG/1.1/DTD/svg11.dtd"><svg t="1502613102382" class="icon" style="" viewBox="0 0 1024 1024" version="1.1" xmlns="http://www.w3.org/2000/svg" p-id="2389" xmlns:xlink="http://www.w3.org/1999/xlink" width="200" height="200"><defs><style type="text/css"></style></defs><path d="M794.044466 341.493651c0-153.371086-126.238178-277.700743-282.067491-277.700743-155.741305 0-282.023487 124.329656-282.023487 277.700743 0 50.6424 14.007589 97.958032 38.03785 138.839115l-0.305981 0 239.827774 477.118562c0.831982 1.641383 2.494923 2.75781 4.463845 2.75781 1.926965 0 3.633909-1.116427 4.464868-2.75781L756.400605 480.332766l-0.349985 0C780.125908 439.451684 794.044466 392.135028 794.044466 341.493651M512.020979 480.311277c-77.870652 0-141.033746-62.176085-141.033746-138.861628 0-76.641541 63.163093-138.839115 141.033746-138.839115 77.95866 0 141.033746 62.197574 141.033746 138.839115C653.055747 418.135192 589.979639 480.311277 512.020979 480.311277" p-id="2390" fill="#ef461b"></path></svg>