<?xml version="1.0" standalone="no"?><!DOCTYPE svg PUBLIC "-//W3C//DTD SVG 1.1//EN" "http://www.w3.org/Graphics/SVG/1.1/DTD/svg11.dtd"><svg t="1503239467371" class="icon" style="" viewBox="0 0 1024 1024" version="1.1" xmlns="http://www.w3.org/2000/svg" p-id="6183" xmlns:xlink="http://www.w3.org/1999/xlink" width="200" height="200"><defs><style type="text/css"></style></defs><path d="M509.62432 50.688c-183.68512 0-336.62976 168.2432-288.68608 358.1952C275.1488 623.75936 511.3856 863.6416 511.3856 863.6416s232.09984-238.7968 287.37536-453.65248C847.60576 220.2624 693.28896 50.688 509.62432 50.688zM760.13568 399.11424c-47.45216 188.86656-248.95488 405.7088-248.95488 405.7088S306.15552 585.60512 259.60448 396.73856c-41.1648-166.97344 92.34432-306.4832 250.0608-306.4832C667.36128 90.25536 802.07872 232.3456 760.13568 399.11424z" p-id="6184" fill="#d0011b"></path><path d="M509.76768 201.70752c-91.09504 0-164.94592 73.8304-164.94592 164.94592s73.85088 164.94592 164.94592 164.94592 164.94592-73.8304 164.94592-164.94592S600.86272 201.70752 509.76768 201.70752zM509.76768 492.46208c-69.48864 0-125.80864-56.32-125.80864-125.80864s56.32-125.80864 125.80864-125.80864c69.46816 0 125.80864 56.32 125.80864 125.80864S579.23584 492.46208 509.76768 492.46208z" p-id="6185" fill="#d0011b"></path><path d="M647.80288 770.1504c69.16096 13.84448 114.85184 37.72416 114.85184 64.88064 0 42.76224-113.21344 77.4144-252.90752 77.4144-139.65312 0-252.88704-34.65216-252.88704-77.4144 0-26.91072 44.91264-50.64704 113.07008-64.512l-8.51968-36.1472c-86.38464 20.29568-144.32256 57.77408-144.32256 100.6592 0 64.512 131.13344 116.75648 292.864 116.75648s292.864-52.24448 292.864-116.75648c0-42.92608-58.08128-80.44544-144.60928-100.72064L647.80288 770.1504z" p-id="6186" fill="#d0011b"></path></svg>