<?xml version="1.0" standalone="no"?><!DOCTYPE svg PUBLIC "-//W3C//DTD SVG 1.1//EN" "http://www.w3.org/Graphics/SVG/1.1/DTD/svg11.dtd"><svg t="1504718781682" class="icon" style="" viewBox="0 0 1024 1024" version="1.1" xmlns="http://www.w3.org/2000/svg" p-id="8146" xmlns:xlink="http://www.w3.org/1999/xlink" width="200" height="200"><defs><style type="text/css"></style></defs><path d="M354.29888 417.47968l46.4896-34.58048 46.48448 34.58048-18.60096-56.57088 40.27904-31.44704h-49.5872l-18.57536-50.2784-18.60608 50.2784h-49.57696l40.28928 31.44704zM179.88608 617.60512l35.23584-26.21952 35.23072 26.21952-14.09536-42.88512 30.52544-23.8336h-37.56544l-14.09536-38.11328-14.10048 38.11328h-37.58592l30.54592 23.8336z" fill="#ffffff" p-id="8147"></path><path d="M518.41024 61.44c62.44864 77.7984 99.97824 177.02912 99.97824 285.27616 0 249.43104-198.9376 451.63008-444.30848 451.63008-13.93152 0-46.96576-0.8448-60.57472-2.11456C194.97472 897.69984 338.1248 962.56 477.02016 962.56c245.36576 0 444.30336-202.15296 444.30336-451.6352-0.00512-235.22304-176.9728-428.20608-402.91328-449.4848z m-41.39008 864.57856c-98.25792 0-197.92384-34.6624-272.80896-92.09856 250.94656-15.83104 450.32448-228.30592 450.32448-487.20384a495.26272 495.26272 0 0 0-58.32704-232.8832c169.35936 51.75296 288.96256 210.12992 288.96256 397.09184 0.00512 228.8896-183.0912 415.09376-408.15104 415.09376z" fill="#ffffff" p-id="8148"></path></svg>