<?xml version="1.0" standalone="no"?><!DOCTYPE svg PUBLIC "-//W3C//DTD SVG 1.1//EN" "http://www.w3.org/Graphics/SVG/1.1/DTD/svg11.dtd"><svg t="1503843833232" class="icon" style="" viewBox="0 0 1024 1024" version="1.1" xmlns="http://www.w3.org/2000/svg" p-id="12880" xmlns:xlink="http://www.w3.org/1999/xlink" width="200" height="200"><defs><style type="text/css"></style></defs><path d="M511.962074 227.555556C553.889185 227.555556 587.851852 193.592889 587.851852 151.722667 587.851852 109.814519 553.889185 75.851852 511.962074 75.851852 470.129778 75.851852 436.148148 109.814519 436.148148 151.722667 436.148148 193.592889 470.129778 227.555556 511.962074 227.555556zM511.962074 436.148148C470.129778 436.148148 436.148148 470.110815 436.148148 512s33.98163 75.851852 75.832889 75.851852C553.889185 587.851852 587.851852 553.889185 587.851852 512S553.889185 436.148148 511.962074 436.148148zM511.962074 796.444444C470.129778 796.444444 436.148148 830.407111 436.148148 872.296296s33.98163 75.851852 75.832889 75.851852C553.889185 948.148148 587.851852 914.185481 587.851852 872.296296S553.889185 796.444444 511.962074 796.444444z" p-id="12881" fill="#09bb07"></path></svg>