<?xml version="1.0" standalone="no"?><!DOCTYPE svg PUBLIC "-//W3C//DTD SVG 1.1//EN" "http://www.w3.org/Graphics/SVG/1.1/DTD/svg11.dtd"><svg t="1503130315695" class="icon" style="" viewBox="0 0 1024 1024" version="1.1" xmlns="http://www.w3.org/2000/svg" p-id="2268" xmlns:xlink="http://www.w3.org/1999/xlink" width="200" height="200"><defs><style type="text/css"></style></defs><path d="M512.001 193.019246L92.568638 571.491768h105.875587v423.506345H825.557775V571.491768h105.875587L512.001 193.019246z m128.233499 610.009617c-20.53592 34.883864-128.0995 104.735591-128.0995 104.735591s-107.963578-70.153726-128.363498-104.735591c-10.21196-17.311932-17.459932-36.423858-16.259937-61.535759 2.127992-44.455826 34.669865-81.169683 74.517709-81.169683 40.96984 0 69.973727 32.627873 69.973727 32.627872s30.75988-32.627873 69.971727-32.627872c39.851844 0 72.387717 36.713857 74.517709 81.169683 1.201995 25.111902-6.021976 44.145828-16.257937 61.535759z" fill="#FECC85" p-id="2269"></path><path d="M311.673783 373.78454v-72.429717H191.542252v180.827293z" fill="#FECC85" p-id="2270"></path><path d="M581.974727 660.321421c-39.209847 0-69.971727 32.627873-69.971727 32.627872s-29.003887-32.627873-69.973727-32.627872c-39.847844 0-72.387717 36.713857-74.517709 81.169683-1.199995 25.111902 6.045976 44.221827 16.259937 61.535759 20.39992 34.585865 128.363499 104.735591 128.363498 104.735591s107.56358-69.851727 128.0995-104.735591c10.23596-17.389932 17.459932-36.423858 16.259937-61.535759-2.131992-44.455826-34.667865-81.169683-74.519709-81.169683" fill="#DE5E88" p-id="2271"></path><path d="M950.863286 549.963852L531.430924 171.49133a28.985887 28.985887 0 0 0-38.851848 0l-151.907407 137.071465v-7.207972c0-16.011937-12.981949-28.997887-28.997886-28.997887H191.542252c-16.015937 0-28.997887 12.985949-28.997887 28.997887v167.937344L73.140714 549.965852a28.995887 28.995887 0 0 0 19.425924 50.525802h76.8777v394.510459c0 16.011937 12.981949 28.997887 28.997887 28.997887h627.11355c16.011937 0 28.997887-12.985949 28.997887-28.997887V600.487654h76.8817a28.999887 28.999887 0 0 0 19.427924-50.523802zM220.540139 330.35271h62.133757v30.53788L220.540139 416.958371v-86.605661z m605.017636 212.141171c-16.011937 0-28.997887 12.985949-28.997887 28.997887v394.510459h-569.117776v-365.618572h408.194405c16.011937 0 28.997887-12.985949 28.997887-28.997887s-12.985949-28.997887-28.997887-28.997887H196.860231c-0.701997 0-1.385995 0.056-2.073992 0.104h-26.799895L511.999 232.075093l344.012656 310.416788H825.557775z" fill="" p-id="2272"></path><path d="M698.572271 582.489725c0.723997 1.741993 1.623994 3.423987 2.66799 4.98998a27.799891 27.799891 0 0 0 3.595986 4.407983 27.709892 27.709892 0 0 0 4.407983 3.595986c1.565994 1.041996 3.247987 1.941992 5.01598 2.667989 1.739993 0.723997 3.563986 1.303995 5.421979 1.681994 1.855993 0.377999 3.769985 0.547998 5.651978 0.547998a29.199886 29.199886 0 0 0 20.50192-8.495967 27.709892 27.709892 0 0 0 3.595986-4.407983c1.043996-1.565994 1.941992-3.247987 2.667989-4.98998 0.723997-1.765993 1.303995-3.595986 1.681994-5.451979 0.375999-1.855993 0.547998-3.769985 0.547997-5.653978 0-1.881993-0.173999-3.797985-0.547997-5.651978a30.369881 30.369881 0 0 0-1.651994-5.453979 29.351885 29.351885 0 0 0-2.66799-4.98798 29.603884 29.603884 0 0 0-3.623985-4.407983c-6.727974-6.727974-16.759935-9.833962-26.155898-7.915969-1.857993 0.347999-3.685986 0.927996-5.421979 1.651994a28.579888 28.579888 0 0 0-5.01598 2.667989c-1.593994 1.043996-3.073988 2.261991-4.407983 3.595986s-2.55199 2.811989-3.595986 4.407983a29.493885 29.493885 0 0 0-2.66799 4.98798 30.207882 30.207882 0 0 0-1.651993 5.453979c-0.375999 1.855993-0.579998 3.769985-0.579998 5.651978 0 1.883993 0.203999 3.801985 0.579998 5.653978 0.373999 1.851993 0.927996 3.687986 1.651993 5.453979zM581.972727 631.325534c-28.903887 0-53.343792 12.383952-69.663728 23.725907-16.113937-11.413955-40.417842-23.725907-70.277726-23.725907a94.60563 94.60563 0 0 0-39.003847 8.417967c-36.167859 16.295936-62.283757 54.611787-64.475748 100.361608-1.719993 35.92786 10.731958 61.52776 20.24592 77.655697 20.58192 34.891864 101.231605 90.301647 130.297491 109.565572a1191.895344 1191.895344 0 0 0 7.239972 4.755981 28.979887 28.979887 0 0 0 15.799938 4.679982c5.495979 0 10.993957-1.559994 15.795939-4.677982 18.915926-12.283952 114.451553-75.539705 137.297463-114.349553 9.505963-16.151937 21.945914-41.773837 20.231921-77.629697-2.925989-61.001762-48.379811-108.779575-103.487595-108.779575zM512.127 872.95659a1117.771634 1117.771634 0 0 1-12.81195-8.809966c-41.329839-28.855887-82.085679-61.46976-90.571647-75.851703-9.363963-15.873938-13.031949-29.453885-12.267952-45.413823 1.415994-29.533885 21.849915-53.561791 45.551822-53.561791 26.995895 0 48.231812 22.827911 48.301812 22.895911a28.991887 28.991887 0 0 0 21.673915 9.729962c0.211999 0 0.417998-0.028 0.629998-0.032 7.76797-0.086 15.133941-3.409987 20.47192-9.073965 0.219999-0.233999 23.321909-23.523908 48.869809-23.523908 23.705907 0 44.139828 24.027906 45.555822 53.557791 0.096 2.017992 0.124 3.987984 0.083999 5.923977-0.006 0.329999-0.046 0.643997-0.057999 0.971996a68.965731 68.965731 0 0 1-2.899989 17.685931c-2.011992 6.709974-5.05998 13.471947-9.409963 20.857919-7.451971 12.659951-36.243858 36.457858-67.099738 59.183768a1130.793583 1130.793583 0 0 1-12.135953 8.811966 1156.909481 1156.909481 0 0 1-23.883906 16.647935z" fill="" p-id="2273"></path><path d="M302.467818 28.997887c-28.497889 0-50.855801 23.717907-50.855801 23.717907s-21.083918-23.717907-50.861801-23.717907c-28.961887 0-52.613794 26.683896-54.161789 58.995769-0.871997 18.253929 4.393983 32.143874 11.815954 44.725826 14.829942 25.137902 93.299636 76.127703 93.299636 76.127702s78.179695-50.771802 93.105636-76.127702c7.439971-12.639951 12.69195-26.471897 11.815954-44.725826-1.543994-32.311874-25.191902-58.99577-54.157789-58.995769" fill="#DE5E88" p-id="2274"></path><path d="M251.704017 237.841071a28.979887 28.979887 0 0 1-15.799939-4.679982c-19.749923-12.83395-85.505666-56.939778-102.475599-85.707665-7.431971-12.599951-17.157933-32.615873-15.805938-60.847762C119.950531 38.041851 156.462389 0 200.750216 0c21.017918 0 38.535849 7.66397 51.1178 15.687939C264.547967 7.70797 282.079898 0 302.467818 0c44.285827 0 80.801684 38.041851 83.127676 86.603662 1.347995 28.17789-8.365967 48.205812-15.791939 60.825762-17.067933 28.991887-82.619677 72.951715-102.3056 85.733665a28.979887 28.979887 0 0 1-15.793938 4.677982z m-50.953801-179.845298c-12.84395 0-24.381905 14.371944-25.195902 31.383878-0.483998 10.075961 1.785993 18.363928 7.82997 28.605888 5.787977 9.811962 37.349854 34.683865 68.323733 55.971781 30.83988-21.205917 62.283757-46.04182 68.117734-55.947781 6.047976-10.28196 8.321967-18.575927 7.839969-28.629888-0.817997-17.011934-12.355952-31.383877-25.199902-31.383878-13.137949 0-27.025894 11.709954-29.757883 14.609943-5.653978 5.995977-13.329948 9.545963-21.629916 9.331964-8.197968-0.207999-15.719939-3.645986-21.057918-9.859962-3.819985-4.043984-16.133937-14.081945-29.269885-14.081945z" fill="" p-id="2275"></path></svg>