<?xml version="1.0" standalone="no"?><!DOCTYPE svg PUBLIC "-//W3C//DTD SVG 1.1//EN" "http://www.w3.org/Graphics/SVG/1.1/DTD/svg11.dtd"><svg t="1504799467737" class="icon" style="" viewBox="0 0 1024 1024" version="1.1" xmlns="http://www.w3.org/2000/svg" p-id="5506" xmlns:xlink="http://www.w3.org/1999/xlink" width="200" height="200"><defs><style type="text/css"></style></defs><path d="M230.5 313.211h217.2c8.6 0 15.7-7 15.7-15.7v-4.8c0-8.6-7-15.7-15.7-15.7h-217.2c-8.6 0-15.7 7-15.7 15.7v4.8c0 8.7 7.1 15.7 15.7 15.7zM646.5 516.611h-416c-8.6 0-15.7 7-15.7 15.7v4.8c0 8.6 7 15.7 15.7 15.7h416c8.6 0 15.7-7 15.7-15.7v-4.8c0-8.7-7.1-15.7-15.7-15.7zM646.5 658.911h-416c-8.6 0-15.7 7-15.7 15.7v4.8c0 8.6 7 15.7 15.7 15.7h416c8.6 0 15.7-7 15.7-15.7v-4.8c0-8.6-7.1-15.7-15.7-15.7zM646.5 792.211h-416c-8.6 0-15.7 7-15.7 15.7v4.8c0 8.6 7 15.7 15.7 15.7h416c8.6 0 15.7-7 15.7-15.7v-4.8c0-8.7-7.1-15.7-15.7-15.7z" fill="#ef461b" p-id="5507"></path><path d="M883.6 274.711h-54.1v-108.3c0-49.9-40.6-90.5-90.5-90.5h-596.4c-49.9 0-90.5 40.6-90.5 90.5v763.6c0 49.9 40.6 90.5 90.5 90.5h741c43.6 0 80.2-31 88.7-72.2h1.9v-583.1c-0.1-49.9-40.7-90.5-90.6-90.5zM937.6 708.411v221.7c0 29.8-24.3 54-54 54h-741c-29.8 0-54-24.3-54-54v-763.7c0-29.8 24.3-54 54-54h596.4c29.8 0 54 24.3 54 54v666h36.5v-521.2h54.1c29.8 0 54 24.3 54 54v343.2z" fill="#ef461b" p-id="5508"></path></svg>