<?xml version="1.0" standalone="no"?><!DOCTYPE svg PUBLIC "-//W3C//DTD SVG 1.1//EN" "http://www.w3.org/Graphics/SVG/1.1/DTD/svg11.dtd"><svg t="1503151448779" class="icon" style="" viewBox="0 0 1024 1024" version="1.1" xmlns="http://www.w3.org/2000/svg" p-id="10945" xmlns:xlink="http://www.w3.org/1999/xlink" width="200" height="200"><defs><style type="text/css"></style></defs><path d="M647.36 967.68c0-30.72-23.04-56.32-53.76-56.32H332.48c-30.72 0-56.32 25.6-56.32 56.32C273.6 998.4 299.2 1024 332.48 1024h261.12c28.16-2.56 53.76-25.6 53.76-56.32z m261.12-640L593.6 12.8c-15.36-15.36-40.96-15.36-58.88 0L114.88 422.4c-15.36 15.36-15.36 40.96 0 58.88L255.68 624.64v-2.56l194.56 166.4H486.08c46.08-40.96 117.76-102.4 143.36-122.88l7.68-7.68c-5.12-10.24-17.92-30.72-30.72-56.32l-117.76 117.76c-12.8 12.8-33.28 12.8-46.08 0l-245.76-250.88c-12.8-12.8-12.8-33.28 2.56-46.08L534.72 97.28c12.8-12.8 33.28-12.8 46.08 0l245.76 240.64c12.8 12.8 12.8 33.28-2.56 46.08l-97.28 97.28c5.12 12.8 15.36 35.84 28.16 58.88l153.6-153.6c17.92-17.92 17.92-43.52 0-58.88zM273.6 665.6v194.56s12.8 33.28 66.56 33.28H588.48s17.92 2.56 30.72-10.24c35.84-33.28 143.36-138.24 163.84-156.16 23.04-23.04 10.24-61.44 0-81.92-10.24-20.48-76.8-166.4-76.8-166.4s-15.36-30.72-56.32-12.8c-43.52 17.92-46.08 38.4-40.96 74.24 5.12 35.84 51.2 110.08 51.2 110.08s2.56 20.48-10.24 25.6c-12.8 5.12-153.6 130.56-153.6 130.56h-51.2L273.6 665.6z m-5.12-230.4l194.56-51.2-56.32-56.32 28.16-28.16 66.56 66.56 38.4-38.4-66.56-66.56 28.16-28.16 66.56 66.56 53.76-53.76 33.28 33.28-53.76 53.76 69.12 69.12-30.72 28.16-69.12-69.12-38.4 38.4 69.12 69.12-28.16 28.16-58.88-58.88-51.2 192-38.4-38.4c28.16-94.72 46.08-153.6 53.76-176.64-10.24 5.12-28.16 10.24-61.44 20.48l-115.2 33.28L268.48 435.2z" fill="#4a4a4a" p-id="10946"></path></svg>