<?xml version="1.0" standalone="no"?><!DOCTYPE svg PUBLIC "-//W3C//DTD SVG 1.1//EN" "http://www.w3.org/Graphics/SVG/1.1/DTD/svg11.dtd"><svg t="1504714237873" class="icon" style="" viewBox="0 0 1024 1024" version="1.1" xmlns="http://www.w3.org/2000/svg" p-id="2289" xmlns:xlink="http://www.w3.org/1999/xlink" width="200" height="200"><defs><style type="text/css"></style></defs><path d="M106.496 237.568s71.168-151.552 192 0c120.32 151.552 0 196.096 0 196.096s-80.384 75.776-17.92 124.928c62.464 48.64 214.016 182.784 214.016 182.784s59.904 79.872 124.416 22.016c80.384-66.56 111.616-77.824 173.568-31.232 108.544 80.896 142.848 162.816-22.016 227.328-182.784 89.088-508.416-218.624-508.416-218.624s-320.512-307.2-155.648-503.296z m414.72 78.336s-59.904 6.144-49.152-56.32c5.12-28.672 53.76-37.888 98.304-24.064 45.056 13.312 211.968 87.04 218.624 273.92 0 0-12.288 52.736-51.712 41.984C695.296 540.16 706.048 460.8 704 444.928c-2.56-15.36-59.904-135.68-182.784-129.024z m115.712-162.816s-73.728 7.68-59.904-68.608c6.144-34.816 65.536-46.592 120.32-30.208 54.784 16.384 259.072 106.496 267.264 335.36 0 0-17.408 71.68-62.464 52.224-39.424-17.408-41.472-114.176-44.032-133.12-3.072-18.944-70.656-163.84-221.184-155.648z" fill="#13227a" p-id="2290"></path></svg>