<?xml version="1.0" standalone="no"?><!DOCTYPE svg PUBLIC "-//W3C//DTD SVG 1.1//EN" "http://www.w3.org/Graphics/SVG/1.1/DTD/svg11.dtd"><svg t="1503238597412" class="icon" style="" viewBox="0 0 1024 1024" version="1.1" xmlns="http://www.w3.org/2000/svg" p-id="5434" xmlns:xlink="http://www.w3.org/1999/xlink" width="200" height="200"><defs><style type="text/css"></style></defs><path d="M435.793562 64.749415c26.379391 0 48.442155 21.103513 49.401405 47.962529 0 0 1.438876 297.367681 1.438876 300.725058 0 14.868384 8.15363 22.542389 17.746135 22.542389 13.429508 0 28.777518-14.388759 28.777518-43.645902l-1.918501-48.921779c-2.398126-27.338642 20.144262-35.971897 47.482904-38.370024 3.837002-0.479625 7.194379-0.479625 11.031382-0.479625 22.062763 0 38.370023 6.714754 40.288524 30.216393l2.398127 55.156909c3.357377 15.348009 9.112881 20.623888 14.868384 20.623888 9.112881 0 18.225761-12.470258 18.225761-12.470258l4.316627-24.46089c3.837002-20.623888 14.868384-27.818267 32.61452-27.818267 5.275878 0 11.031382 0.479625 16.786886 1.918501 26.859016 4.796253 52.758782 16.786885 47.962529 43.645902l-3.357377 19.185012s-18.705386 54.677283-4.796253 54.677283c1.918501 0 4.316628-0.959251 7.194379-2.877752l13.429508-14.868384c6.235129-10.072131 13.909133-13.909133 22.062764-13.909133 11.031382 0 23.501639 6.714754 36.451522 14.868384 23.022014 14.388759 14.868384 40.288525 0.959251 93.526932l-96.404684 304.082435-1.438876 113.671195H455.937824l-0.479625-118.467448s-55.156909-30.216393-103.119438-117.028571l-164.511476-139.091335c-21.103513-17.746136-23.501639-48.92178-5.755503-70.025293 9.592506-11.511007 23.981265-17.746136 37.890398-17.746135 11.511007 0 22.542389 3.837002 32.134894 11.511007l94.006558 73.862295c7.194379 5.755504 12.949883 8.633255 18.225761 8.633255 20.144262 0 25.899766-45.564403 25.899766-161.154098L386.871782 115.11007c-0.959251-27.338642 20.144262-50.360656 47.482904-51.319906 0.479625 0.959251 0.959251 0.959251 1.438876 0.959251m0-64.749415H431.476934c-30.696019 0.959251-58.993911 13.909133-79.617799 36.451522-20.623888 22.062763-31.175644 50.840281-30.696018 81.056675l3.837002 314.154566c0 21.103513 0 38.370023-0.479625 53.238408L292.385599 459.48103c-20.623888-16.786885-46.044028-26.379391-72.903044-26.379391-33.57377 0-65.708665 14.868384-87.291804 40.76815-40.76815 47.962529-34.533021 120.385948 13.429508 161.154099l155.878221 131.896955c31.175644 53.238407 64.749415 87.771429 89.210304 107.915691l0.479625 84.893677 0.479626 64.269789H806.543913l0.479625-64.269789 0.959251-104.078689 93.526932-294.969555 0.479625-1.918501 0.479625-1.918501 2.398127-9.592506c7.194379-26.859016 12.470258-48.442155 12.949883-69.066042 1.438876-49.88103-27.338642-75.301171-44.605152-86.332553-12.470258-8.15363-26.379391-15.348009-41.247776-20.144262-4.796253-37.890398-32.61452-76.740047-101.200936-88.730679-10.072131-1.918501-19.664637-2.877752-28.297893-2.877752-8.15363 0-16.30726 0.959251-23.981264 2.398126-15.827635-24.46089-44.125527-43.166276-89.210305-43.166276-5.275878 0-10.551756 0.479625-16.30726 0.479625-8.15363 0.479625-15.827635 1.918501-23.022014 3.357377 0-60.912412-0.479625-117.987822-0.479625-131.41733v-1.918501C548.02588 48.442155 497.665224 0 435.793562 0z" fill="#707070" p-id="5435"></path></svg>