<?xml version="1.0" standalone="no"?><!DOCTYPE svg PUBLIC "-//W3C//DTD SVG 1.1//EN" "http://www.w3.org/Graphics/SVG/1.1/DTD/svg11.dtd"><svg t="1504543986521" class="icon" style="" viewBox="0 0 1024 1024" version="1.1" xmlns="http://www.w3.org/2000/svg" p-id="15190" xmlns:xlink="http://www.w3.org/1999/xlink" width="200" height="200"><defs><style type="text/css"></style></defs><path d="M43.588 527.615c0 62.33 50.525 112.884 112.884 112.884s112.884-50.525 112.884-112.884c0-62.33-50.525-112.884-112.884-112.884-62.33 0-112.884 50.525-112.884 112.884z" p-id="15191" fill="#4a4a4a"></path><path d="M412.295 527.615c0 62.33 50.525 112.884 112.884 112.884 62.33 0 112.884-50.525 112.884-112.884 0-62.33-50.525-112.884-112.884-112.884-62.33 0-112.884 50.525-112.884 112.884z" p-id="15192" fill="#4a4a4a"></path><path d="M781.025 527.615c0 0 0 0 0 0 0 62.33 50.525 112.884 112.884 112.884 62.33 0 112.884-50.525 112.884-112.884 0 0 0 0 0 0 0 0 0 0 0 0 0-62.33-50.525-112.884-112.884-112.884-62.33 0-112.884 50.525-112.884 112.884s0 0 0 0z" p-id="15193" fill="#4a4a4a"></path></svg>