<?xml version="1.0" standalone="no"?><!DOCTYPE svg PUBLIC "-//W3C//DTD SVG 1.1//EN" "http://www.w3.org/Graphics/SVG/1.1/DTD/svg11.dtd"><svg t="1503149038470" class="icon" style="" viewBox="0 0 1024 1024" version="1.1" xmlns="http://www.w3.org/2000/svg" p-id="8638" xmlns:xlink="http://www.w3.org/1999/xlink" width="200" height="200"><defs><style type="text/css"></style></defs><path d="M1023.831 511.926c0 282.716-229.201 511.918-511.915 511.918C229.201 1023.845 0 794.643 0 511.926 0 229.19 229.201 0 511.916 0c282.714 0 511.915 229.19 511.915 511.926z" fill="#FFC600" p-id="8639"></path><path d="M511.916 912.559c-54.074 0-106.543-10.596-155.949-31.493-47.709-20.18-90.552-49.063-127.338-85.851-36.786-36.786-65.67-79.629-85.85-127.339-20.897-49.406-31.493-101.875-31.493-155.95 0-54.077 10.596-106.547 31.493-155.955 20.18-47.71 49.063-90.554 85.85-127.341 36.786-36.787 79.629-65.671 127.338-85.851 49.406-20.897 101.875-31.494 155.949-31.494s106.542 10.596 155.948 31.494c47.709 20.18 90.552 49.064 127.338 85.851 36.786 36.787 65.671 79.631 85.85 127.341 20.897 49.407 31.493 101.878 31.493 155.955 0 54.075-10.596 106.543-31.493 155.95-20.18 47.71-49.063 90.553-85.85 127.339-36.786 36.787-79.629 65.671-127.338 85.851-49.406 20.897-101.874 31.493-155.948 31.493z m0-756.759C315.553 155.8 155.8 315.558 155.8 511.926c0 196.364 159.753 356.119 356.116 356.119 196.362 0 356.115-159.755 356.115-356.119 0-196.368-159.753-356.126-356.115-356.126z" fill="#F59D17" p-id="8640"></path><path d="M655.895 355.041l-31.479-31.476-114.089 114.1-110.915-110.896-31.474 31.48 110.01 109.989H372.504v44.515h117.155v43.819H372.504v44.514h117.155v116.243h44.514V601.086h117.155v-44.514H534.173v-43.819h117.155v-44.515H542.706z" fill="#F59D17" p-id="8641"></path></svg>