<?xml version="1.0" standalone="no"?><!DOCTYPE svg PUBLIC "-//W3C//DTD SVG 1.1//EN" "http://www.w3.org/Graphics/SVG/1.1/DTD/svg11.dtd"><svg t="1502723455442" class="icon" style="" viewBox="0 0 1024 1024" version="1.1" xmlns="http://www.w3.org/2000/svg" p-id="1878" xmlns:xlink="http://www.w3.org/1999/xlink" width="200" height="200"><defs><style type="text/css"></style></defs><path d="M645.129066 545.17047c-55.132668 0-99.958596 44.825928-99.958596 99.958596 0 55.136761 44.825928 99.963713 99.958596 99.963713 55.136761 0 99.963713-44.825928 99.963713-99.963713C745.092779 589.996398 700.266851 545.17047 645.129066 545.17047L645.129066 545.17047zM711.919239 662.164045l-83.371826 0 0-16.585747 0-17.030885 0-50.203402 33.167401 0 0 50.203402 50.203402 0L711.918215 662.164045 711.919239 662.164045zM711.919239 662.164045" p-id="1879" fill="#f4ea2a"></path><path d="M645.129066 345.252255l-33.169447 0 0 50.203402-33.172517 0 0-50.203402L378.86991 345.252255l0 50.203402-33.172517 0 0-50.203402-50.203402 0c-4.480035 0-8.515954 1.791809-11.653411 4.929266-3.137457 3.13848-4.929266 7.173376-4.929266 11.653411l0 11.208273 0 22.412452 0 50.203402 383.252731 0L662.164045 396.350027l0-22.413476L662.164045 362.284163c0-4.480035-1.794879-8.514931-4.932336-11.652388C654.093229 347.044064 649.614218 345.252255 645.129066 345.252255L645.129066 345.252255zM645.129066 345.252255" p-id="1880" fill="#f4ea2a"></path><path d="M512.002047 63.74993c-247.437485 0-448.252117 200.815655-448.252117 448.252117 0 247.431346 200.815655 448.247001 448.252117 448.247001 247.431346 0 448.247001-200.815655 448.247001-448.247001C960.25007 264.565585 759.434415 63.74993 512.002047 63.74993L512.002047 63.74993zM328.666508 562.206472l0-33.17354 116.545366 0 0 33.17354L328.666508 562.206472 328.666508 562.206472zM445.211874 611.960643l0 33.169447L328.666508 645.13009 328.666508 611.960643 445.211874 611.960643 445.211874 611.960643zM278.911314 478.82953 278.911314 678.751838c0 4.479011 1.791809 8.514931 4.929266 11.652388 3.137457 3.137457 7.173376 4.929266 11.653411 4.929266l191.406354 0c4.929266 12.105712 11.652388 23.310915 19.720134 33.172517L295.493991 728.506009c-13.444197 0-25.995047-5.377474-35.409464-14.789844-9.41237-9.413394-14.794961-21.968337-14.794961-35.413558L245.289566 361.834932c0-13.444197 5.381567-25.995047 14.794961-35.409464 9.413394-9.41237 21.965268-14.794961 35.409464-14.794961l50.203402 0 0-66.340941 33.172517 0 0 66.790172 199.918215 0 0-66.790172 33.172517 0 0 66.790172 33.169447 0c13.44829 0 26.000164 5.377474 35.412534 14.790868 9.413394 9.41237 14.790868 21.964244 14.790868 35.412534l0 83.375919 0 33.169447 0 8.514931c-9.862625-4.030803-20.169365-6.719028-30.928407-8.514931L278.911314 478.828506 278.911314 478.82953zM645.129066 778.709411c-73.510224 0-133.12702-59.616796-133.12702-133.131113 0-73.510224 59.616796-133.131113 133.12702-133.131113 73.515341 0 133.131113 59.620889 133.131113 133.131113C778.709411 718.644407 718.644407 778.709411 645.129066 778.709411L645.129066 778.709411zM645.129066 778.709411" p-id="1881" fill="#f4ea2a"></path></svg>