<?xml version="1.0" standalone="no"?><!DOCTYPE svg PUBLIC "-//W3C//DTD SVG 1.1//EN" "http://www.w3.org/Graphics/SVG/1.1/DTD/svg11.dtd"><svg t="1503208272113" class="icon" style="" viewBox="0 0 1024 1024" version="1.1" xmlns="http://www.w3.org/2000/svg" p-id="19538" xmlns:xlink="http://www.w3.org/1999/xlink" width="200" height="200"><defs><style type="text/css"></style></defs><path d="M463.446693 803.316196H184.660932c-19.868439 0-36.007668-1.468087-36.007669-1.468088V434.220566H823.430938v-174.333844c0-49.26789-1.898661-89.312495-1.898662-89.312495H667.713948V117.848365h-51.906068v52.725862H304.370253V117.848365H252.4654v52.725862H98.645856S96.745979 210.618831 96.745979 259.886722v594.621568s39.418204 1.537417 87.914953 1.537417h280.546979l-1.761218-52.729511zM226.514191 513.311183h181.668199v52.731944H226.514191v-52.731944z m0 158.180019h181.668199v52.73316H226.514191v-52.73316z m519.058252-79.091834h-51.904852v131.824994H823.430938v-52.73316h-77.858495v-79.091834z m120.846571-43.663129c-39.258868-39.876753-91.323056-61.788595-146.795348-61.788595-55.477157 0-107.624055 21.911841-146.800214 61.788595-39.254002 39.871888-60.826493 92.76925-60.826493 149.122151s21.57249 109.33054 60.826493 149.1258c39.254002 39.871888 91.323056 61.789811 146.800214 61.789811 55.472292 0 107.61919-21.917923 146.795348-61.789811 39.250353-39.879186 60.82406-92.774115 60.824061-149.1258s-21.574923-109.328107-60.824061-149.122151zM719.623666 856.04449c-85.892228 0-155.721854-70.935253-155.721855-158.187316 0-87.248415 69.829626-158.182451 155.721855-158.182452 85.883714 0 155.71334 70.93282 155.71334 158.182452s-69.829626 158.187317-155.71334 158.187316z" p-id="19539" fill="#ffffff"></path></svg>