<?xml version="1.0" standalone="no"?>
<!DOCTYPE svg PUBLIC "-//W3C//DTD SVG 1.1//EN" "http://www.w3.org/Graphics/SVG/1.1/DTD/svg11.dtd">
<svg t="1503147838997" class="icon" style="" viewBox="0 0 1024 1024" version="1.1" xmlns="http://www.w3.org/2000/svg" p-id="7085" xmlns:xlink="http://www.w3.org/1999/xlink" width="200" height="200">
  <defs>
    <style type="text/css"></style>
  </defs>
  <path
    d="M96.000427 199.274667c0-8.853333 7.146667-14.464 21.461333-16.853334a1005.44 1005.44 0 0 1 54.186667-7.146666 657.365333 657.365333 0 0 0 71.530666-12.266667c25.898667-5.802667 50.432-16.853333 73.6-33.216a394.666667 394.666667 0 0 0 45.482667-35.264 12612.266667 12612.266667 0 0 1 40.362667-36.266667 604.8 604.8 0 0 1 38.336-31.68A162.346667 162.346667 0 0 1 481.344427 4.096v380.16H100.096427c-1.365333-27.946667-2.389333-57.066667-3.072-87.381333A4385.6 4385.6 0 0 1 96.000427 199.274667m344.448 802.24a2772.821333 2772.821333 0 0 1-101.184-80.725334 911.146667 911.146667 0 0 1-80.234667-75.626666 560.64 560.64 0 0 1-61.333333-78.186667 514.496 514.496 0 0 1-44.970667-87.381333 616.106667 616.106667 0 0 1-30.656-102.698667c-7.850667-37.12-13.802667-79.210667-17.898667-126.208h377.173334V1018.88a198.421333 198.421333 0 0 1-21.461334-7.146667 105.6 105.6 0 0 1-19.413333-10.218666m105.258667-550.826667h375.104c-3.413333 46.997333-8.682667 88.746667-15.829334 125.184-7.168 36.458667-16.362667 69.845333-27.605333 100.16a432.469333 432.469333 0 0 1-41.898667 84.309333 623.232 623.232 0 0 1-59.285333 77.162667 1156.224 1156.224 0 0 1-79.210667 79.701333 8480.661333 8480.661333 0 0 1-101.184 91.477334A134.506667 134.506667 0 0 1 545.707093 1024V450.688m180.906667-305.578667a153.6 153.6 0 0 0 63.36 26.581334c23.189333 4.096 44.992 6.826667 65.429333 8.170666 20.437333 1.365333 37.653333 2.56 51.626667 3.584 13.952 1.024 20.949333 4.928 20.949333 11.733334 0 70.869333-1.024 133.888-3.072 189.077333H545.728427V0c17.024 4.096 33.066667 11.733333 48.042666 22.997333a405.930667 405.930667 0 0 1 43.434667 37.802667c13.973333 13.973333 28.117333 28.458667 42.410667 43.434667 14.314667 14.997333 29.994667 28.629333 47.018666 40.874666"
    fill="#09bb07"
    p-id="7086"></path>
</svg>
