<?xml version="1.0" standalone="no"?><!DOCTYPE svg PUBLIC "-//W3C//DTD SVG 1.1//EN" "http://www.w3.org/Graphics/SVG/1.1/DTD/svg11.dtd"><svg t="1504718613658" class="icon" style="" viewBox="0 0 1024 1024" version="1.1" xmlns="http://www.w3.org/2000/svg" p-id="5082" xmlns:xlink="http://www.w3.org/1999/xlink" width="200" height="200"><defs><style type="text/css"></style></defs><path d="M0 0v1024h1024V0H0z m985.6 985.6H38.4V38.4h940.8v947.2z m-832-128l51.2-25.6 51.2 25.6-12.8-57.6 44.8-38.4-57.6-6.4-25.6-51.2-25.6 51.2-57.6 6.4 44.8 38.4-12.8 57.6z m204.8-38.4h499.2c12.8 0 19.2-6.4 19.2-19.2 0-12.8-6.4-19.2-19.2-19.2H358.4c-12.8 0-19.2 6.4-19.2 19.2 0 12.8 12.8 19.2 19.2 19.2zM153.6 595.2l51.2-25.6 51.2 25.6-6.4-57.6 44.8-38.4-64-12.8-25.6-57.6-25.6 57.6-57.6 6.4 44.8 38.4-12.8 64z m204.8-44.8h499.2c12.8 0 19.2-6.4 19.2-19.2 0-12.8-6.4-19.2-19.2-19.2H358.4c-6.4 0-19.2 6.4-19.2 19.2 0 12.8 12.8 19.2 19.2 19.2zM153.6 326.4l51.2-25.6 51.2 25.6-6.4-57.6 44.8-38.4-64-12.8-25.6-51.2-25.6 51.2-57.6 6.4 44.8 38.4-12.8 64z m204.8-38.4h499.2c12.8 0 19.2-6.4 19.2-19.2 0-12.8-6.4-19.2-19.2-19.2H358.4c-6.4-6.4-19.2 6.4-19.2 19.2 0 6.4 12.8 19.2 19.2 19.2z" p-id="5083" fill="#ffffff"></path></svg>