<?xml version="1.0" standalone="no"?><!DOCTYPE svg PUBLIC "-//W3C//DTD SVG 1.1//EN" "http://www.w3.org/Graphics/SVG/1.1/DTD/svg11.dtd"><svg t="1504718623896" class="icon" style="" viewBox="0 0 1024 1024" version="1.1" xmlns="http://www.w3.org/2000/svg" p-id="5254" xmlns:xlink="http://www.w3.org/1999/xlink" width="200" height="200"><defs><style type="text/css"></style></defs><path d="M394.073 283.336h236.329v-59.111H394.073v59.111z m354.435 0h59.227c16.026 0 29.381 13.704 29.381 31.24v456.631c0 17.42-13.471 31.24-29.73 31.24H216.972c-16.259 0-29.73-13.82-29.73-31.24V314.575c0-17.536 13.355-31.24 29.73-31.24h60.156v-59.111h-60.156c-49.356 0-88.841 40.53-88.841 90.351v456.631c0 49.821 39.485 90.351 88.725 90.351h590.532c49.24 0 88.725-40.646 88.725-90.351V314.575c0-49.705-39.369-90.351-88.493-90.351h-59.227v59.111h0.115v0.001z m-443.16-91.512c0-16.258 13.123-29.381 29.498-29.381 16.259 0 29.498 13.123 29.498 29.381v124.029c0 16.258-13.123 29.381-29.498 29.381-16.259 0-29.498-13.123-29.498-29.381V191.824z m354.551 0c0-16.258 13.123-29.381 29.498-29.381 16.258 0 29.497 13.123 29.497 29.381v123.913c0 16.258-13.123 29.381-29.497 29.381-16.259 0-29.498-13.123-29.498-29.381V191.824zM305.348 465.896c0-16.259 13.239-29.497 29.73-29.497h354.087c16.375 0 29.73 13.123 29.73 29.497 0 16.259-13.239 29.498-29.73 29.498H335.194c-16.491-0.001-29.846-13.124-29.846-29.498z m0 152.133c0-16.259 13.239-29.498 29.73-29.498h354.087c16.375 0 29.73 13.123 29.73 29.498 0 16.258-13.239 29.497-29.73 29.497H335.194c-16.491 0.116-29.846-13.007-29.846-29.497z" fill="#ffffff" p-id="5255"></path></svg>