<?xml version="1.0" standalone="no"?><!DOCTYPE svg PUBLIC "-//W3C//DTD SVG 1.1//EN" "http://www.w3.org/Graphics/SVG/1.1/DTD/svg11.dtd"><svg t="1504631414315" class="icon" style="" viewBox="0 0 1024 1024" version="1.1" xmlns="http://www.w3.org/2000/svg" p-id="2957" xmlns:xlink="http://www.w3.org/1999/xlink" width="200" height="200"><defs><style type="text/css"></style></defs><path d="M512.78848 65.01888c-245.79584 0-446.91456 201.1136-446.91456 446.91456 0 245.79072 201.1136 446.90944 446.91456 446.90944 245.7856 0 446.90432-201.11872 446.90432-446.90944 0-245.80096-201.11872-446.91456-446.90432-446.91456z m84.45952 188.27776c0-13.5168 9.06752-24.4736 20.2496-24.4736 11.19232 0 20.25984 10.9568 20.25984 24.4736v48.95744c0 13.5168-9.06752 24.47872-20.25984 24.47872-11.18208 0-20.2496-10.96192-20.2496-24.47872v-48.95744z m-128.14848 4.224h87.63904a20.2496 20.2496 0 1 1 0 40.50944H469.09952a20.25472 20.25472 0 1 1 0-40.50944z m-81.00864-4.224c0-13.5168 9.06752-24.4736 20.25472-24.4736s20.25472 10.9568 20.25472 24.4736v48.95744c0 13.5168-9.06752 24.47872-20.25472 24.47872s-20.25472-10.96192-20.25472-24.47872v-48.95744z m391.31136 482.5088c0 32.65536-26.56768 59.22816-59.2384 59.22816H305.41312c-32.6656 0-59.2384-26.5728-59.2384-59.22816V316.75904c0-32.6656 26.5728-59.2384 59.2384-59.2384h42.01984a20.25472 20.25472 0 1 1 0 40.50944h-42.01984a18.75968 18.75968 0 0 0-18.73408 18.72896V387.4816h452.21376V316.75904a18.7648 18.7648 0 0 0-18.73408-18.73408h-42.04032a20.2496 20.2496 0 1 1 0-40.50944h42.04032c32.6656 0 59.2384 26.5728 59.2384 59.2384v419.05152z" fill="#13227a" p-id="2958"></path><path d="M286.67904 735.80544a18.74944 18.74944 0 0 0 18.73408 18.71872h414.7456a18.74432 18.74432 0 0 0 18.72896-18.71872v-307.8144H286.67904v307.8144z m84.33152-229.77536h283.55584a20.25472 20.25472 0 1 1 0 40.50432H371.01056a20.25472 20.25472 0 1 1 0-40.50432z m0 122.78272h283.55584a20.25472 20.25472 0 1 1 0 40.50944H371.01056a20.25472 20.25472 0 1 1 0-40.50944z" fill="#13227a" p-id="2959"></path></svg>