<?xml version="1.0" standalone="no"?>
<!DOCTYPE svg PUBLIC "-//W3C//DTD SVG 1.1//EN" "http://www.w3.org/Graphics/SVG/1.1/DTD/svg11.dtd">
<svg t="1502612193291" class="icon" style="" viewBox="0 0 1024 1024" version="1.1" xmlns="http://www.w3.org/2000/svg" p-id="1495" xmlns:xlink="http://www.w3.org/1999/xlink" width="200" height="200">
  <defs>
    <style type="text/css"></style>
  </defs>
  <path
    d="M1024 518.2976C1024 229.2224 794.7776 0 505.7024 0 229.2224 0 0 229.2224 0 518.2976 0 794.7776 229.2224 1024 505.7024 1024 794.7776 1024 1024 794.7776 1024 518.2976z m-721.3568 43.7248c-19.6096-20.2752-22.0672-54.9888-5.888-77.056l-29.6448 40.2944a49.152 49.152 0 0 1 70.2976-9.1648l64.6144 49.5616c22.4256 17.2032 58.0608 16.5888 79.872-1.536l263.7312-219.7504c21.7088-18.0736 55.4496-16.7424 68.9152-3.4816l-29.6448-29.2352c16.384 16.1792 13.6192 44.9536-6.7072 65.024l-299.2128 294.4512a50.7392 50.7392 0 0 1-71.8848-1.024l-104.448-108.032z"
    fill="#ef461b"
    p-id="1496"></path>
</svg>
