<?xml version="1.0" standalone="no"?><!DOCTYPE svg PUBLIC "-//W3C//DTD SVG 1.1//EN" "http://www.w3.org/Graphics/SVG/1.1/DTD/svg11.dtd"><svg t="1503150569975" class="icon" style="" viewBox="0 0 1024 1024" version="1.1" xmlns="http://www.w3.org/2000/svg" p-id="9347" xmlns:xlink="http://www.w3.org/1999/xlink" width="200" height="200"><defs><style type="text/css"></style></defs><path d="M797.407774 799.550065l-15.378246 0L782.029528 666.717757c0-73.701582-72.420403-99.960643-125.294634-119.142517-17.543561-6.356778-34.112935-12.359492-43.719734-18.539238-10.840906-6.994298-11.398608-15.835663-11.417027-17.252943 0.019443-0.984421 0.576121-9.861602 11.417027-16.84055 9.619078-6.217608 26.221198-12.238742 43.796482-18.618033 52.838416-19.178805 125.217886-45.440935 125.217886-119.077026L782.029528 223.169779l15.378246 0c18.47784 0 33.480532-14.994506 33.480532-33.516348 0-18.495236-15.002692-33.482579-33.480532-33.482579L226.612693 156.170852c-18.502399 0-33.502022 14.987343-33.502022 33.482579 0 18.521842 14.999622 33.516348 33.502022 33.516348l15.356756 0 0 134.075625c0 73.636091 72.380494 99.898221 125.217886 119.077026 17.576307 6.379291 34.17638 12.400425 43.797505 18.59552 10.839883 7.002484 11.397584 15.879666 11.44261 17.921161 0 0.101307-0.524956 9.141194-11.42726 16.180518-9.616008 6.195096-26.191522 12.19781-43.736107 18.554588-52.882418 19.181875-125.294634 45.438888-125.294634 119.142517l0 132.832308-15.356756 0c-18.502399 0-33.502022 15.002692-33.502022 33.517371 0 18.519796 14.999622 33.482579 33.502022 33.482579l570.794058 0c18.47784 0 33.480532-14.962783 33.480532-33.482579C830.887282 814.551734 815.88459 799.550065 797.407774 799.550065zM282.925233 666.717757c0-41.678238 42.599214-60.440557 98.301863-80.619132 19.775392-7.178493 38.436404-13.93743 51.955302-22.662139 30.598902-19.736507 30.29805-49.01432 30.15888-50.595328 0.140193-3.276626 0.441045-32.581046-30.15888-52.338019-13.519921-8.692986-32.221866-15.498996-52.016701-22.677489-55.659671-20.202111-98.241488-38.959314-98.241488-80.5782L282.924209 223.169779l458.147488 0 0 134.075625c0 41.618886-42.580794 60.376089-98.240465 80.5782-19.794835 7.179516-38.496779 13.984503-52.016701 22.703071-30.597879 19.732413-30.296003 49.03581-30.15888 50.633191-0.13917 3.261277-0.440022 32.53909 30.179346 52.29504 13.497409 8.704243 32.160467 15.46318 51.935859 22.641673 55.692417 20.178575 98.30084 38.940894 98.30084 80.619132l0 132.832308L282.925233 799.548018 282.925233 666.717757z" p-id="9348" fill="#666666"></path><path d="M344.348164 693.073009c0 0 0.01535 33.919531 0 33.919531l335.303672 0 0-33.919531L512.001535 631.432113 344.348164 693.073009z" p-id="9349" fill="#666666"></path><path d="M512.001535 459.360106c0-19.955494 0.016373-19.955494 0.016373 0 9.182127-18.438954 23.800056-36.476773 45.542242-50.513464 19.336394-12.443403 41.196261-20.3597 64.335261-28.761044 16.138562-5.836939 49.516764-12.641925 56.55711-24.279986L345.545432 355.805612c7.05672 11.637038 40.435944 18.442024 56.573483 24.279986 23.139 8.401344 44.985564 16.317641 64.320934 28.761044C488.18306 422.883333 502.815315 440.922175 512.001535 459.360106z" p-id="9350" fill="#666666"></path></svg>