<?xml version="1.0" standalone="no"?><!DOCTYPE svg PUBLIC "-//W3C//DTD SVG 1.1//EN" "http://www.w3.org/Graphics/SVG/1.1/DTD/svg11.dtd"><svg t="1504543967850" class="icon" style="" viewBox="0 0 1024 1024" version="1.1" xmlns="http://www.w3.org/2000/svg" p-id="14470" xmlns:xlink="http://www.w3.org/1999/xlink" width="200" height="200"><defs><style type="text/css"></style></defs><path d="M380.272533 612.987396C358.802245 644.582214 330.654695 667.11574 295.699633 680.584287 290.725208 682.974849 284.440614 684.234589 276.979933 684.234589 264.018077 684.234589 252.759057 679.702099 243.333124 670.513728 233.90719 661.828145 229.063015 651.129553 229.063015 638.161958 229.063015 622.805641 243.46529 605.812031 272.396259 587.055885 301.329143 568.29974 315.731418 543.123338 315.731418 511.528516 315.731418 479.931855 301.329143 454.755453 272.396259 435.999308 243.46529 417.243166 229.063015 400.249553 229.063015 384.893239 229.063015 371.927482 233.77694 360.976576 243.333124 351.78636 252.759057 343.100777 264.018077 338.820604 276.979933 338.820604 284.440614 338.820604 290.725208 340.080345 295.699633 342.470906 330.656611 355.436662 358.802245 377.970187 380.272533 410.069641 401.219903 441.286906 411.691672 475.023656 411.691672 511.528516 411.693588 548.033381 401.219903 581.77013 380.272533 612.987396ZM540.385065 714.321036C497.444489 776.630333 441.14939 821.947855 371.371433 850.269927 364.826337 852.662333 358.670078 853.920229 352.649817 853.920229 339.165043 853.920229 327.775772 849.38774 318.217673 840.199365 308.659574 831.012834 303.947564 820.312402 303.947564 807.849438 303.947564 789.093296 313.635915 774.99488 333.142866 765.427109 361.027999 751.581006 380.010116 741.007656 389.960883 733.832287 468.249188 679.201151 507.393341 605.056922 507.393341 511.528516 507.393341 418.000115 468.249188 343.982964 389.960883 289.22659 380.010116 282.051223 361.027999 271.47787 333.142866 257.629928 313.635915 248.064 303.947564 233.838504 303.947564 215.209439 303.947564 202.748317 308.661489 191.920806 318.217673 182.857669 327.775772 173.794532 338.902626 169.138647 351.864482 169.138647 358.409577 169.138647 364.826337 170.396547 371.371433 172.78895 441.14939 201.111021 497.576655 246.426705 540.385065 308.737842 582.279806 370.544345 603.227175 438.268317 603.227175 511.528516 603.227175 584.915797 582.27789 652.512692 540.385065 714.321036ZM699.712262 815.778073C636.349152 907.79626 552.038668 975.645468 446.911066 1019.325698 440.365971 1021.71626 433.949211 1022.976 427.404115 1022.976 414.44226 1022.976 403.18324 1018.443511 393.757307 1009.255136 384.333288 1000.192 379.489114 989.366333 379.489114 976.903365 379.489114 959.659281 389.175548 945.433786 408.682499 934.48288 412.218421 932.595109 417.71768 929.95039 425.178362 926.552402 433.165791 923.657208 438.925552 921.264807 442.329308 919.377036 465.240015 907.416864 485.662552 895.208057 503.730999 882.746937 565.130774 839.066704 612.915526 784.687885 647.34767 719.481553 681.777899 654.275224 698.928845 584.917641 698.928845 511.655598 698.928845 438.268317 681.777899 369.03413 647.34767 303.82964 612.915526 238.625151 565.000524 184.244489 503.730999 140.566101 485.794717 128.103137 465.372181 115.892489 442.329308 103.936 438.795301 102.04823 433.165791 99.403511 425.178362 96.003683 417.71768 93.110331 412.218421 90.717928 408.682499 88.830158 389.175548 77.752173 379.489114 63.653755 379.489114 46.407827 379.489114 33.946705 384.203038 23.119194 393.757307 14.056058 403.315406 4.994763 414.44226 0.337036 427.404115 0.337036 433.949211 0.337036 440.364056 1.594935 446.911066 3.987338 552.168919 47.667568 636.481316 115.516777 699.712262 207.533122 763.077291 300.054101 794.758849 401.514818 794.758849 511.782677 794.758849 622.050532 763.077291 723.257094 699.712262 815.778073Z" p-id="14471" fill="#1296db"></path></svg>