<?xml version="1.0" standalone="no"?><!DOCTYPE svg PUBLIC "-//W3C//DTD SVG 1.1//EN" "http://www.w3.org/Graphics/SVG/1.1/DTD/svg11.dtd"><svg t="1503832545528" class="icon" style="" viewBox="0 0 1024 1024" version="1.1" xmlns="http://www.w3.org/2000/svg" p-id="9283" xmlns:xlink="http://www.w3.org/1999/xlink" width="200" height="200"><defs><style type="text/css"></style></defs><path d="M264.696056 511.240707c11.30344 0 20.466124-9.162684 20.466124-20.466124 0-67.641563 54.638411-122.750695 122.092709-123.526361-34.180474 30.241768-55.771211 74.407664-55.771211 123.527384 0 11.30344 9.162684 20.466124 20.466124 20.466124s20.466124-9.162684 20.466124-20.466124c0-68.376297 55.627948-124.005268 124.004245-124.005268 0.128937 0 0.25378-0.017396 0.382717-0.019443 66.867944-0.207731 121.203456-54.659901 121.203456-121.567753 0-0.00921-0.001023-0.017396-0.001023-0.026606-0.01535-71.894424-58.508555-130.379443-130.405025-130.379443-71.898517 0-130.391722 58.499345-130.391722 130.406049 0 0.00921 0.001023 0.017396 0.001023 0.026606 0.014326 48.468898 38.938847 88.01252 87.176478 89.045035-12.654204 4.218068-24.628934 9.930163-35.718503 16.926508 0.314155-1.424442 0.491187-2.899026 0.491187-4.417613 0-11.30344-9.162684-20.466124-20.466124-20.466124-90.686419 0-164.463726 73.78447-164.463726 164.476005C244.229932 502.078023 253.392616 511.240707 264.696056 511.240707zM534.948153 224.717018c-11.30344 0-20.466124 9.162684-20.466124 20.466124 0 26.557866-21.605064 48.163953-48.160883 48.163953-26.565029 0-48.178279-21.606087-48.178279-48.163953 0-0.005117-0.001023-0.010233-0.001023-0.016373 0.00921-49.328475 40.137139-89.457428 89.459474-89.457428 49.335638 0 89.472777 40.138162 89.472777 89.473801 0 0.004093 0.001023 0.008186 0.001023 0.013303-0.008186 44.459584-36.184107 80.627319-80.652901 80.627319-0.128937 0-0.25378 0.017396-0.382717 0.019443-4.399193 0.010233-8.757454 0.196475-13.069667 0.546446 30.898731-14.000875 52.446489-45.133943 52.446489-81.20651C555.414277 233.879702 546.251593 224.717018 534.948153 224.717018z" p-id="9284" fill="#4a4a4a"></path><path d="M570.321802 392.18517c-54.360072 0.00307-98.583273 44.229341-98.583273 98.590436 0 11.30344 9.162684 20.466124 20.466124 20.466124s20.466124-9.162684 20.466124-20.466124c0-31.792077 25.864064-57.658188 57.656141-57.658188 0.001023 0 0.00307 0 0.004093 0 99.237165-0.017396 179.971931-80.760348 179.971931-179.989327 0-11.30344-9.162684-20.466124-20.466124-20.466124s-20.466124 9.162684-20.466124 20.466124C709.369671 329.791122 646.993019 392.171867 570.321802 392.18517L570.321802 392.18517z" p-id="9285" fill="#4a4a4a"></path><path d="M883.03906 525.438057c-29.948079 0-59.935044 9.400091-89.12997 27.937283-12.793374 8.123005-25.453718 18.023492-37.869492 29.583782 1.444908-12.20702 2.191922-24.573675 2.191922-37.054941 0-11.30344-9.162684-20.466124-20.466124-20.466124L158.792051 525.438057c-11.302417 0-20.466124 9.162684-20.466124 20.466124 0 82.792635 32.242332 160.630421 90.787726 219.173768 19.663852 19.663852 41.513486 36.344766 64.987107 49.848315L100.793102 814.926264c-11.30344 0-20.466124 9.162684-20.466124 20.466124 0 18.49012 12.924357 34.512025 38.413891 47.619554 19.084661 9.81453 45.825698 18.502399 79.478146 25.821085 67.01837 14.576997 155.824975 22.604834 250.061242 22.604834 94.235245 0 183.040826-8.027837 250.058173-22.604834 33.652448-7.318686 60.393485-16.007579 79.478146-25.821085 25.489534-13.108552 38.413891-29.129434 38.413891-47.619554 0-11.30344-9.162684-20.466124-20.466124-20.466124L602.456686 814.926264c23.473621-13.503549 45.323255-30.184463 64.98813-49.849338 12.858866-12.857842 24.447808-26.649963 34.70543-41.21775L883.952872 708.552561c50.063209-0.491187 90.639347-41.371246 90.639347-91.548042C974.592218 566.514591 933.521824 525.438057 883.03906 525.438057zM737.135038 855.857489c-13.775748 4.840238-32.398898 10.039657-57.536414 15.0733-63.010079 12.622482-145.160077 19.573801-231.318366 19.573801-86.159312 0-168.311357-6.951319-231.321436-19.573801-25.136493-5.034666-43.760666-10.233062-57.536414-15.0733L448.198393 855.857489c0.026606 0 0.054235 0.001023 0.081864 0.001023s0.055259-0.001023 0.081864-0.001023L737.135038 855.857489zM448.362122 814.925241l-0.164752 0c-141.420917-0.042979-257.684874-109.761869-268.168646-248.555959l536.499997 0c-2.685155 35.545564-12.322653 69.175499-27.528983 99.553367-0.621147 0.99363-1.222851 1.961678-1.796926 2.894933-3.972475 6.455015-7.66354 12.797467-10.972912 18.850323-1.228991 2.24718-2.231831 4.085038-3.050476 5.690606C625.062544 766.503415 542.265816 814.896588 448.362122 814.925241zM883.03906 667.62543c-0.573051 0-1.146103 0.023536-1.717108 0.071631l-153.074328 12.887518c28.248368-43.331901 85.113493-114.214275 154.791435-114.214275 27.9117 0 50.620911 22.714328 50.620911 50.634214C933.659971 644.917242 910.951783 667.62543 883.03906 667.62543z" p-id="9286" fill="#4a4a4a"></path></svg>