<?xml version="1.0" standalone="no"?><!DOCTYPE svg PUBLIC "-//W3C//DTD SVG 1.1//EN" "http://www.w3.org/Graphics/SVG/1.1/DTD/svg11.dtd"><svg t="1504538451612" class="icon" style="" viewBox="0 0 1024 1024" version="1.1" xmlns="http://www.w3.org/2000/svg" p-id="4270" xmlns:xlink="http://www.w3.org/1999/xlink" width="200" height="200"><defs><style type="text/css"></style></defs><path d="M854.236332 572.500882h-119.195768V352.169312h119.195768c45.149912 0 83.075838 37.925926 83.075837 83.075838v55.985891c-1.805996 45.149912-37.925926 81.269841-83.075837 81.269841z m-106.553792-14.447972h104.747795c37.925926 0 66.821869-30.70194 66.82187-66.821869v-55.985891c0-37.925926-30.70194-66.821869-66.82187-66.82187h-104.747795v189.62963z" fill="#333333" p-id="4271"></path><path d="M783.802469 335.915344v341.333333C783.802469 801.862434 691.696649 902.998236 577.918871 902.998236h-155.315696C308.825397 902.998236 216.719577 801.862434 216.719577 675.442681V335.915344h567.082892z" fill="#C5B098" p-id="4272"></path><path d="M577.918871 910.222222h-155.315696c-117.389771 0-214.91358-104.747795-214.913581-234.779541V328.691358h583.336861v348.557319c0 128.22575-95.717813 232.973545-213.107584 232.973545zM223.943563 343.13933v334.109347c0 121.001764 88.493827 220.33157 198.659612 220.33157H577.918871c110.165785 0 198.659612-99.329806 198.659612-220.33157V343.13933H223.943563zM348.557319 308.825397c-3.611993 0-7.223986-3.611993-7.223986-7.223986 0-19.865961 9.029982-30.70194 16.253969-39.731922 7.223986-9.029982 12.641975-16.253968 12.641975-30.70194 0-14.447972-5.417989-21.671958-12.641975-30.701941-7.223986-9.029982-16.253968-19.865961-16.253969-39.731922s9.029982-30.70194 16.253969-39.731922c7.223986-9.029982 12.641975-16.253968 12.641975-30.70194 0-3.611993 3.611993-7.223986 7.223986-7.223986s7.223986 3.611993 7.223986 7.223986c0 19.865961-9.029982 30.70194-16.253969 39.731922-7.223986 9.029982-12.641975 16.253968-12.641975 30.70194 0 14.447972 5.417989 21.671958 12.641975 30.70194 7.223986 9.029982 16.253968 19.865961 16.253969 39.731923s-9.029982 30.70194-16.253969 39.731922c-7.223986 9.029982-12.641975 16.253968-12.641975 30.70194 0 3.611993-3.611993 7.223986-7.223986 7.223986zM485.813051 308.825397c-3.611993 0-7.223986-3.611993-7.223986-7.223986 0-19.865961 9.029982-30.70194 16.253969-39.731922 7.223986-9.029982 12.641975-16.253968 12.641975-30.70194 0-14.447972-5.417989-21.671958-12.641975-30.701941-7.223986-9.029982-16.253968-19.865961-16.253969-39.731922s9.029982-30.70194 16.253969-39.731922c7.223986-9.029982 12.641975-16.253968 12.641975-30.70194 0-3.611993 3.611993-7.223986 7.223986-7.223986s9.029982 3.611993 9.029982 7.223986c0 19.865961-9.029982 30.70194-16.253968 39.731922-7.223986 9.029982-12.641975 16.253968-12.641975 30.70194 0 14.447972 5.417989 21.671958 12.641975 30.70194 7.223986 9.029982 16.253968 19.865961 16.253968 39.731923s-9.029982 30.70194-16.253968 39.731922c-7.223986 9.029982-12.641975 16.253968-12.641975 30.70194-1.805996 3.611993-5.417989 7.223986-9.029983 7.223986zM624.87478 308.825397c-3.611993 0-7.223986-3.611993-7.223986-7.223986 0-19.865961 9.029982-30.70194 16.253968-39.731922 7.223986-9.029982 12.641975-16.253968 12.641975-30.70194 0-14.447972-5.417989-21.671958-12.641975-30.701941-7.223986-9.029982-16.253968-19.865961-16.253968-39.731922s9.029982-30.70194 16.253968-39.731922c7.223986-9.029982 12.641975-16.253968 12.641975-30.70194 0-3.611993 3.611993-7.223986 7.223986-7.223986s7.223986 3.611993 7.223986 7.223986c0 19.865961-9.029982 30.70194-16.253968 39.731922-7.223986 9.029982-12.641975 16.253968-12.641976 30.70194 0 14.447972 5.417989 21.671958 12.641976 30.70194 7.223986 9.029982 16.253968 19.865961 16.253968 39.731923s-9.029982 30.70194-16.253968 39.731922c-7.223986 9.029982-12.641975 16.253968-12.641976 30.70194 0 3.611993-3.611993 7.223986-7.223985 7.223986z" fill="#333333" p-id="4273"></path><path d="M783.802469 964.402116H216.719577c-3.611993 0-7.223986-3.611993-7.223986-7.223985s3.611993-7.223986 7.223986-7.223986h568.888889c3.611993 0 7.223986 3.611993 7.223985 7.223986-1.805996 3.611993-3.611993 7.223986-9.029982 7.223985z" fill="#333333" p-id="4274"></path><path d="M429.82716 605.008818h-119.195767c-9.029982 0-18.059965-7.223986-18.059964-18.059964v-119.195768c0-10.835979 9.029982-18.059965 18.059964-18.059964h119.195767c10.835979 0 18.059965 7.223986 18.059965 18.059964v119.195768c0 9.029982-7.223986 18.059965-18.059965 18.059964z" fill="#F3C33C" p-id="4275"></path><path d="M433.439153 612.232804h-124.613756c-12.641975 0-21.671958-10.835979-21.671958-21.671957v-124.613757c0-12.641975 10.835979-21.671958 21.671958-21.671958H433.439153c12.641975 0 21.671958 10.835979 21.671958 21.671958v124.613757c0 10.835979-9.029982 21.671958-21.671958 21.671957z m-124.613756-155.315696c-3.611993 0-7.223986 3.611993-7.223986 7.223985v124.613757c0 3.611993 3.611993 7.223986 7.223986 7.223986H433.439153c3.611993 0 7.223986-3.611993 7.223986-7.223986v-124.613757c0-3.611993-3.611993-7.223986-7.223986-7.223985h-124.613756z" fill="#333333" p-id="4276"></path><path d="M370.229277 449.693122v-113.777778" fill="#F3C33C" p-id="4277"></path><path d="M363.005291 335.915344h14.447972v113.777778h-14.447972z" fill="#333333" p-id="4278"></path></svg>