<?xml version="1.0" standalone="no"?><!DOCTYPE svg PUBLIC "-//W3C//DTD SVG 1.1//EN" "http://www.w3.org/Graphics/SVG/1.1/DTD/svg11.dtd"><svg t="1504626154876" class="icon" style="" viewBox="0 0 1024 1024" version="1.1" xmlns="http://www.w3.org/2000/svg" p-id="1609" xmlns:xlink="http://www.w3.org/1999/xlink" width="200" height="200"><defs><style type="text/css"></style></defs><path d="M542.2592 414.208c268.9024-185.361067-89.634133-253.1328 49.032533-397.312-123.460267 20.599467-99.7888 161.348267-74.3936 187.101867C542.2592 229.7344 650.496 266.581333 542.2592 414.208zM412.245333 414.208c220.228267-151.825067-73.403733-205.892267 40.174933-323.976533-101.102933 16.861867-81.7152 132.1472-60.945067 153.2416S500.8896 293.3248 412.245333 414.208zM968.465067 589.8752c-1.792-6.2976-4.266667-12.253867-7.031467-18.0224-0.648533-1.365333-1.297067-2.7136-1.9968-4.0448-2.952533-5.614933-6.1952-11.042133-9.966933-16.093867-0.1536-0.2048-0.341333-0.3584-0.4608-0.5632-3.7376-4.949333-7.936-9.5232-12.407467-13.8752-0.904533-0.887467-1.792-1.774933-2.7648-2.645333-4.795733-4.437333-9.864533-8.6016-15.325867-12.3392-0.1024-0.068267-0.2048-0.119467-0.3072-0.187733-5.495467-3.754667-11.383467-7.031467-17.4592-10.052267-0.802133-0.392533-1.604267-0.8192-2.4064-1.194667-12.817067-6.0416-26.7264-10.410667-41.437867-13.038933-0.529067-0.1024-1.0752-0.221867-1.604267-0.3072-7.5264-1.245867-15.223467-2.082133-23.074133-2.372267-4.3008-24.029867-24.917333-50.056533-49.834667-50.056533l-578.389333 0c-28.023467 0-50.7392 30.8224-50.7392 59.255467l-0.682667 0c0 0-0.017067 7.150933 0.682667 19.5584l0 1.0752c0 0.631467 0.1536 1.211733 0.187733 1.860267 4.3008 69.870933 30.549333 299.076267 190.9248 383.3344l301.038933 0c45.841067-40.840533 80.349867-95.914667 106.717867-134.7584 6.638933 1.518933 13.482667 2.5088 20.4288 3.242667 1.450667 0.1536 2.901333 0.3072 4.352 0.4096 7.082667 0.580267 14.2336 0.887467 21.521067 0.6144l0.170667 0c7.048533-0.273067 14.199467-1.0752 21.384533-2.133333 1.792-0.273067 3.584-0.5632 5.376-0.8704 7.304533-1.314133 14.626133-2.884267 21.947733-5.051733C935.611733 745.403733 989.866667 664.029867 968.465067 589.8752zM228.864 504.302933l84.753067 0c0 0-60.142933 105.437867 65.621333 355.1744C217.941333 773.444267 228.864 504.302933 228.864 504.302933zM832.443733 720.008533c-5.9904 1.774933-11.9808 2.884267-17.92 3.720533-1.570133 0.221867-3.157333 0.426667-4.7104 0.580267-5.649067 0.546133-11.264 0.8192-16.7424 0.5632-1.211733-0.068267-2.389333-0.290133-3.601067-0.3584-2.901333-0.238933-5.6832-0.750933-8.4992-1.194667 37.358933-67.601067 49.220267-131.293867 51.234133-172.475733 35.703467 4.283733 65.604267 25.2416 74.837333 57.2928C920.200533 653.7728 886.801067 703.863467 832.443733 720.008533zM68.727467 932.130133c0 0-10.154667 57.873067 59.1872 57.873067l710.2976 0c55.825067 0 52.411733-57.873067 52.411733-57.873067L68.727467 932.130133z" p-id="1610" fill="#09bb07"></path></svg>