<?xml version="1.0" standalone="no"?>
<!DOCTYPE svg PUBLIC "-//W3C//DTD SVG 1.1//EN" "http://www.w3.org/Graphics/SVG/1.1/DTD/svg11.dtd">
<svg t="1502809419777" class="icon" style="" viewBox="0 0 1024 1024" version="1.1" xmlns="http://www.w3.org/2000/svg" p-id="5893" xmlns:xlink="http://www.w3.org/1999/xlink" width="200" height="200">
  <defs>
    <style type="text/css"></style>
  </defs>
  <path
    d="M511.886925 959.112154c-246.736521 0-447.474404-200.729697-447.474404-447.475428 0-246.736521 200.738907-447.475428 447.474404-447.475428 246.737544 0 447.476451 200.738907 447.476451 447.475428C959.364399 758.382457 758.625492 959.112154 511.886925 959.112154L511.886925 959.112154zM511.886925 103.069447c-225.288023 0-408.566256 183.278233-408.566256 408.566256s183.278233 408.566256 408.566256 408.566256c225.289046 0 408.567279-183.278233 408.567279-408.566256S737.176994 103.069447 511.886925 103.069447L511.886925 103.069447zM511.886925 103.069447"
    p-id="5894"
    fill="#4a4a4a"></path>
  <path
    d="M492.430804 550.545898c-10.741645 0-19.452028-8.712429-19.452028-19.457144L472.978776 200.344934c0-10.740622 8.710382-19.451004 19.452028-19.451004 10.745738 0 19.456121 8.710382 19.456121 19.451004l0 330.747913C511.886925 541.833469 503.177566 550.545898 492.430804 550.545898L492.430804 550.545898zM492.430804 550.545898"
    p-id="5895"
    fill="#4a4a4a"></path>
  <path
    d="M764.807285 550.545898 492.430804 550.545898c-10.741645 0-19.452028-8.712429-19.452028-19.457144 0-10.741645 8.710382-19.453051 19.452028-19.453051l272.375457 0c10.745738 0 19.458167 8.711406 19.458167 19.453051C784.264429 541.833469 775.553023 550.545898 764.807285 550.545898L764.807285 550.545898zM764.807285 550.545898"
    p-id="5896"
    fill="#13227a"></path>
</svg>
