<?xml version="1.0" standalone="no"?><!DOCTYPE svg PUBLIC "-//W3C//DTD SVG 1.1//EN" "http://www.w3.org/Graphics/SVG/1.1/DTD/svg11.dtd"><svg t="1502809404140" class="icon" style="" viewBox="0 0 1024 1024" version="1.1" xmlns="http://www.w3.org/2000/svg" p-id="5168" xmlns:xlink="http://www.w3.org/1999/xlink" width="200" height="200"><defs><style type="text/css"></style></defs><path d="M380.394979 613.232713C392.519062 625.310709 412.150605 625.310709 424.274688 613.232713L981.904808 52.936827C994.028888 40.82097 994.028888 21.183818 981.904808 9.086892 969.790197-3.028964 950.149182-3.028964 938.034571 9.086892L380.394979 569.354383C368.270899 581.470237 368.270899 601.116855 380.394979 613.232713M992.97182 310.771717C975.842765 310.771717 961.943643 324.66141 961.943643 341.778843L961.943643 899.943095C961.943643 934.187429 934.154865 961.955456 899.887283 961.955456L124.139238 961.955456C89.862183 961.955456 62.084774 934.187429 62.084774 899.943095L62.084774 124.721383C62.084774 90.467585 89.871655 62.707129 124.139238 62.707129L651.654276 62.707129C668.811747 62.707129 682.682452 48.83826 682.682452 31.700002 682.682452 14.573104 668.802275 0.694769 651.654276 0.694769L93.092115 0.694769C41.667061 0.694769 0 42.343025 0 93.723722L0 930.969154C0 982.359314 41.667061 1024 93.092115 1024L930.905991 1024C982.331045 1024 1024 982.359314 1024 930.969154L1024 341.778843C1024 324.66141 1010.119819 310.771717 992.97182 310.771717" p-id="5169" fill="#4a4a4a"></path></svg>