<?xml version="1.0" standalone="no"?><!DOCTYPE svg PUBLIC "-//W3C//DTD SVG 1.1//EN" "http://www.w3.org/Graphics/SVG/1.1/DTD/svg11.dtd"><svg t="1503819026604" class="icon" style="" viewBox="0 0 1024 1024" version="1.1" xmlns="http://www.w3.org/2000/svg" p-id="3469" xmlns:xlink="http://www.w3.org/1999/xlink" width="200" height="200"><defs><style type="text/css"></style></defs><path d="M744.598 806.701l-64.020-53.104-36.75 44.306 108.346 89.893 147.041-177.326-44.347-36.748z" p-id="3470" fill="#09bb07"></path><path d="M780.681 556.044c-124.106 0-224.707 100.619-224.707 224.686 0 124.125 100.598 224.74 224.707 224.74s224.704-100.618 224.704-224.74c0-124.068-100.596-224.686-224.704-224.686zM780.681 946.857c-91.593 0-166.086-74.532-166.086-166.123 0-91.552 74.495-166.066 166.086-166.066 91.591 0 166.086 74.514 166.086 166.066 0 91.591-74.496 166.123-166.086 166.123z" p-id="3471" fill="#09bb07"></path><path d="M877.883 426.041c-9.426-40.147-25.266-77.71-46.37-111.751l81.173-99.262-103.614-103.622-99.262 81.191c-34.043-21.124-71.613-36.96-111.762-46.369l-12.765-127.515h-146.546l-12.765 127.515c-40.147 9.407-77.718 25.245-111.762 46.369l-99.262-81.181-103.622 103.622 81.191 99.262c-21.124 34.043-36.953 71.605-46.37 111.743l-127.51 12.764v146.546l127.51 12.765c9.407 40.147 25.246 77.718 46.37 111.762l-81.181 99.243 103.622 103.65 99.252-81.19c34.041 21.124 71.613 36.96 111.762 46.369l12.765 127.522h146.546l6.946-69.493c-34.843-42.228-55.804-96.326-55.804-155.248 0-11.638 1.095-23.012 2.681-34.231-8.902 1.030-17.919 1.68-27.095 1.68-130.386 0-236.097-105.694-236.097-236.087s105.712-236.097 236.097-236.097c130.403 0 236.097 105.7 236.097 236.097 0 9.179-0.668 18.194-1.68 27.106 11.22-1.586 22.594-2.692 34.253-2.692 58.884 0 113.001 20.97 155.211 55.812l69.493-6.965v-146.546l-127.504-12.765z" p-id="3472" fill="#09bb07"></path></svg>