<?xml version="1.0" standalone="no"?><!DOCTYPE svg PUBLIC "-//W3C//DTD SVG 1.1//EN" "http://www.w3.org/Graphics/SVG/1.1/DTD/svg11.dtd"><svg t="1502900303619" class="icon" style="" viewBox="0 0 1446 1024" version="1.1" xmlns="http://www.w3.org/2000/svg" p-id="7376" xmlns:xlink="http://www.w3.org/1999/xlink" width="282.421875" height="200"><defs><style type="text/css"></style></defs><path d="M411.341 537.341l-11.722-25.341h-3.529c-58.623 0-78.366-38.141-43.868-85.506l143.984-197.686-42.769 11.572c-14.111 3.817-25.55-5.025-25.55-19.313v-106.371c0-14.484 11.437-22.656 25.198-18.358l108.629 33.922c2.85 0.891 5.589 2.242 8.144 3.954l17.054-68.4v-3.815h159.025v52.941h-116.642l-13.199 52.941h11.938c14.585 0 24.378 11.45 21.822 25.865l-47.586 268.417c1.97 2.713 3.538 5.65 4.58 8.723l58.784 173.468h87.421v-238.275c0-14.598 11.691-26.431 26.528-26.431h314.917c95.027 0 192.203 74.244 217.101 166.012l41.455 152.803c3.791 13.974-4.985 25.303-19.601 25.303h-447.955v53.185c0 14.484-11.903 26.227-26.485 26.227h-270.671c-14.628 0-26.485-11.937-26.485-26.227v-27.878h-25.906c-14.732 0-31.668-10.793-37.682-23.797l-39.259-84.875-34.383 35.604c18.829 28.991 29.764 63.571 29.764 100.701 0 102.336-83.063 185.295-185.529 185.295-102.465 0-185.529-82.959-185.529-185.295 0-102.336 83.063-185.294 185.529-185.294 26.702 0 52.087 5.633 75.027 15.776l67.45-69.847zM1302.525 776.705c0 102.336-83.063 185.295-185.529 185.295s-185.529-82.959-185.529-185.295h371.059z" p-id="7377" fill="#4ac060"></path></svg>