<?xml version="1.0" standalone="no"?>
<!DOCTYPE svg PUBLIC "-//W3C//DTD SVG 1.1//EN" "http://www.w3.org/Graphics/SVG/1.1/DTD/svg11.dtd">
<svg t="1502900267283" class="icon" style="" viewBox="0 0 1024 1024" version="1.1" xmlns="http://www.w3.org/2000/svg" p-id="6264" xmlns:xlink="http://www.w3.org/1999/xlink" width="200" height="200">
  <defs>
    <style type="text/css"></style>
  </defs>
  <path
    d="M124.16 760.917333a154.026667 154.026667 0 0 1 0.469333-267.776 365.994667 365.994667 0 0 1-0.512-19.541333c0-212.394667 173.738667-384.426667 387.882667-384.426667 214.144 0 387.84 172.032 387.84 384.426667 0 6.698667-0.128 13.226667-0.469333 19.584a154.026667 154.026667 0 0 1 0.512 267.776V819.2a115.712 115.712 0 0 1-115.498667 115.626667H239.616A115.370667 115.370667 0 0 1 124.16 819.2v-58.282667z m77.525333-287.701333h620.629334C822.101333 304.042667 683.349333 166.784 512 166.784s-310.101333 137.258667-310.314667 306.432z m0 345.984c0 21.162667 16.896 37.973333 37.973334 37.973333h544.725333a38.144 38.144 0 0 0 37.930667-37.973333v-37.973333H201.685333v37.973333z m465.493334-422.4a38.613333 38.613333 0 0 1-38.826667-38.4c0-21.205333 17.365333-38.4 38.826667-38.4 21.376 0 38.741333 17.194667 38.741333 38.4s-17.365333 38.4-38.784 38.4zM512 358.4a38.613333 38.613333 0 0 1-38.826667-38.4c0-21.205333 17.408-38.4 38.826667-38.4s38.826667 17.194667 38.826667 38.4-17.408 38.4-38.826667 38.4z m-155.136 38.4a38.613333 38.613333 0 0 1-38.826667-38.4c0-21.205333 17.408-38.4 38.826667-38.4s38.784 17.194667 38.784 38.4-17.365333 38.4-38.826667 38.4z"
    p-id="6265"
    fill="#707070"></path>
</svg>
