<?xml version="1.0" standalone="no"?><!DOCTYPE svg PUBLIC "-//W3C//DTD SVG 1.1//EN" "http://www.w3.org/Graphics/SVG/1.1/DTD/svg11.dtd"><svg t="1502901857804" class="icon" style="" viewBox="0 0 1024 1024" version="1.1" xmlns="http://www.w3.org/2000/svg" p-id="8798" xmlns:xlink="http://www.w3.org/1999/xlink" width="200" height="200"><defs><style type="text/css"></style></defs><path d="M401.221818 329.541818H221.556364c-15.825455 0-27.927273 12.101818-27.927273 27.927273V428.218182c0 15.825455 12.101818 27.927273 27.927273 27.927273H400.290909c15.825455 0 27.927273-12.101818 27.927273-27.927273v-70.749091c0.930909-14.894545-12.101818-27.927273-26.996364-27.927273zM687.941818 221.556364h62.370909v72.610909h-62.370909z" fill="#FCE16D" p-id="8799"></path><path d="M873.192727 653.498182L673.978182 207.592727c-11.170909-24.203636-38.167273-37.236364-63.301818-29.789091-30.72 8.378182-46.545455 41.890909-35.374546 70.749091l4.654546 10.24h-29.789091c-13.032727 0-23.272727 10.24-23.272728 23.272728s10.24 23.272727 23.272728 23.272727h25.134545c7.447273 0 14.894545-3.723636 18.618182-10.24l52.130909 129.396363h-37.236364c-12.101818 0-23.272727 8.378182-26.996363 20.48L536.203636 605.090909c-11.170909 40.029091-67.025455 40.029091-80.058181 0.930909l-16.756364-53.992727c-6.516364-19.549091-24.203636-32.581818-44.683636-32.581818h-167.563637c-20.48 0-38.167273 13.032727-44.683636 32.581818L148.945455 658.152727c-11.170909 36.305455 14.894545 72.610909 53.061818 72.610909h619.054545c40.96 0.930909 67.956364-40.96 52.130909-77.265454z" fill="#FF5500" p-id="8800"></path><path d="M317.44 735.418182m-111.709091 0a111.709091 111.709091 0 1 0 223.418182 0 111.709091 111.709091 0 1 0-223.418182 0Z" fill="#FCF9FC" p-id="8801"></path><path d="M687.941818 735.418182m-111.709091 0a111.709091 111.709091 0 1 0 223.418182 0 111.709091 111.709091 0 1 0-223.418182 0Z" fill="#FCF9FC" p-id="8802"></path><path d="M221.556364 471.04H400.290909c23.272727 0 41.890909-18.618182 41.890909-41.890909v-70.749091c0-23.272727-18.618182-41.890909-41.890909-41.890909H221.556364c-23.272727 0-41.890909 18.618182-41.890909 41.890909v70.749091c0 23.272727 18.618182 41.890909 41.890909 41.890909z m-13.963637-113.570909c0-7.447273 6.516364-13.963636 13.963637-13.963636H400.290909c7.447273 0 13.963636 6.516364 13.963636 13.963636V428.218182c0 7.447273-6.516364 13.963636-13.963636 13.963636H221.556364c-7.447273 0-13.963636-6.516364-13.963637-13.963636v-70.749091z" fill="#2C2C2E" p-id="8803"></path><path d="M885.294545 647.912727L734.487273 308.130909c16.756364-0.930909 30.72-15.825455 30.72-32.581818v-35.374546c0-18.618182-14.894545-32.581818-32.581818-32.581818H688.872727l-1.861818-4.654545c-13.963636-30.72-47.476364-46.545455-80.058182-37.236364-18.618182 5.585455-33.512727 17.687273-41.890909 34.443637-7.447273 13.963636-9.309091 30.72-5.585454 45.614545h-9.309091c-20.48 0-37.236364 16.756364-37.236364 37.236364s16.756364 37.236364 37.236364 37.236363h39.098182l37.236363 91.229091h-16.756363c-18.618182 0-35.374545 12.101818-40.029091 30.72l-45.614546 160.116364c-3.723636 14.894545-15.825455 19.549091-26.065454 20.48-10.24 0-22.341818-4.654545-26.996364-19.549091L454.283636 549.236364c-8.378182-25.134545-31.650909-41.890909-57.716363-41.890909h-167.563637c-26.065455 0-49.338182 16.756364-57.716363 41.890909l-34.443637 106.123636c-6.516364 21.410909-2.792727 44.683636 10.24 62.370909 11.170909 14.894545 27.927273 25.134545 45.614546 27.927273 4.654545 65.163636 59.578182 117.294545 125.672727 117.294545s120.087273-51.2 125.672727-116.363636h119.156364c4.654545 65.163636 59.578182 116.363636 125.672727 116.363636S808.029091 809.890909 813.614545 745.658182h8.378182c23.272727 0 45.614545-12.101818 58.647273-31.650909s13.963636-44.683636 4.654545-66.094546zM731.694545 236.450909c2.792727 0 4.654545 1.861818 4.654546 4.654546v35.374545c0 2.792727-1.861818 4.654545-4.654546 4.654545h-10.24l-19.54909-43.752727h29.78909zM317.44 833.163636c-53.992727 0-97.745455-43.752727-97.745455-97.745454s43.752727-97.745455 97.745455-97.745455S415.185455 681.425455 415.185455 735.418182s-43.752727 97.745455-97.745455 97.745454z m370.501818 0c-53.992727 0-97.745455-43.752727-97.745454-97.745454s43.752727-97.745455 97.745454-97.745455S784.756364 681.425455 784.756364 735.418182s-43.752727 97.745455-96.814546 97.745454zM856.436364 698.181818c-7.447273 12.101818-20.48 18.618182-35.374546 18.618182h-9.309091c-8.378182-61.44-61.44-107.985455-124.741818-107.985455S571.578182 656.290909 562.269091 716.8h-121.018182c-8.378182-61.44-61.44-107.985455-124.741818-107.985455-63.301818 0-115.432727 46.545455-124.741818 107.054546-9.309091-1.861818-18.618182-7.447273-24.203637-15.825455-8.378182-11.170909-10.24-24.203636-6.516363-37.236363L195.490909 556.683636c4.654545-13.963636 16.756364-22.341818 30.72-22.341818h167.563636c13.963636 0 26.996364 9.309091 30.72 22.341818l16.756364 53.992728c7.447273 23.272727 27.927273 39.098182 53.061818 39.098181h0.930909c25.134545 0 45.614545-15.825455 53.061819-40.02909L595.781818 448.698182c1.861818-5.585455 7.447273-10.24 13.032727-10.24h58.647273l-59.578182-147.083637h-57.716363c-4.654545 0-9.309091-3.723636-9.309091-9.30909s3.723636-9.309091 9.309091-9.309091h50.269091l-12.101819-28.858182c-3.723636-10.24-3.723636-22.341818 1.861819-31.650909 4.654545-10.24 13.963636-17.687273 25.134545-20.48 18.618182-5.585455 39.098182 3.723636 46.545455 22.341818l198.283636 444.974545c5.585455 13.032727 4.654545 27.927273-3.723636 39.098182z" fill="#2C2C2E" p-id="8804"></path><path d="M694.458182 664.669091c-7.447273 0-13.963636 6.516364-13.963637 13.963636s6.516364 13.963636 13.963637 13.963637c18.618182 0 33.512727 14.894545 33.512727 33.512727 0 7.447273 6.516364 13.963636 13.963636 13.963636s13.963636-6.516364 13.963637-13.963636c-0.930909-34.443636-27.927273-61.44-61.44-61.44zM323.956364 664.669091c-7.447273 0-13.963636 6.516364-13.963637 13.963636s6.516364 13.963636 13.963637 13.963637c18.618182 0 33.512727 14.894545 33.512727 33.512727 0 7.447273 6.516364 13.963636 13.963636 13.963636s13.963636-6.516364 13.963637-13.963636c-0.930909-34.443636-27.927273-61.44-61.44-61.44z" fill="#2C2C2E" p-id="8805"></path><path d="M730.763636 462.661818m-13.963636 0a13.963636 13.963636 0 1 0 27.927273 0 13.963636 13.963636 0 1 0-27.927273 0Z" fill="#FFA063" p-id="8806"></path><path d="M795.927273 571.578182l-33.512728-73.541818c-2.792727-7.447273-11.170909-10.24-18.618181-6.516364-7.447273 2.792727-10.24 11.170909-6.516364 18.618182l33.512727 73.541818c2.792727 4.654545 7.447273 8.378182 13.032728 8.378182 1.861818 0 3.723636 0 5.585454-0.930909 6.516364-3.723636 10.24-12.101818 6.516364-19.549091z" fill="#FFA063" p-id="8807"></path></svg>