<?xml version="1.0" standalone="no"?><!DOCTYPE svg PUBLIC "-//W3C//DTD SVG 1.1//EN" "http://www.w3.org/Graphics/SVG/1.1/DTD/svg11.dtd"><svg t="1503156553352" class="icon" style="" viewBox="0 0 1024 1024" version="1.1" xmlns="http://www.w3.org/2000/svg" p-id="17493" xmlns:xlink="http://www.w3.org/1999/xlink" width="200" height="200"><defs><style type="text/css"></style></defs><path d="M512 957.8c-60.4 0-119-11.8-174.1-35.2-53.3-22.5-101.1-54.8-142.2-95.9-41.1-41.1-73.3-88.9-95.9-142.2-23.3-55.2-35.2-113.8-35.2-174.1 0-60.4 11.8-119 35.2-174.1 22.5-53.3 54.8-101.1 95.9-142.2s88.9-73.3 142.2-95.9C393 74.8 451.6 63 512 63c60.4 0 119 11.8 174.1 35.2 53.3 22.5 101.1 54.8 142.2 95.9 41.1 41.1 73.3 88.9 95.9 142.2 23.3 55.2 35.2 113.8 35.2 174.1 0 60.4-11.8 119-35.2 174.1-22.5 53.3-54.8 101.1-95.9 142.2-41.1 41.1-88.9 73.3-142.2 95.9-55.1 23.3-113.7 35.2-174.1 35.2z m0-854.8c-224.6 0-407.4 182.7-407.4 407.4S287.4 917.8 512 917.8 919.4 735 919.4 510.4 736.6 103 512 103z" p-id="17494" fill="#d81e06"></path><path d="M515.1 659.8c-11 0-20-9-20-20v-320c0-11 9-20 20-20s20 9 20 20v320c0 11-8.9 20-20 20zM515.1 726.6c-11 0-20-9-20-20s8.9-20 20-20c11 0 20 9 20 20s-8.9 20-20 20z" p-id="17495" fill="#d81e06"></path></svg>