<?xml version="1.0" standalone="no"?><!DOCTYPE svg PUBLIC "-//W3C//DTD SVG 1.1//EN" "http://www.w3.org/Graphics/SVG/1.1/DTD/svg11.dtd"><svg t="1503156426885" class="icon" style="" viewBox="0 0 1024 1024" version="1.1" xmlns="http://www.w3.org/2000/svg" p-id="16768" xmlns:xlink="http://www.w3.org/1999/xlink" width="200" height="200"><defs><style type="text/css"></style></defs><path d="M810.666667 277.333333 213.333333 277.333333c-93.866667 0-170.666667 76.8-170.666667 170.666667l0 85.333333c0 93.866667 76.8 170.666667 170.666667 170.666667l597.333333 0c93.866667 0 170.666667-76.8 170.666667-170.666667l0-85.333333C981.333333 354.133333 904.533333 277.333333 810.666667 277.333333zM411.733333 398.933333c12.8 0 19.2 8.533333 19.2 19.2 0 10.666667-8.533333 19.2-19.2 19.2-12.8 0-19.2-8.533333-19.2-19.2C392.533333 407.466667 401.066667 398.933333 411.733333 398.933333zM430.933333 452.266667 430.933333 576l-38.4 0 0-123.733333L430.933333 452.266667zM330.666667 576l-40.533333 0-14.933333-72.533333c-2.133333-17.066667-6.4-34.133333-8.533333-53.333333l0 0c-2.133333 19.2-6.4 36.266667-8.533333 53.333333L241.066667 576 200.533333 576l-38.4-170.666667 40.533333 0 12.8 70.4c4.266667 21.333333 6.4 42.666667 10.666667 59.733333l0 0c2.133333-19.2 6.4-38.4 10.666667-59.733333l14.933333-70.4 40.533333 0 12.8 72.533333c4.266667 19.2 6.4 38.4 8.533333 57.6l0 0c2.133333-19.2 6.4-38.4 8.533333-59.733333l12.8-70.4 38.4 0L330.666667 576zM938.666667 533.333333c0 70.4-57.6 128-128 128l-170.666667 0L384 661.333333c70.4 0 128-57.6 128-128l0-85.333333c0-70.4 57.6-128 128-128l170.666667 0c70.4 0 128 57.6 128 128L938.666667 533.333333zM622.933333 576l38.4 0 0-68.266667 59.733333 0 0-32-59.733333 0 0-38.4 64 0L725.333333 405.333333l-100.266667 0L625.066667 576zM787.2 398.933333c-12.8 0-19.2 8.533333-19.2 19.2 0 10.666667 8.533333 19.2 19.2 19.2 12.8 0 19.2-8.533333 19.2-19.2C808.533333 407.466667 800 398.933333 787.2 398.933333zM770.133333 576l36.266667 0 0-123.733333-36.266667 0L770.133333 576z" p-id="16769" fill="#d81e06"></path></svg>