<?xml version="1.0" standalone="no"?><!DOCTYPE svg PUBLIC "-//W3C//DTD SVG 1.1//EN" "http://www.w3.org/Graphics/SVG/1.1/DTD/svg11.dtd"><svg t="1503843661895" class="icon" style="" viewBox="0 0 1113 1024" version="1.1" xmlns="http://www.w3.org/2000/svg" p-id="12160" xmlns:xlink="http://www.w3.org/1999/xlink" width="217.3828125" height="200"><defs><style type="text/css"></style></defs><path d="M798.208 866.462c-81.395 65.64-178.543 97.148-280.943 97.148-249.436 0-451.61-202.174-451.61-451.61S267.829 60.39 517.265 60.39c238.933 0 435.856 186.42 448.984 422.728v7.877h57.764v-7.877c-2.625-57.764-15.753-115.528-39.384-170.667-26.257-60.39-63.016-115.528-110.277-162.79-47.262-47.261-102.4-84.02-162.79-110.276C648.547 13.128 582.906 0 512.013 0 443.747 0 375.48 13.128 312.465 39.385c-60.39 26.256-115.528 63.015-162.79 110.277-47.261 47.261-84.02 102.4-110.277 162.79C13.142 375.466 0.014 441.107 0.013 512s13.129 136.533 39.385 199.549c26.257 60.39 63.016 115.528 110.277 162.79 47.262 47.261 102.4 84.02 162.79 110.276C375.48 1010.872 441.12 1024 512.013 1024s136.534-13.128 199.55-39.385c57.763-26.256 112.902-60.39 157.538-105.025l13.128-13.128h-84.02z" p-id="12161" fill="#1296db"></path><path d="M680.055 540.882c15.753 0 28.882-13.128 28.882-28.882s-13.129-28.882-28.882-28.882H551.398v-15.754s0-2.626 2.626-2.626l126.03-133.907c10.503-10.503 10.503-28.882 0-42.01-5.25-5.252-13.128-7.877-21.005-7.877-7.877 0-15.753 2.625-21.005 7.877L525.142 412.226 412.239 288.82c-5.251-5.252-13.128-7.877-21.005-7.877-7.877 0-15.754 2.625-21.005 7.877-10.503 10.502-10.503 28.882 0 42.01l123.405 133.907s0 2.626 2.626 2.626v15.754H367.603c-15.754 0-28.882 13.128-28.882 28.882 0 15.754 13.128 28.882 28.882 28.882H496.26v34.133H367.603c-15.754 0-28.882 13.129-28.882 28.882s13.128 28.882 28.882 28.882H496.26v86.647c0 15.753 13.128 28.882 28.882 28.882 15.754 0 28.882-13.129 28.882-28.882v-86.647H682.68c15.754 0 28.882-13.128 28.882-28.882s-13.128-28.882-28.882-28.882H554.024v-34.133h126.03z m427.979 128.656c0-2.625-2.626-2.625-2.626-5.25 0 0 0-2.626-2.625-2.626L995.13 546.133c-5.25-5.25-13.128-7.877-18.379-7.877-7.877 0-13.128 2.626-18.38 7.877-10.502 10.503-10.502 28.882 0 39.385l63.016 68.267h-241.56c-15.753 0-26.256 13.128-26.256 28.882s13.129 28.882 26.257 28.882h241.559l-63.016 68.266c-10.502 10.503-10.502 28.882 0 39.385 5.252 5.251 13.129 7.877 18.38 7.877 7.877 0 13.128-2.626 18.38-7.877l107.65-115.528 2.626-2.626s2.626-2.625 2.626-5.251c2.626-2.626 2.626-7.877 2.626-10.503 0-10.502-2.626-13.128-2.626-15.754z" p-id="12162" fill="#1296db"></path></svg>