<?xml version="1.0" standalone="no"?><!DOCTYPE svg PUBLIC "-//W3C//DTD SVG 1.1//EN" "http://www.w3.org/Graphics/SVG/1.1/DTD/svg11.dtd"><svg t="1503157458091" class="icon" style="" viewBox="0 0 1024 1024" version="1.1" xmlns="http://www.w3.org/2000/svg" p-id="18787" xmlns:xlink="http://www.w3.org/1999/xlink" width="200" height="200"><defs><style type="text/css"></style></defs><path d="M874.761536 303.676347c35.316344 61.383022 55.870472 132.389216 55.870472 208.347189 0 231.18943-187.464579 418.560888-418.655032 418.560888-231.143381 0-418.561911-187.371458-418.561911-418.560888 0-231.190453 187.41853-418.608983 418.561911-418.608983 70.913073 0 137.620357 17.752316 196.200544 48.909943 22.515806 7.847735 39.987736-22.23542 12.426007-40.454364-62.690808-31.952736-133.416616-50.357921-208.626551-50.357921-254.31308 0-460.465277 206.197222-460.465277 460.511325 0 254.31308 206.151174 460.464253 460.465277 460.464253s460.510302-206.15015 460.510302-460.464253c0-81.470523-21.347191-157.802002-58.43897-224.229924C899.427308 264.857227 867.194186 276.629341 874.761536 303.676347z" p-id="18788" fill="#13227a"></path><path d="M766.103814 166.243255 424.20084 508.146229 380.616182 630.211309 507.959475 586.626651 844.584236 248.226454Z" p-id="18789" fill="#13227a"></path><path d="M789.50785 146.762575l78.43335 82.217537c0 0 83.712587-57.551764 32.512485-108.144022C849.34875 70.290903 789.50785 146.762575 789.50785 146.762575z" p-id="18790" fill="#13227a"></path></svg>