<?xml version="1.0" standalone="no"?>
<!DOCTYPE svg PUBLIC "-//W3C//DTD SVG 1.1//EN" "http://www.w3.org/Graphics/SVG/1.1/DTD/svg11.dtd">
<svg t="1502532206259" class="icon" style="" viewBox="0 0 1024 1024" version="1.1" xmlns="http://www.w3.org/2000/svg" p-id="2040" xmlns:xlink="http://www.w3.org/1999/xlink" width="200" height="200">
  <defs>
    <style type="text/css"></style>
  </defs>
  <path
    d="M434.548 589.146c-1.095 0.11-1.947-0.7-1.895-1.798l7.345-154.71c0.052-1.098 0.734-2.63 1.515-3.405l302.94-300.194a2.028 2.028 0 0 1 2.842 0l142.132 140.837a1.984 1.984 0 0 1 0 2.816L586.812 572.608c-0.782 0.775-2.316 1.498-3.41 1.608l-148.854 14.93z m56.083-138.06c-0.781 0.774-1.463 2.306-1.515 3.405l-3.66 77.216c-0.052 1.1 0.801 1.908 1.896 1.798l73.382-7.364c1.095-0.11 2.63-0.833 3.41-1.607l254.117-251.842a1.984 1.984 0 0 0 0-2.816l-70.966-70.324a2.028 2.028 0 0 0-2.841 0L490.63 451.086z"
    p-id="2041"
    fill="#0b3688"></path>
  <path
    d="M880.314 892.41c0 1.1-0.9 2-2 2H145.198c-1.1 0-2-0.9-2-2v-733.1c0-1.1 0.9-2 2-2h364.566c1.1 0 2 0.9 2 2v46.097c0 1.1-0.9 2-2 2h-314.47c-1.1 0-2 0.9-2 2v632.906c0 1.1 0.9 2 2 2h632.923c1.1 0 2-0.9 2-2V535.54c0-1.1 0.9-2 2-2h46.097c1.1 0 2 0.9 2 2V892.41z"
    p-id="2042"
    fill="#0b3688"></path>
  <path
    d="M511.747 338.982c0 1.1-0.9 2-2 2H259.302c-1.1 0-2-0.9-2-2v-46.097c0-1.1 0.9-2 2-2h250.445c1.1 0 2 0.9 2 2v46.097zM377.048 461.778c0 1.1-0.9 2-2 2H259.302c-1.1 0-2-0.9-2-2v-46.096c0-1.1 0.9-2 2-2h115.746c1.1 0 2 0.9 2 2v46.096zM377.048 584.574c0 1.1-0.9 2-2 2H259.302c-1.1 0-2-0.9-2-2v-46.097c0-1.1 0.9-2 2-2h115.746c1.1 0 2 0.9 2 2v46.097zM766.193 707.369c0 1.1-0.9 2-2 2H259.302c-1.1 0-2-0.9-2-2v-46.097c0-1.1 0.9-2 2-2h504.891c1.1 0 2 0.9 2 2v46.097z"
    p-id="2043"
    fill="#0b3688"></path>
</svg>
